<mxfile host="Electron" agent="Mozilla/5.0 (X11; Linux x86_64) AppleWebKit/537.36 (KHTML, like Gecko) draw.io/24.7.17 Chrome/128.0.6613.36 Electron/32.0.1 Safari/537.36" version="24.7.17">
  <diagram name="Page-1" id="c4acf3e9-155e-7222-9cf6-157b1a14988f">
    <mxGraphModel dx="1322" dy="798" grid="1" gridSize="10" guides="1" tooltips="1" connect="1" arrows="1" fold="1" page="1" pageScale="1" pageWidth="1169" pageHeight="827" background="none" math="0" shadow="0">
      <root>
        <mxCell id="0" />
        <mxCell id="1" parent="0" />
        <mxCell id="WU7UDboMPXjgZ1tM95fb-98" value="&lt;h1 style=&quot;margin-top: 0px; font-size: 13px;&quot;&gt;Diagrama de Componentes - Git Activity Provider&lt;/h1&gt;&lt;p style=&quot;font-size: 13px;&quot;&gt;Hugo Gonçalves, 2100562&lt;/p&gt;&lt;p style=&quot;font-size: 13px;&quot;&gt;Arquitetura e Padrões de Software 2024&lt;br style=&quot;font-size: 13px;&quot;&gt;&lt;/p&gt;&lt;p style=&quot;font-size: 13px;&quot;&gt;MEIW&lt;/p&gt;" style="text;html=1;whiteSpace=wrap;overflow=hidden;rounded=0;fontSize=13;" parent="1" vertex="1">
          <mxGeometry x="10" y="700" width="602" height="120" as="geometry" />
        </mxCell>
        <mxCell id="s_Ze_dU6yraX1gmQ5FHQ-4" value="" style="group" parent="1" vertex="1" connectable="0">
          <mxGeometry x="250" y="30" width="670" height="80" as="geometry" />
        </mxCell>
        <mxCell id="s_Ze_dU6yraX1gmQ5FHQ-1" value="" style="shape=image;verticalLabelPosition=bottom;labelBackgroundColor=default;verticalAlign=top;aspect=fixed;imageAspect=0;image=data:image/png,iVBORw0KGgoAAAANSUhEUgAAAiAAAACUCAYAAACqTZJWAAAgAElEQVR4nOy9eXRd13Xm+dvnPHAEKIojSIqTOJPipImkZFmzpXiQ5MRjOXEcO93VnUo6K6m2a3XirK5OnEp6JemqSrK6Op1O7MROOXHs2PIkyaEkS5bEQaJIcAY4giMAzsREAu+e3X+c4d4HyiIsAJz0vrUkAnjv3XfHc/b59re/LaqqVFFFFQOEQzEIoAoISHiynChGxf8iDtTkHxNQwnvFbwc1qDhEFbDh7+E1/GeLn8n8u8IfwSmY+D0CikMw/nVAhbSfErbt30PafvqSvvssDoeiCNYZVBQRKby34pQQv1aU8Cnx20ubN4WP5MeHgpKB2MLrZVQtIlrYz3DeFZxkGAQXvydsOwOMZojYdI7y7yrsZLwe4cRIcX+oPAfp3MZzqIVrGfdf4ulwaHh/fC1uQ4t/o7APYTvF05pfIyo/WzgHCOn44/2ngEgZKKV3p9fTdxXvrXC/VBx/FVUMPkpXeweqqOK6RppxTJqN9hw6Tmd3F0gNqGIMOOdYuXA6aIlMQMIk0LDrAGqFTAWrAI7Zt0xi7KjR7D58jO6LPZQycALLF84C8okkzkYn205z/NQ5nFhAMaKMHl5i3qxbQKGpuY0LFy4AkIWpWcVx+4KZnDvfxYFjZxAyVEBVEJHw+foQVOWBzJbdhxERVDMA5k6bQNkYDh5uo4SSiUFVgLIPTJyE9wuv7tjD/On1PLxqEUYtra1naTl3GpygxoIqIopToUaVpQtn4SdBUAyEffNnL4cAew8eY9fBo3T0lJk0diyLZ07ilS17eO/KOUyePB7EojhaWk9z6nQ3ZZuFY1VUhTnTJlBXNxrBse/Qcdq7e3CmhHHl8C0GBYwoyxfMgBTkKKCoZAg1efRJPqn77/HX9ljbGf7m+6/wv3zkYcaMqc3fIy4cv0WBzo4u9h1pQ5ygRlHxAYGoQTVj9MjhzJs1FTQEuOl+cJgYNAgcaztF25l2cIoTiwVEeykbg3EOTA24Xn6wbgcff/BO5s6eisP4e7EYTFZRxRCgGoBUUcUAkAnYEBQIgjr4xgubaGw5gZgMtETZKcYKX1vwGVQCW4EAjj95+gVUwOgwDBkZyheeepCx80fzzy+8SWNbC04tguNj9yznyffeCWGFGleqL7zZxDMN2xFqyLIMYx1z6ifwv8+8BRXHN158g8a2NjJ1DNMSmQhOLvDf/8P/wP5jp/jT76wNR2NScLGwfiJf/MwThQnVMwj/17fX4gQsFtWM3/7wI4Djz55+nsxZxJQRsdiyITPq91Us4jIyA+PHjMIEVufFhh38YEsj4iSdq4xe1NRgtIw+bZlQO4IHls7nw++9A8QGdqeMaAkVaG/v5i/++Xl2nDiBKBg1ZKaMwWLUMG/2VCZPimyE4eWGJp7esgNDDVYd6gQtwW898RC3LxiJYvin5zez88RJz6WoYtT4Y5aMTH0wNWVUHYtn1/PRB2+ntnY0RgxQBsmH1MgjEBkicTy3fjuNbWd5efNuPnD/SkRteLeEa+oDl71HT/Jn334eADX+O406HBYxzgd5Yphx00gevn0Jj9y1JA+EAdUMwfLS5t08s6mJTARresjUUhJDWctYLP5dPnDs6OlBVbGigUmRKv9RxZBCqimYKqoYACpWip5qj/PNp//oy2TG8YWnHmb5gllk9FLSmpCSUZB8eP+lP/5r/v2Tj7Bi0WzKZJSQlNL5g799msa2szgcv/+xDzD31gn+uygVUjfw9WfXs6/1BL/76Q8l/l7IX//F//P/wyF84YkHWLFwDpmAUcWJ8Id/+z2aTpxi/IhR/Nff/Hn8RFZIh0hMo8Bv/eXXGVkzjD/6tx/27wlpi2/8aB3ff7OR2WPH8OEH7wSjGOcnMhHlmy++yZLZk/nEY2v8aj8EIl/68vfZ3dbGzDFj+Mj9t1NjhV4sL76+i01HjiBi+eCKRXzisVWV+4Pji//tXzh0roOlMybziw/dTX39zew90Ma3X9tCw+HDfOGpR1m2cAaiJgSLHr//5adpbD3Jh25fwsfft7qQBgnpDIFf+qO/QY1lza1TuHfZIhTo6upiz5FWXms8RGe5h9qa4Xz0Pct45O5lKAqS4YPRkL4oZHja27v5/F99m45yNxNHj+K//MbHwzUO3+n8TqjRlDJraDzIH31nLSUp8fknH0K1FxU4eaaLrfsOs/loC6rKgskT+I2PPsbNtSPQwCQV0ydf+vJ32NVylnvmzeCe2+aAGIxmgMGR8aff+TGf//CDrFgwywcvYqmiiqFGlQGpooqBINDeMQ6IOXlUyaxgXMmnIXAYrQkfkSS+UJyn2aUGjKJACYun2/1XzLtlMjvbTlAj8F9/8AJ/+OknqbtpZB5cxAk5pHqirqNCRKBgtIQEmh9VjPiUhlW4b9FMGtvaON19jobdh1g2/1bERJ2CZ3icKPsPnuR0VycfuXthSAuQp07EkhlHzUjLyoUzKepiHMr3XtuBSdoDf4yE86UqjBg+nBWLbw3by1i5YAZ/+g/P0XDoCGt3NvLx993pUzACoobXGvbSfPYcTgz/0xP3U1c7Cpwyb/YkvjDzMT71p1/2wU+YiI2GExUYEtQi6tJp8oGjyRMrxrMO48eM9WkX9ZqUe1fM4+cfuMBXn/0Jr+07zJdffB3U8Miq2yAwM2iIOlIM4Ni4Yx+d2QVELCc6u9hzsIV5M6eC5PoNlTz4QCCTjOFSg9MeH0h5CggFHl2zlK07D/B///BV9rSc5s/+4Wk+/8kPcNOYWnx45hNugglXImNi7XBWLpiZglIfbAg2aGb8fWPTPlc1IFUMJap3VxVVDATOzzKqJugUwIsfLTbLUMpggiYgshJJHBgmYBHEZUWJYS5yFJCgfVAnnO3o5Gv/+pOwag4TpTi/4nag4qd70mv+e1zYVyfOBw5GkkAThQfXLKO2xlKWGl7ZvhdnAPV7KIFpMShrX99MpsKDdy3yK34ciHiRpVNKKOJq/HlRE6ZBh6jjkw/cwf0rFgTmx6VDdXE7Rr1QVQQogcI9S2ajRrjQ49h3qMUfVxDpNreewOHTNHW1owBH2fjzj1EWTJjE6JHD/HkWv5/E1wFspCeytC9Z2CP/PYKLIl4l7Bcglrq60fzaRx5nwaQpWIV/fnULx1tPkYn/tJJVjK6isLZhN+NGDWfcyBFYhOde3+WDlbB/iiJqCr+D1RrK2pO2oUbQIAMGx7LFs/ntjz2IE8eBMx389fdf8lkzBYMN2wO0BNazQKjm4laxoIbfeuo+bp0yDuJd6BStTg9VDDGqd1gVVQwEJtRypImEfIIQxzD1AYFfibtAx2uoDMkFnuDDlpQQTbIBRdXhVPjAnbfhxPDavmOsXb8zsS1+kjGAUnJ+Sz794hIrYwQyE35wmWdNNOhXwiiwbPo0LI51TUfpPN8BYv1LCmWBjvPdvHGkhdXzZlI3angQ0gbmR8BYIVNFRVEjOD9jYtUHZHNnTvaCUHwQQfhPpQRag3GeHfKZEB8KjBpZQpxgFM53l9O58XoVi5qMsx3d/Gj9NlBDCfEBhRN+97MfZP7MKeE85cxGsbIlE19DJCHoKEFe7YJLqaf0nXEbqog4fvWDq8jE0NXTy7d+8iZWQ5oniElVFcWx58BxDp85xz3z5/LQ8tmoKtsOHedcRyc+tDMgGgISE4I3gvC2BkdeRSPO8xqqPid264ypPLFyCUYNDc0t7GtuzdmvEMiICFnW67dtioGuF7GuXDCHMXW14bpkaPE9VVQxRKgGIFVUMQAk1kNzyZ4PPoRMDD34qgWj4idbQEQRyhVVBs6UMJn68lkKJZdGcMYxDMMnHr2LmTffhDjln199k2NtJ7xwMQQ/zpQpm0KpaNi3uI+qGcZlfgJKWaBSWg0/dtdSHBlY4YXNu/ATsN8fi2PjzgN0Xcy4b/G8xKAoJrBADuccamoQyoHQDxOqwJe+8l2ee2NHmujzyAUsFzH0Ug7BmeBALJnAruY2wJGRMXfaBAjlpgLcOW8GBotT5e9f2sTTP37DH4tYEMEmZiPXssSgTTXzAWCqQzYhsAj7RS8WG6I2/5n4b2JD1DB1wkRWzpiEGmHjvsNonPBTAOjP04/e3IVReGDFPB65YwmZga6ei7y+fW8KFuOxaQh8/IaylCaJu4cJgZ94DY1VeGD5QhB//X+ytYnIosRTDVAjBlMQugLsaT7GH3zlezQ2H/PBljjK4pmryNRVUcVQoRqAVFHFAOB1GA7EpHRI1DmIGgxelKihzFWC8E/7yK+UHpy1he3GNIXzegUADL/+4fsZVSrR0XuRP/+Xl/N9UINxvrIjvje+KIGZiXR7pe7cJQHm3Nn1zLzpJhTYuPsQyaMjrLxf2NLIhNHDWbFoJlEfIJBW7aKBsZFcehInv8aWU5w525H2y6eQoqdIKe2TScIJx96DbbywvQmHZcFkXyZbTC/NnT2VBxfNgaCt+eb6Br74/3yDNxsPhH0oBg/5hFxGQSziQspD8mOMOyzUkJH5ACAeRLh2UXQbPzdn6nisEzKUrbsPFbbjv/98+0W2HGph2Ywp1E8aR21tLSumT8YJrNt1sIJdAX/foOE8Jq1G8Zrlw3aGv+cmTx7LzaNHY5xw9NSZcOyhNBzwyUAf1UhhG53dvexpPUl398UQ/JikB1EyqqhiKFEVoVZRxQDgKw4KtHwY2B2AJJeHQMkHfYOLk1dOgVglpR0gTxXEfLwTBwpTJ43nM+9bxV8+8ypHz5zlK0+/xGeevM9PKyafdPtdyeDC58SzDw+vXMhXXtxM85nT7D3YypxZkxHg2IlzNJ85ywdvX0JuVBUJAx9kIQYrGU3Hz/DpP/obVEooZVSgxhJ0BTGl4Y9N1J8ra2s4df4C//jsOjCWIyfP0NB8DFVl9vib+O1feCQFWv6HMmiJzz1xL5PqRvD9N5roEMeBs538xbde4t4lh/n4Q3dQVzvaa16CUFZVKQUvEdePLIPFepYpVMZccv3FMXvKVDKz06cz4qStORO2YUcTXT29vOe2ecHvQ3jvkvk0HGplX8sZjraeZNqkCYEtyv1APGulOUtDZIgK9w0O1II4xteN4UzHCU50dhZErRbRwHMZ4Qdv7uD7m7fRY0qUtAfBoq6EKVQWoSZ4i1QrYaoYWlQDkCqqGAiCzsEzDH4UjxUVgkPF+kkkVi8oiIlTSM5WiCuFidKkVW+cDESi5NRP+GuWz2VTUzPr9x1j7e59rJx/K8sWTcdPymGlnLwnLrP/RpLzp0G4e9Gt/PMrW+noNTz3xjb+3azJgOOH6xoQsbxnxVxyvwqPWA2jODIVZt08mo8+uBpchlED1vDH//IMaiScE5OODXzwVVZHb+9F9rac5eDJs1zIelErfP7JR1k+f1oy6BJVL7QNky6qfOjBu7hr8Ry++fIm1u07RFkML+3cx4HjLXz68fcyf1Z98DfxGhNCuau8VUTRB2Utg2R+v6MYGHDiQzDBQEbw6QhGYuHkRD3Ly1v2Mn70cNYsn5MCmdXL5/PltRvp6unlmde386sffID8Ktt4AyREBkQuuaD5tVB6EVEm1I72wYTDe4ZEjYlTVs+dyT23zUMRrCr7T7TwjfXbcTZu2d9/PmiuKOOpoopBRzUAqaKKASEvRU26hpDWME4DRU7I23vhRUpPqPEiQQVno6Qz1wPEwCaLk6XkgtNPv+9e9vz9tzjZpfzFD17mP9/yFDiLMwpOEWNyHcjbQAvVHQ5lTF0tt02fwOv7j7G5+Tjnz3dQN6aW1/cc4bbpU5k6eZzPZuQZHu99Qlhlq2XE8FEsWzAdoxK0DIoxw/wqO6RXojtoLgp13HLzzfzOL7+frXsO8cffegFrYHfzMVbMmwFSRigF0W/uiOrjCaV+0lj+3Ucf5fGDJ/ibZ1/k8LnzHDzTxVefeZkv/c8fI+204vUrRumPBZIxxrNEBbGwOMWaGBAadh86mjQhtcNGeKYkBJxNB1s4eOYso4YN5w/+9geehRHnq1LwVS0bmg7xOXwwI4UUU9LLQCUL0ocVkZDCOX6q098r6rzGyJRCMOx8+kgtN990E8sWzfABRghuS7oLdcWgssiCVFHF0KF6f1VRxQCQNBJhAvJw4ARnbBJiakEYEatTItPR0HQIcJT0Yq4diGkawpzrMhQ/KajCmDGj+LUPPYrNlJ6sm//yzRfBiGccRPCW7Zd/vKPW0acM/Bc+fvcyyqL09Do27trH8xu20tHby3uWzCpKG0hiTvEakzKCFUCj4XvMNAm//eSDnj0JYl0J+yjOe36olCkbQSRj+byZvGfedMQpT2/eTUvrSTJKob7VeJ0J+GPUUD0UvDTmzprI737qCaaPrQVRDpzrZNvOfX0uGMHh9PLX14TzkgcEoewYgwtlxg2HjmFcL+PqRjB3dn34oP+itRt3kInhvUtuZeSIEHQEeuKW8WNQVS72lFm/pTHtV+HbL/lbXqZM4W+97D1wjO7eMohl6a0zyJkRz344I1hTxmjslyOoOGbeMpHf/vB7mXvL+KT5iIHxpWxLFVUMLqoMSBVVDAT6FpOCSrDPzhDgzcZmbp8/HZVSPqRrWJliOHnmPOIUZ4aHYCADYwO7oF4vEc3DUoUNzJ9Vz8+/ZznferWBppZWTnW0M370qLB5/2hfdgqRoOeQMN0JzJs5lYkjR3K6s5vnG5oYWRrBxNrRrFk+j1xeCrlwslDqGdIAFN4pTrl94czkORLJIhWDGMGpxVujezt2B3z68XvY2txCd083f/3cK3zxl58MDqEQjbu27D5M08EWPvZzqwJb5AOE2roR/OZTj/Kbf/ddrIOyHYEmdsFbpjvAyeUDtOjn4VNG/rtTikwcW3Ye4fCZcyg1rJl3C7HRm8PReb6LrYePct+tt/Cpx1dTxvdY8cfu2azf+X+/xeHTZ/nJjn2sWTEvb5gXUk2p+kX1EuYjnWSxfOe1bZQlo9aWeGjlIorN6QJ/E+DAeRM6EMbUjWTFgln5O5xWaJOqqGIoUWVAqqhigIgTbqQTovhz4aRxOIFtza2c7eyN0oNKwzHguxt3MmpYDcvmzwgTbAw+sqAj8G6pIpomQBPKJJ+873YWTJ0AwInOLpyJGof+ITdP87sfVQgPL5uHEzh0uoP9LW0snz4xP87EQBQqYABchjAM1eDkSiR0PPuzdXczazduDYFXXJ37n1R9UEWo/KitHcVH3rOMTErsaT3J91560zdiC3VFCjQdbuP7DY3+GBI149MO9RPHUnIxLdQTdjYOdyY4wvaDAtGSj5jU6yEiEyJOOddxka+ufRWHMqF2JB+45/YUkllg485DtPdmrFk6HwVKuJAOiaXG8MjSuWRi2H64hSOtp9PXep+PynRLMRgpvJG163aw9fBxrDM8vHQeo8eMyPU54X+i+D422CBQcnl1D4YXXmtgc+MhrwkSyGIAU0UVQ4hqAFJFFQOAprLRMNgXfCA+tOZ2RITTHV38yVd/QFd7OwBRBXK2vYc/+e/PcLb7PA/dNjc9jLEJWvR5EBGc5CkVPzHEyo4yv/4LjzBieA1GLZay12fqzxCFBOZAQzoDgffeudALPXH0Gnj/quWUo5jRxFbvLvWHIWhJXEhR5OfGvw+B3YeOs37nQS+KLHhUSKD+S95CNHRshUfuXsLCSePI1PK9N3fR0nYKwfnXxZGpI0Np2HWgIOD0E/w/rn0do47hw4axcuHMlCrz+xr8NvqhAXHiHVrpU1G0Zc9h/uOXv0tLVxejhtXwGx+8n9F1Iyquz3ffaGDiqOGsWDjTs0zRMM5IYqjuXDo/Xe9Xt+xN9xACRlwQz1buZwxE2tvb+cdn1/H3P95IGWXNvGl8/LF78oLeoL+JOhnv2KtJGyThuoHj1aZmdh88SnR9Nem+qKKKoUM1BdNv5BULiVqORZZaoC3fiiYNoq5I1ccJSqk2fbreUSEGBIreGSsWzeSXz67iqy+v4+DZDj7/V99m6YxpjB8zihOdnWw/2EJnucyaW2/hY4/dA0TxoUHEcbajg4NHz3DubAcWy+bdzdQNr2Hu7Hqfpw8ihjGjR/JrH3iA//zttThX41e7MaWisKe5hY6LZd9NVeBwSxsAKxfMTgJGfyy5+HFsbR33zJnGugNHWThpHJPqxyGU08Tp72HPPLS3d3Pg6AlOtnch0sPJzna++ewmynIBQ42vuHCOxpa20DPY41jraVrPdtB58QJGHV09XWxubGbKzbXUTx6PIHz2g+/hP37tGbp6evnLf3mex+9dybzJY5k0eWJK+/zJ02tZvG4yc6ZOAgN7j7awu+0kSonPPnQXTk0weDO0nDhNy6l2Ll7sRrGcPNfOll0HmDOtntF1IzFSZs/BFi50x+fYsW73QfYeOY1RRybK6a5uTp3vxIlh0eSJfO7n7qW+/mZiafKRE2007j3BqY4uVs+byebGZuZO8z4mGvrcCCVaWs5y7Ow5Fk2ZwM7jp1nXdIAFM6cxZ9pYMjEcPtLKoZZTobJG+dKXv+OtzUIp97Ez5znfW6aupobH71rEU/ffRXTdjUFIa9tJWk51033xIuDYd7yNf3x2A9jgNaI+OXWqvZs5U/w1zU3QBnF9Wiybir+TXRLY/dSP5YPuT99mFVcI76xH0FulEKsByGWQn7T8hOen0OeTRUxS9Uci25PkQZEuNvX0AFJJJtU6+xsej65ewoRxw3h+0142NR9n3YED+MJIy8pp9Tx05xKWLZyZgtmcOjecONnOD17dQq/JmFM/ie+ub2DGuJuZM2uKZ0aClbkYWLFgBg8unM/RMydBHNaRfCVeathLy8lzLKifiAo0HDjJtgNHWbFwdp/xOw4sPqhevWIhr+0/yKrFt4b3lbw+RaQQbysnTrfzvddeJzPDWTxxGiqOnS3Hseqfj7Lx2gcw3DJujNeBiGHX/qO8truZ0cNqWFA/kbKW+MG6BlYtmsmkSeMxGKZNHM9nHryTF7bswMlwXnxjOz2L5zF50sRgoJ7xxMplrGvcx46Gc8AFwLBkwhTef+9iViyYVSFp2Ln3MOt2H6Y0so5Fw4dztuMiT29s4FP3jWZO3QiclniloZlDZ06xYNIkzwqJ72WTIWBKjBsFt0+fwpqli5g3e1Ju16X+nO860MaGxv0snDyZ0+0X+OFrDXz84buoqx2JE4MNxmvbmo+wYed+VOG2+nH0Inz/1Tf5+ENrAMe/rN+JlYyFkyag4iiTYTGhBFmZXT+eBbfU88DKhdxUNyoFrwbfPBBg2/4W1jfuY8So0SwaPgIV2NPS6scgscGB9yITakczaexoCI0HB3NiL048icsRkH6Mf1EHdcnnqUpVrgzeKtjof/ChBI2cp3Irrh+AaH94yHcxUpCdggaSSMw3zzJv+axGUiSyHZH2VI1Rf1QCVLNgNzYcZQylmFYJg24SrhbujeJnfCUMYLy1lfE+2YXgFSgwHZXlm6ZiOxWryPCVjrcKf12o0Ig269Cw8xArFt+S3+eaPxOZ+HSSv78laQZU4vaLxxXTPLkQN4k54+eIk0rBzVUzb6ZF/kzFiV5CusXvTwjyw4ac+EEvHselT2oloykamvSlQDDf98rzFxvVFczCpPgsu/D9gYWoGCsg9XgR58uXJZ35sL+Fc5areNN+pl+FZGpW1LLE61dxXqPQuHD9c6a2eK5BpRehJtyr8YQOBK5w4eI56j9S8BHFsWl/+jj+VnFFcEkAMZBtqVYDkMui+NBCEJBJ+ptc8noW0iyGvfsPs+PQSfYfbqWr3IOK4/c+81ROP2KrFOINj+JElk8E2ifoKE5wvtYlVLwURKKhICYEw3FKDYZeEu6oOFvGyTJ21Q0biKZmaXKsuP/6BizebVSNXxVX3OshkC4GNhXbiY6lfT4TDcWKP6eYIzA2HqZic0EsQsXhBTdUpJB2KLSrl0Lwcuk1IRxrX1fXOGGG8Cx8Yd9zlvqzFM7v2z3KKXioSCUEPxT1vW8cQa8bJmwJwYuv/jH5NS0wVSkI1VAsLCacgsIxxjELki9LCi4qT2i+zrpkwr96eMvqn4SqTmVIoYXnsO993o8U2Ntfu2oKpt9QrwsPg5FfI0lh9SNOON95kTd2NLHrSBuNx9s409FNZsLqzJW9qVG6aJ4+rtod3+AoTMQiJk1kXj/hJ3ZNk3TmGRIllEkGrkJMCj58aj4L06bXZMTH2zrfhTa5rsbqkDgISFynRzq70tY7mYM5F4zMSoGliMFHCERcmBQ17KLxFuTq27flx4xLrIQv9c1dV9MqPQY9JobkpoJJkcACxWBLIDw1DnWlQOWb6E8WJmtNDFM+4buU+qpkNuJJjdfC628c6o3U/GZDWBYjQPJy2UAiiIATf/2kGAThvF9InO8LY7E/J94tlwKx5R11/d+dCCmEEkg9XkjDSOi+K+lqmnCVPRwi+TH67zSJyXKRQQuBj5FQPm6kz93xznG5Seht4RTxEVEI4grHXvi9iqFB7sr8zq7jW70/ufqKVAOQyyFeABMmBsgHCgTWb97L7uZj7Gk9xeFTZ3C2lIKV2MrbaIazBucCcxImozhoVnEDo8hG4CedPNVg+pRZ2vSRiAyDSd1QHeIsmLyrqf9AWBGHyRdTXNnntqUVqQRVpM8NGPcjxslAnwnc+uHeKF6HQIEd8GnF3DwLYr+XCIf6Zyc4pBapVwFK6oOwyD5El3tSUOKP2UpgDkx0jM28ZwYmCWOjyVgKstTkz21gkPy5MOk8x6WAvyZ+O7HKx7cYjM6g4XvD9vJ+djEokcL5NwVWQ8PtkKdYfEBQDtcopmgFCT1cbN8bosBmRLasIk9fwWeHwC2di3gf5OJ3X84djMekKKh/69TyO0EF61ZxKJef0DS1LXiLsuDq2HkFkJsGRI1jPu787JegQs+jfVtyVnEJinbIToT9zcfYue84W5qP0th6Mr2mqhhbwriwJAwXLpodSegHUjHk98Mqu4rrHYHBCAOoVFxzP/moCkmQJ8VVskmr21RFZSQxFSkl4vwKWwsTvmSGzBeIDLEAACAASURBVLoKfi3XiYSeJuoqKl/ygCi/RyODEfc/+X6IZz38tB/TSiZpS6QilVIoK/Y7UFiVxwk07lfQyMSBKp6z+BxBXglC7LtjQ6BQmNBSgCOFZy6khozgomg8HJ+N7mjkgaB/v1dm2Dj45o1e0jYlnTcNbFUMbkj6Cylc2HjOi+fWfw+kVAxUfEecviXQTi6c92IQlU5QIeAoVttJgZmKgYxK4V50sUpvMGd2F7aeB9vFFfDlID/1l35lAKoYIBJDCInt9H+Hd1INUww+qgxIv+BQSvzTs+t4aWcT53ocJQwS2qtbZ3CJUXa4oiAsUKwOg3GSk+VSWGVVcUMjkR+m8EOc9BWgVAgCPIqN2vyEYsJkZStXjdHPQbzo0iQVpgNjsAU9R0o3REpbwYm9VCgqJt8TDf1X8AF07l1u8jRR3LfEFJLe499dRjQ/xrhvOQuUv7dYWZOzQgTGIg+UKkOR/FtFpJCUKjBAEGiKeO5dYGJ8UOcjLpv2wV+zwCTFA9IoEpX0/CI5JyIpZUaaxPMSZ1cRnEUhenIqLQQGApFnItfSXJoyMpAY1nQ/xUAudhoOp0nIjy1nXQq3VxS5mrx027+eV9O8U7ScuciuxiayeK+oYozBOVc4bz8dokrZWDZt30Fma3Bhf6IRn779x6sYIEQDK2fywMGiTBk3lun1k/rtN1QMOuPzXVtbe60EIHmON88fV/49PXwQVhb5qm1o4Z0Q9xw/xbkehxFFXTkMNRY1DlGvwDeahfSKJfNFeyl6dAI9khXorGvjyUkToZDy3lA5uFW8fyD53CHA2g1bOXG2nVSBgOG2GVNYumgG/bs3XEiES/57nBAvs8TqzwpMMAW2vo/otMA0CMVzW6D3oYKRqGzNbgLLFhxTpdDRFEVSaXhhP03+Bxu3ofAPa1+n5DLECRoCjfkzp7By4ez4xZVHGyfXPsdQ/MH/U+rze98cPpf8fsn9ZYqpqeI17bPyh4IiJl/Ze8EooPD1f10PwftCVVFjWHLLJJYtnk6cbH1sIlQccZ99SgFS5Y5ecjxpn1WxidGxaPE+i4FpCjrjuGf6nLvKjUvfn3/Kua3421u8KOlzhaAPGBSJYE8Xbee6Qz+koBsyUllV2A/sOHEeMMnLpooriUJAHMbZDGHUyBGX/WTxmkfPGT+3+MDlqgcgcRAXhW+/3MCO/c34+LaXCbU38WsffQQoBB+QD86FAXbo4FeFgsOqX6OoCEYdRnwzLgtk6puEZWIgUNtGuT4elrR6TSc2iBYr3+YHy2vrgNbvOExjaxsqBqUMgDGG2xbO7Ne9oZjkt1QRUGif8CJpIeLL0cp7oAFwvoJ4K0bsLYPAPq8ZLaRv0rZi+/m3R1xFPvPmjrBKMUHImvEhbB6AXMdIKRWBH27ahYj6clXACzOXctviWf5K9tWHDPh2D8FE0PBEHuV7P97MtgPNqLNghOHDh/O/fvIRkGLgU03RVnFj46oHIBAHTeVHb2znXLkHg0XFsbflLI8eaGHe7ElhPoh17zFfeiUmQz8tr1o4m7lTJwfKUvH9MCQEIQrG0nS4haaTZ9PxqCnMCNcoihOc4lDJc/VFBgeu0On+GeGkjBrPPFk886SZ7+TZnyqjiooLIOf6c+1A0RMhF2BJpb3BO0blBHPJNiV30aXPqlsLKZgYbMRr5sWcymUf8dAUTTWoULRMOegk+Fns3K9ZFNNZLiqz8pMsw1CHZ/4K3j4wCLEHULy+mrQzygvbmjjRecHreY2iztDU3MqCWVMLUWQ1+KjixsZVD0D8AC88v2EH7WVfPSLOd4LMjOHl7Y3MnTUxz82mRDGDNUL0A45HVi8mN5Hq42EQducbz61nz4kTIBZxeeHYNQ0pCNxCueDz67Zxor0TCPlqkhzSd22Nl0CuPiNyqrMLnwoQMnFYFyoshMsGHwAxnx/p568/t87/OYnlXJ4WcXn+OompBnr4Idfl6UnFqmPK5ImMHjUcnLJi4YwKU63kz5AqNVzOWAF5WsTivToutwPh/aKUCV1Sg6hp7/ET/OOP1g/wAK82chbBqWLFBefSII7UMt4/g5RmGuw7OgXyAjhl47Y9nOjuRvFdk3EXwYzguTd2sWBWPT4144uSr8GYv4oqBg1XPQCJYrF1u5oRl/lVSrArztTxemMzn/nQ/WF1lqcF+noYDOkeBm+AHDlDEIV1gvd4cMYGoQ7XTb4yzw/7YGTd7gPsaj2RUkhF4VCi6YOY7Gr72BkNU4zxE4ziggLCayAuf4tElyuPH765EyD30wg/Z+pCmGawCBk6KDGwRSmrwxhDlinWWlT3hHOdoU8bJo0exbRxdaycewtLZk5jcv04VCRpOHIdhiuUUUJ/rK41TsQuA2ORUFEjIuxuO8mu1lMDPMKrCxHBhaoULw71DJ+/tn6syT07AkIaJulcBgwXxivfifaV7QfAKVZjeWoN4NjafIzz7d2MqR1N7P9yTdKOVVQxSLgGAhA42naS3a1tXkshNaAZGQ5DmfZe4aX1DTy0annFhCIVtfZDi+TZUPxjRWoiL1WSoPR24gOQax6FPLemgdoS/QUsFg2MlErs/eoDLHXZVVehe/2oxWTqS/3E5KWF/do3UxjjHSolPykrYLxXi185l5LuI1OXJrOBklwuUHuqMfjQoFFwcZc40d3JicPnaTjSguomFtaP5+Hl81mzci7FQjbVWJ7quTft48PxlkgmFjU4VWq8TAzV3lBvch2weG8DCdmWvOw4BHZCEEOKz8gUIxAjISwdpCVOwVm1tfU0Ww8dwRolUwEy1FjIynRrDxt2HuDRu5b4ka0afFRxg+PqJxnV8NzrO/1AHPLqRnNqXwy8se94SnAXV9xXIvhAid2xw38uV58LOTMSAyOXV7pcD+xHapke1PkIvkROHJmBjAwnzgsuXUZJBTKHGvEDJ+aq/iciZGRgFGeFsmSoZiFcvHwAqIUffBKk7HUAwfI6I8OoQ5z/V1WTF0ZJB3784pRSMKUTl126z9ZhMu8xqioYhabjJ/ir517h//jys+w5eCy8MQZFgAtOq/1AvK/LWvYVXqYX8KXjXgt0da/vQP/TivJB7//hWSybHtBL5nkFowUX1QEgVcuFn37c0ERZDA6Dt3YL1QGmhFF4YfNuMMGwrR/3bxVVXM+46gyICmzY1cww9d0eJYg3PW1aAu1l++EWWlpPMXnyzbFQ7JKqhCFDjD4SA5IhLvcHiGmYOMB4bwSHMxarnqq/lpE3pMo9I6aPH0tscNXXvzAT4fjJU3T09KC2xNUeJMUZjMWzNGRYMRTtti/7+T4/L5o8HlWbjj8TUifXXuBga4ufQDRLDpIDgRqLi70/xEtni+ku6+I8KWl/ohfEntYT/P7Xn+Pn7pjPJ993b96ozuTXtD8nQDXDGG+xnllABYulTPm61yDEsnhx6numBL2Nqj87WihLrvhQ37TMO0S8dIYMtMQrTQcxoogTakwWWBDvXyICzefOcaztDFMnjq+KUKu44TH0AYgWpBvhifb/+AHy+fU76couIAzDakbZgHGCWD/AiyuRifL81j186uHV+LHX+XTMz1BH/s6RDwL+22rAFAemaPojyQgpKGuv+eAjR1FHAJ958r63ffcffOW77G45BZphEcoIlrJf1YllmPbQSw2L6scP+Z6faT/P8a5yCJ/KYEo+AaHkXUD7g3DwX/yVp972bZ/647/xDAMSmCFvQW5C5YmTGkbaYcwZN4zMjAxiwreHw7K/pdVP96pYUdT5FIqTMipQUkmlo5kVnMswahBRntnUxLnzPfyPH3nwnXGC4iuGSuJZgRIZvc5grFcuDBReM+OfD6OOTA1IL0ZLvneL0/S6RekVpUZ9RdPgwAWjtspw2YXn9BIdk0nLnIEj3oeuxGtbGznddQFUcMZRUp/i8uenF2EYqOOZ9Tv53BNv/wyGTV/3AWIV724MfQBSyK8nm+KktId1u5vIJHS2SO6H/nUDOKNI5nhj534+9ejq5CCqBkTzvhFVXB2oCsYITkNvGzVkZhiGMr/3mSeG/Pu/9txGfrR5pw/1jJBlmW/6B1yJDKO4DCe+l4hSQlSZOW40/9tnn+ynaVuoQnJwvrOTHfuP8vqew2w7dJyLPWUyStjMkpkMNV5gK84ipoRzPjipwfHK3r2M+K7hV564Fyhdwly9LYJBUBYUPmXKlIxyx5w53L90zoDOD04L5cLCgWNtfHt9A5mxOPUJzRIZJfF6mEy9xHvVrdO5Z+m8QSEBEqPk4M++uxbVUH2i/UvTDQhRyCrw6o49nuFCKIUAy2LpVYc1FpM5MMrGPfv4LPflLqeRIXuLY6qiiusZV4gB0UgK5A+NCEdPnGZ3y6mg+M4gVLZoaP2pGgZna2jr6mHdm7tZc/vC/OGrBh9XHX4FG6ymxWFxlDPFWANaBhnaW2yYc6BZotKtlNAsNn67EvAzpI2MiIsi0v5WMAQHYGMYM3oUa5bPZfWyOZzryHj21dd5ccc+unq8NsRgvRZFDJp5rQpqKRv/fWt37mfh9CmsWXkrQqnfK+RitYxFyIxFs4yptSNZsWDGOzkpOSrLSzAomRjUCYJSKpilecdSizjHhJtGs3LhjEG4iIWeNOpwTwtW854wQ13EFdneY21n2XaoNTgmC1nw21HnmwKqGjLjNSEdvRkvrNvCQ2tWpOqdvsdUbeNQxY2Aob+L1asLiq6lCiDw7IatKBbjstBmwpc4xgfOl4AqTn0Fxpv7j+UOlE6vmwTHDQ9xhUHSUQrGStkQBx/ge6Bk4tu+4yQXMBdkQkP7/X7VGtNt0TNEpJ8VFOrLvAEvflUfWI+pq+ETj6/iP37qA0wbV5e3YQEyyl4EHNcPWd4p9G9f3Ej7uQt+b/oxu8b0gyMGThnqhMxAWXr7cwRvj8JJUEgVRCWnWC0DjkwgS6cgb0w3OBVWJoiLqUgzApemXoYAYSTjx1uacMb6smCJaZlwz8SKJ+NTVVaUNw+0vuX2Yhl8FVXcCBj6O9nk5YGpIQ1wtqOb1xsP+SFUfFWFCQOxi63LQ8lcjRhEhQ179tHeccFv1GRXaIVbxdvBqEGDyM87kfpB1JAF8aYb2v+s8XVJalJFQXLZvgLHb5VQpSI4530ltLDiv+x/BSmTT4R4G3SD4rBMmTyW3/nUY0wfd7M36DPiv0M1pRAMuR6kq6eXf3q5IVQ1XX6CjcGa740STOdC47DYg2UgiD4jhD01WBy+uVXZhGoVtajzz36G+udfdFCqUMCX2EpY4Bj11V2+TH5wtn95lHh9z0Ef3FV0go0+QQbw1U6okKmwtfkYra2n0xZ+lg6yVVRxvWDIAxC/soqeHXFZ6nhj+z7aez19ngmhPbahrNGhMOY5Lc6VseIoS4kXNu0M26iuAq4FOCE0MJOQ047sVZxkh7jM0jlqwr+RHXNX0BytLCaVK3sfDz+Jh5qoy+9/eHOSWwq4MDF7qt4ypraOL3zqUW4ePRLrDCXnbe9yptClFJRReHnHHo63nYV+luLGz+X+NWBVkGzgk11xCzZ8TwwIxFl//xiQIMZM50V1wBVGENlWl3bECSRX38GKcC6DF9Zv5VRHFyI2MXQaS9lD2snvj/jAKwibf9zQlLZRXMCl46qiiuscQz6Lp66Tkf8UUDW8uHk3uX9XNO/KhVWRETFqgsjPMx4/3rY3VJlUA5BrAX4AVZwLaZC0sq/JDcGGEJICVQn3iV5RAycJ+1CSUmoxDngb9NAc720/77wIwuJCZZh3XI0Tpw2pxrGj6/jso6voNRnOOhylfAVvfJAOvnImI+Plht0/EwXkxcQ+pVPWMiKDZAReeE41+KqIKL2UEePQ0NBRxaXgx6ghOIUN+Ov9/SGFCdsEtk4Gscrmp0OBV3cf9M65hQVVKbBY8V+AzHi/HSn7rtuvNe4no+A4ULyvr7IDcRVVDAauiAZEJMOEQUCB/c3HOXiuHdUMJwZRQ43EttniV9TxoUwMSgmjjpNd3ew7eLxaf3bNwPhJ3/jr6MspLcYNHoX+dtBYUCWRATDeSluv3CpRRHCunHRMmpwv+6GBMRJ8S02YrP0j6fUBoTNtSNWsWDSdRZMmY7LgyIqG4w0eIk5RyliF15oO9G/nw0lyQjI6MwbKkpGZQWAgksLU+5eomJCSDS0LnMEq2PBVahQ12aBZYGjQtviER5bEwn5cGXoRe2vraZqOn/DXRzwPXGOs1wypLfQb8s+MF91DL5ZTnRfZtHnbW9bpVFMxVdwIuBJ1iqAlL1QMf3r2jR3EVuaqvcFYKWNi3SjE+XyoXxH5FYFRgxgNue+MZ19vDAsA95azzNXuT/JuRBxI/c9ZyOMP/ffGYtMkpozfWbjfhhKp4iW5brqg5Og/UsFs8UMVHjcmBFQlnlqz0AcLzqDiyIzz7rRBG+JFnYbTnRdpPNhy+S8PqwKjLrEQTm1wUh0EBqLPD1Lotux7DXnTvhgAidPkdzIYSIwqPvWS4bVKQNILqQ3jRWHY8Kxtf+BiVjn97jfl/31mwzYyMWQYRHsRdZSdMHF0LQZfwm2D/sZRCkFIFlg8x+v7ThRqlArtLasmqVXcALgCTqjRtcsPZh3tnWxtPhYGH/FN5yiTieGJO5byr1t2c/hcByV1IekSOr5k3inQibCt+RAd7d3U1o24pNKxWh//7oILYkvf80PIjIZA4MZI0fnydU1VNYsXzmXi6Nc53XmRLOgJHIFtEkFDykM1o/Fgc+iu+tOhxpu1zZ8y0St2YspEexk/ZuRQHtoVRO6JsmjyzRTvDetgcl1t+j3qiEQoOCheZtuxMEUJ7qXOXweBdU0HEcqUtIZeLDb4j3zw7kWs23WQPS0n6VWhZAUyL2I24bNGYePeg/xSeydjakeDhO8Shwavm+pIV8X1jCtixa6QTHU2bt9LR9lhMUEVblCj1JVqeGjVbXRevMDX123DiWL9sohMHCZYI6sq58o9bNzRxENrltL3EezbubUajNzY+OTjq/nE46tDqArEZm5cmUaFQ40oUgyOOFhgbv0ENuw9hBUh04J3DjGF6ZmMvUdP9uMbPPv4xc884VM9aqJhz1VvNDioCNTB7xacbnP/Ec/eabAASI3o+nP8GtI8GpoTBvbLiBefdpSVkggucxhbQjVj1LDhrFo8G1Wl6fgpb+TnMnwzRS/Wjx18FcsLb+7kqfvvyndaK52Lq6jiesWVGaGjGZHC81v3QlDbQzCyUsPd86eDwP23L0HwtLIav7QwKV0TiFQxvLBlj88pv0W6pRp8vHuQgtuAvIfNFTICGWKkCoko5taMGRPH+XLcIHotamBciBpEhJaOC5ffvgJiw+MZ2EozOBUo1wZc0OREQsNFLXxInUSNmUmlsXkKrX/nwBUdnEOoiFNea2xGyFBnUaNYX2XL0hlTqKur467b5jK6pgZ1PYhY36smXGejeMM2dby4bW/lF0rOjFVRxfWMKxKAiDgyYO/BYxw+eS5QxXG15lesH7hrOQqMqR3JPXNnBr2HECsBo3I9siCHz3VwrPVs3kxNs4oJpxp8vDsgQS+Ux7jeeMrojbGCT5MkBCGjML1+Qihvt33u80DLiw9OWs60X/4L0sddPikTgpEbBGlBAoHhwZ9TDaJXcsOw9DrQn+FRxRH69/nvCn8/fvIsu463hd9cMBnz3/n+uxYDMLZ2NLfNnILYUio7juJjX5LrS3VPne9kz8EjSZeimhW4liqquH5xxUYZo8pzm3Yi1oQSRQ81lvmTxlNfPzalae6YNzUxGL57paSVrV+9lMjI+NH6hvwwROAKlNVVce1BYtoAH6imPPmNcj9EIaX6KolSSLX4DKWm18IPqSrpZ2mGGAMOX0ntK2+SQ+d1jUL/qSDiVNTnSDyN4O+XUK7ribPIol3++H1QU0yHeJ3GM+saAqsSJKSB8p0xto65Myend7/v7tvCa44SQWhvfE8cQ6iuMiV+9MZOYpAoYqn6QFdxI2DIA5Do89HZcZE3m4+TkQUzHhsoZeWexbPCwOCHzNVLFzGhbqQfOFxe3VAONs44Xx2zrulgoU7epIG6incTDE68ZsGhwaJcQU0ynLqeIQDikqEfwPibx3r1bSjfjBVlIkLsw/czpSArJlB8Rc0gVcFcCyieB/EzeAgunC+XjjkZ8vOmGgLby0HNJekqFdiw95AP4lxe9VNCeXjlgjxoxDF/5mQmjx7uf3c5wxvziiUDmcLm5uN0dPYG9iak5KrDXRXXOYZ8hJGQg319exMXesth5RbLb0vUlWp4ZNXy8F7rF7IiLL9lKtGqOE/VeHGWsRlOLR1O+cm6TYV1Sh9NSHWR8K6AIIiC8Q1hkr34DVGrGO7haKUlQN3IkT4dKbHsORddp144gLjLM0CVj0g5MAGKif11bhSo71gcgy0JjqvR/C1VGsXg5GcsIw/LJADWrt9CV0/soxM9RzJqamq4c8lcYvO/KJJ+79IFIUixIZjx/4kTMrUYlO4sY/22faiUkwbkChm5VlHFkGEQAhBXePhc5YCm5STu+tHWnd4EKKzkjPpuF6vnTfdvDXS5BAr0/auXFMyl8p4JNg2QApqx4UBrOoi4csj8Bq8JmbgJZaKGcm5T3qeY/5KgKfy35+AxNu8+wCsNTfzTj17hey9uYsvOQ2xu2s/59u40exTPuV7yQw6XUhJxkLte8NP3NV3mNGEUnTdvjBW8r4vw5Z0o7Dt6zHtF6DDAJUdUo1BOviRexHg5SPofQMlPbrGh3qAfyVWEeCv4Sw8qBCJFlgTT7woqDQ4jkXUDeG33IW+wKBIcnX1wuGJGPWNHj+4THDtWLZyFuAwnmfd0wSQfGAl5acXwUkMjQqkQpFRRxfWNQSjDNZU/J/rQEFuxb921j6NnuoIIy2A0A7FYHA+vWQ5OMcaGIMRTyvWTx7Ng4kR2t7VRxmDE+bbvxiLO4PCq8h2Hj9HWcopJ9eODKEuwmvkGaQM/uAHDBb/5aIIERY+pMKmIr17Y0LCL3YfaaDp2gqNnzye3RDH4fjgIzlhQxahjXG0ty2ZN5u65t7J00YxYhwribe1NGBzjwJhblEfX2St6Kt4RUoARfvD/RLOnuIItOIgWPnsdHF6/4CsjQCSUX9oSqC/Z9P3dvfbFiQuOor61+3D3FlFoFYOKxDYFRqr1WDtNLa3Bmt8zcpnJKKnlfXevAGLllkk2I/X141k6Yxpbjxyj10HJQpY5f72d4CTDZoYDZ8/Q0nqKyZPGgfSzTLiKKq5hDIoPSOAp/M/ewaewElde3n6QTCyo71fhjEW0l7n1U5g+aYwfRAvUcaxzv3fxbPa0naKMBtbDkpFRKjx5ZbW8uHUPn6i/GU1GPZFruTZWcSJCpnGiJE2mZzu62bh9P1v3HWHLkaO+IV/4jFEBUUri/GBUMjinoFkwcYOTnR28tKObF3bsY9KPRvJzq5byvlVLcaGUELXeV6BY3gA+5gm+KtfC+Xk7pAAj7qgq0adbCgdwPRzLO4KGeofCwR043uatu1M5u3fBEpHggyJYdUy+edzV2ed3ERyK0fz6fOfVDUCJXhwlsTjxXMotN41m/oyJl96kQUNy3+JbaTh8FBGDc46SlIKjsASGyz8Hz2zYzq88cX9ge2/IO76KdxEGlaNOdtgu13W1d1xg477DGFcuvC9DRbh34Szi5JKEpPE9wJ1LZjPSWkqSAYaQ0EkpGCcGq47Xdh9KwUaet752go/YITUFWOJQhYOHj/G1H7/OliPHfaUPDkv0AAAw9IiiJYMthx4rapLTp1Dyq16Ek13d/N1Lb/If/uqfaD7QBsS28KHjapqowsXR8PM1D1ORXy92MFUJef0+uKH8EUK1hmqePms6dtILuE2s/MlQ41sW+M68itEaxt804urt97sEkkw54Hz7RTYdbvFpV6xvJRGs5R+6fVGhL06WdBwehtUr5jNqWA1WvRttFmzawbO+Ho71ew5XS3CruGEwqE6oMV8pSYpf5sU3dlCW0HI6pA4EGD5sBI+svi3PGrwFdz6mbiTLZk/j1T37EQEximQhrYCvwXcYznZ1sG7zdtasvK1gIHRt5P/jxGFT4oCwiid1LkUJ3TkNGf44Q9KEkjM4I4hxODybIZki1qBaxqqE1I7FujJHznbxe9/4AR+7+zaeePDuxCblDEHOJlwPTqEp5aKGL33lu+xqPeW9F9T3GHry9jn8wmPvTUxJXBneaEZ0/vnxplf7jp0IgmwHgR1UUdQZxAjGOcpY5k+bfNntVjEwpPFGYOOOfXT2ZIhV/6fQ/XZkjeXuxfNSyJAzvYVtSJlVc2bx4q59fowUQVWwCOXYPReho5yxYXMjq1cu4Foa56qo4p1g0O/e4upTpcRL2/Z4wx/nILZMF8PquTPxD1CZ/HnMBa1x0rl3yexUaighjeGpZl/5ICKUtcym/W1JK3AtiQ9jVUIsOQZ86R8gQVxrggo/iVQDC+KirbjzvXKsi4I5G47RBDdMg5oYhgjqSnxzw07+/Jsv+qBHQzVSYb/0pzTyu9aQbidxwfRJwPkiykygh2EV7085+Rso+ICYiXGs39JER29vupeMAjYEXsaAy0IVkLJ4xtSrus/vHhhUDS80NPpxy+UVNWV13DGrnrpaz0bldi2pHMf/juGBZfOxsZRc/eczMowp5UZqkvHKzoOeRbmGxrkqqngnGPxeMKFplqry5p4jtHR2YkwJiyMLT59Fefzu24hpEg39LCSs1OPDh8CKRbOp/9d1tHR1Y/FsgFNFUUoIZddDSYaxsekA7ee7qR0zMjKiKR9+NZEGEzR1vYzW17Ujh7Fk0kQwkoxcjShGlMxF4Sp095Y5fPY0sRjTGcGEEksxNTjJMI7QyEpBHE6UTXsO89+++Rz/9qOPUUqDlQuGS9G/4NoexEyhssVgUVcOIkzFqkvlqdf6cbxjhMBDxDu8vrB5V2ITgcCE+CoZR+wbA5NGDmPerGoAciWgwL7mEzSfO4dRglBeycT3gXn0JvDzuwAAIABJREFU9iWpvFeCKDyOdYkVwTB3Vj233DSS5nNdvleWy/o4rDpMBm8ePkbrifNMmjj2qo9vVVQxEAxyAJJPciKG9Vt2h+g9I8Or9ktqubX+JqbV35zU4E7Ad8QuWEmjCBlCifuWLeAb67eSqaDie+QaEdSJ375TnBV+vGknH3xwpf9+SteEMlFV8E2ubLKfj1Pm3FnT+eJnpucamMB4+LLLYpbXBw0btjbyRtNhNuw9FIINyMgrIaz6QQ8jaKgUem3fMSY99xoffeyexCrlmtTra9J2MVeX9BAGq+V0PJem3679AOuyKARgW3cfpLHlFBrcMgXfjM4G/xw1WbjfDKsWzOWGOP7rAAI8t3ELJtOg1wjdahWm3jyGubOm5sGHBHG8giQfF/9MZgKrF83l0IYdqIsaEHLrdbE4eilheWHzbj752Cqu+gBXRRUDwMBHJy0y+S7pDM63d/Pa/kMptSAige9w3Lfg1mQIhFTW5+eFouKDCByrF832q13jKLn4IPpvjSsEdcIre5pDO3IT6YQBH97A4VfpGXnFQsVeFY47+i8YKiVmkRFavXwhv/7RR/njz32YlTMm+OZV6sB4x9gMIbM2sSOZ3yjf3tzIlp2HSMLUIG4brBRMhfkVBosNbd0HQ+TqLtlNEQtifaLO1ITvTXtT8fNQI14bb4ueVyxEbVP/kJthVW48//FsRzd/96+vkYnxWivNwrNlyXBkJgQbahlTsvzcmiVUg4+Bw1/JPk6n6RX/9/ZzHWw+ehw1YZGhGS6Me48vm0MmUW8VUsgQhKtezxZJDAM8eMfi1AHZhFJrW+Ho66/puj0HfSl2xb45Kiqvr4MUaxXvbgx8hCqouV1ayjvWbtpB0YlDXIZqxvCaEd77Q/r3fKgKkyePY9nMWxCnlMU/yH4F4X1FkDIlhCOnz7D/0FHyyonrH964TSuqIKZNHMu//zcf4lcfuMM308r8wGYx2CzDaA0iPkVhXQbi+OoLr9Jxvhu00Kp+EOIzkZizDnlvenz5oDGDpMUxhV4dfsBWzRDK2GuiY6sLE4Z6UbQYXw4OBQHL5RBdOSUcZ/hzuj6OP//GWlo7uzHBFdiGcvMsTJDWmZBaUx5YOpvaMbWDepTvVvgrmd/HxXBYQpC9YddBLl7oDZoti6OE4BhZU2LFbYvCp/sEMapJCxar1ARHXd1oVs+bTUavF59r3ssm/puhnOvoZHNjc0jphG1i8jXXNcD+VlHF5TDgGSJftXnviUjtv7R9D6FbOKoaVm42OJ+6XFR1GfiUhXLHrPok7Iq27EnYqXnjrec2bg+fG+iRXRsoruf9PGzSYPXQ6mX84v1rMCaurrLkhumcC31R/Dk83t7N9zdsxSeEzKCtjjRUnli8FkHF+knY9SJavvwGLrt9iC6nKpICm2ul1FbEYqlBnGBdYILUt2Pv101YYEyUDKSca6FwtHd08Sf/8EP2tp1ARMmc8+nHdGf4FbILbNfsm2v5xGP33gBdcK4RaOW/PkgsWNyrYW3Dbu98CmlsEhGWzpjCTXUjUkSpga7193Th3iiMoQB33ToNjK0QmsZAMwYhZSw/2b43DzTS45AHOtfGE1JFFT8dg8CA9BlkBbbsOsDJjgtgTc6CGIEMPrBqcRg8+xkhOC9Qfeie5Qy3cdANawrxgtZMjE9FANuaT3GmveOGevoizZ+L5v2KWYHH717C+1cswlmf6Ikak1jG56yAE2oEvrtpM8dPnPNj1CAFaBWrM7yjKyLUiCGTgUuMJGiDFN/My7qyd3SVGsrXQIrBB8F5d1oXzcFSP5rLfF6CLkcJ1U2lFFztO9DGf/ra92k4fAYwqCt5gbIYnJSDtb6jjGeiRtWU+PWnHips/VpgiK5zFOMEqHgGM4GmQ60cPX2OYnsD0YuA4X13L4PAjnnhaa7/Kt4auZDU38+rVi5g3MhaTPK+8anrmKKNC6/New7Q3t7tGyyIq7zd+nf7VVHFVcUgiFD7WmE7Xtm+PxlwZRjEWMjKzJs6hfrJNxOsOPvHEgYGRMhYtXAOL23f64Wage5Up2C8bFNFae/tYfOOfTy4ejm5Tfd1DKeIKRyJ06Bt8WkUlYx/89gq9h09ya62k1jKGKlB1QdlzkUCOAOp4Yfrt/O5J+5L1RUDPT/ejwMIVT5eC1FGqeEPv/z0wFX6ToPGVjh8uh3EYtQ3+CpdA0Os4iudMucwRrAqSHGFfFmE85+qIhytJ87xzR+/wf/P3rsG15Vl932/tc8FCJIACBAEQLDZfHXz1ewHu0c9/dLM9Lwz8khy7LJlR1asifxNcaVSSSp2EluVL7ESVyVVcVU+OJFkW1FZtuPEidwzmodmRjPTT830g2wOn918gyBAgHiSIO49e+XD2nufc0E2cdkAn33+VXjce889j3322Xvttf7rv1778AwZGaI5uRh/x4mQa4Oaq5mHUS1FvTOr8V/8lS/QP9hXWhVrNQutBK4bqMy/5DTnT//igCnPAnno/5lkbOnuZNeWwVKaLSksVxjsi4hv6Vms86ltm/jO+9OIeBtDQ/Vwp4IX62vXNOOH7xzi65/9VFM6b/LW3AdZbhU+2Vi2ASK4xCnIgbGL47x14hQ4IRMFFRre41yNz+7ZHKfNqDDdygHMuFDhc4/v5MeHjtNA0wNJiJPmWB2MXJTXDp/mC88/wQPx8DlrqKgAGyXUwVz2TjKgwd98+Tn++3/1Cl5sWo4F/Cwt0ETOaprx5rFT/LWZZ+juWstKSNV7gZrUaGjDUgfDPdFcOXFxnHyZR8hQ6op5VBIfxo6R3wO1TkxzSnDizBgmR9STR3L1EhDg4NET1Gnj+OkLHDw5zOnLU+TOW+FFcvLM+nobOblmtAM+92AtzobO1fzdX/os27cOAeZVsVoj90Y9pPseUirr4I3zJF6Zm13g0OkL5Gggilr/zDXj5ad3pq+XRfGa/oYxMJgYFIu4jK8+u5fv/fwEFnbxIUpTFM0Tr+CUVw+f5pc/90zwkhbEfmK/vBPtU6HCx8SK1YJRVTIRfvjOMRriwoSZg+Y4J/St7uDzzz+BEtNSb23/SMbObRvZ3LOGU5NzIQUVYsqv+BCSUc/hi2NcGJ1isL/33kiEWQaKlRPFikmxa07zb40dO/p4fufDvHb8nA2YTkCtQJnzjgzwDq7kdd46dJIvPv/YigxPIhmNoNwYHMZhMDQ9kuXWdFd1ZE7Q4AlSjcSiUIH0LiPKZQsNVGrkwOHRSb7xj/73FkNQwbWumSndWulFapqRi01tNe/JEVRrIEouNXxIR9+3dSO//Usvm/5N4JPEbKf7vOvfg/Am9gbghNd+/iFXFnLIBO+DAeA9Xe1tPLv30SLD7aMGO4nGiaXuxkPgYGhjL7sH13NkZDzsN5C9vcm4qxNEleHJGY6cvMju7cH4DMVA5VbC3BUq3CWskIEc1Uk9rx8/l5j63mUhNU14fs92EqVS81uYOuKEY3PZs3sfIUluB1KWao4jS3F4cPzpGwdw90SWxPKQCKPGcAv8DvtMgwmm4nGa8dK+R3BSx2lcewfJ+lg7xlvq5rsfnI87WDaKQlk2SNa0QeaNGtlIq7qP/2MDbZ2YbaJ2p3E+t/DPXYZTb7UUJYOQhiv4QLq2UNnNfiRlQjSooTitoS6jEeofOfGhtouJy4HHk7N3sJ//+pc/x9/7ta8W4ntCtIhC+HH5JOAKEKtJQ3gU1QjCr7z1btLqcNhzqE55/OFN9HSvLaXIFvyQpt1C4IcEMjeA84GS7Hhhzw7bLj7vcTyTLKV8K3W+/9PDdr/TIsVbqGel26FChRXGCumANFCF1947zqXZq4jP8U6Mr4An88Lnn9pRELBuwf2hMX8+rOi+9PQecEb0iw+mU0dD6iELw+TIXztxetHlBa2FdM73hxQ50BQjbiavZaFdLDNm/57trF+zBi9a0qTgumJ4754dMb2UFRihcnJi7WF1Sj0YgkosDX/zCbiVHx+K7qEZTjRlHORy9x3MPhMy7xAvqKub3o26xNMBE4zLKO4HEMjZhVEokqVwlVNLM89C2M2FCXBtzfHSI9v5nV/7S/yD3/wVnnxsO0jRJ8z2LhMaV17o+JMHTyweaWGYBh44cOQcE3MLiKgJkGkDchP/+6ufMzHEYvxx3GioLQjlmsitqqakA/Dpx7bQmdk99EIQbSyyn3wwfN85O8z0zDUzUOJ4cL+7fit8IrACaQogYTc/OXwCJE+palEmev+2QQYHNqRQgn3H2P9LTYJW367wAnR2d7F/0yYOnhshV5dWEIV3xSbc+Ws5r717lBf277R8fZWgHunDoL0yE/C9hid3bOX77x9PiqpQijcTs2M8h46e4Ik9jy77eC7eT3XG7cGTa0Ymnv/8L3+Z5doIJuxkarn/9gd/wZnJKbwjZJncfQ+I1f2I/JSMXAVxAt7S0nO8GU8pfbpmBjt1kA5zlYsJyamA1sDnYvvUnKe2buSxoSF2btvI7m2bgpR/kPVeISOyws0QygCEUBtaw4nnxwePmgaPShGWUWXv4CAbB9YX3ooWUF6Qlf/v7u7mqW1DvPrBWURI5GulhlOT3FeUawsLvPn+Cb70whOUDZ8HrSBjhQcPK7ZEGh6d4OCpkbBaqJnNoIoTx4v7tqVJUGMsRbS1VLHkfoT4cH328R28e+4C9o5SC+5u8bYq8OJAhJ8cOsmL+3eH/TyYD2J0CYNNTHs3D/D9QycCVyLqD2jIgraaNACnRsZXxABRZ0ZmFibbuMrPUZ7eu5kVifJpA6TGN19/z0IbWPgp83ffA2Jk2OAFyht4aUOC98k7h/OKSg0vCzgyVBtmcOTtSJZbX8XaMVPI8+Ct8g7NhC29PXz95WcA4zwVqpg+vVPhDsCrCc0KzMxc5a0TZ8KYZJ4u81TBS3u2peyyWx1xygZD/P+lJ3bw6ofnEG/E5qis7CU3uTMV8gzeOHKaLz3/eMqmQlvUoalQ4S5iRQwQpc6P3juGVa0NZMTwAPWtbufFp/bahhIzWihNhS0doJRS5nnuyZ1s+PE7TMxewQc+iA+FnyQMCrn3HDo7zMjIJP2D3WTiFnldSsz2+xjp/MNg8/gjD6e2B64T7LLXyvmxmRVZIWkKUOdGMHbgvElJN5JvbBn7BySQOU1iRHDejFd/D9w8lwteJHg+2hHN2dLdyV/70rNh0lKcr+Fo0MDc67lXXnnzIEcujpGJufS9ZrjAb4n3TBReeecIn9q9k53bN6SSBVZLpCKa3hFo0e+ic+EH7xymIY4aQi6gQedjTXvG559/Evh49+VGnpCn9uyg/7tvMjZ7LWW3AOAEn6uJ1qlybGSMkbFJhgZ6o9/zvokwV/jkYoU4II43jp4k1qcAUglpI1L5uCkmLd66EqqpBpZeqAOnPLFtY6iFQtp/jrlEVZXMQQPhh+8eJot0lKZ93QOr55WCasj/d3R2ddDZlhlBTSXxB5JUehjYRmfmV8Q9a9kuNthFLkguPhBSV2D/5RdegxGZG+lT7v7q30vD0l5d0cZrV7exf9c2nt6zlad37eCpXVt4bM8Ont6zlSf3bOGZxx7m73ztBaJLH+9Df/WpZpAG4T7vMv7Ft34UuFDR1R+8JBXJ9A7Bm+fWGcXzB+8dt56uitO6EaJxPL9ze3gCiu99HCxeNLz8xB4QO1amMSxpHKgcDfID8K3X3y0MlFvSoqlQ4e5gRWrBvPXeB1yamSPPArHOOfLc3NKf2b+rtLEPGiAlEZ6ldx+eKRdy5u3/rz7/BG2yUGy3yNzXUFn2jeOnwEtTWffCFrkHOAQrASdBDdHWPUPre2/o3SgPbONzV1fu+EH901aJYjLSgYm/fDTSkC5iJGMfsnrcPaADItIGvvBaqJgarPGRYmaDbVuWvhna2MfXn9lnaq6uHXwDcRqyfILolHM4n3NyZpo//varYScukY/RimR62yE+8HTMyD54+BRjc/NB/j4YkOpAF/jyc4+FL4XCgrcQIiw/m83PrefT+3aQaQOPoxFKHcQQT/TiCg3ePHG2CMFUGjAV7gMsewRT4McHP4TMJcNCfQPnhPa2Dv7glZ+ELa2ImAmH2etWVwgaHnShYa5qUTw5C7oaJ2bpOzXuR0x9NCVQZXT2Ku8eP83+3duaBQ1LBsl9D6/UYtaFCt3ttVAgLjfZckLGDDneC1nmmJidXrHDG7EVGtqgJo7cC7lTcqcsfxh0KVBmyrdixFYlkDvvLkyGvVADLgy/SHY2ZCn8V5zz3/zSc7x59EPGriwgWsN5m2TwDsk0RvtBa3zz7SO8/MxehjasL6T0qxnmDqCcgqv8+P0TmNycGQy5a+Boo+GFf/Gtn5B789B6QPTWg7yLeSCI1YTp6FjD1fl5RDyiHq+CC8UI4wJtpp7z+nvHeeGpnVXfqHBfYNkGyIXRcQ6cPY8ANcnIFTIRGuRcu3aNI6PzxCqmGUJD8sDel5bchCIZ4nNyychCmeqcOriMNtWwGi78KbEuB+JQ78mAV987zlO7txA1NYwP+2DoBBpHIhB8xSPUGOrrRc8O2+dBjjv+NQNBCy/FMttAvJA7I8SZPkFOJlg/WJEsDZe4FFYFFwvFqCYC592ElU3PinowIb0WCDenZJwIqc9ZcpfwH3/5Jf6Xf/cdVNot2ydkUJqmh+mCRG2b/+OVn/APfvNXwn2mpSyyCstEadUyO3OF1z84SabRwAdHm1Undp73L4zjHCEluyCn3gxRlv1G78V6TpnkgWOUkYdFXiZC7jwuj7WHatS4xmsHj/PCE4+aGjFV96hwb6OFETw4wH3xGkgiO3/+zjHAHpoGSoYJKGXetBuMpFhUdJTIvQhGiYsuZQrXY9kFqRp1H+yvrTxq4CUUobPBvVFKObWJKk9pqK99eIaZqXnjoIiCLl+h815BULtHyRGtUZ7/XEhftfY0ddKG2v2s6crUifAhoclaPC/dI1Zs9NNAvIxwaoXAaiiZ+qSIq+FvmXN0++HJQ5/3EiecIu223Mbl5oj/P7NnK8/v2IGyQO6gLdT6wAsZFkbEWarv8ZHL/Mmf/9RCOxrSduOFKs0G/d2PTj0YCDFgxfP9nx3B4/AIWaj0rBql2e1+WT8g6LvEh/EmQnuthCnVwnIe82g6TBk3pqfbeeaob+Od8yOMXBxPp16hwr2MFmagIPkd3N4xdKIhvv3msVN4cdQVnJg7UDVPq7YlRaYkuh2zIOFtfzOyYFzc/Pu5gGidWqS4qoZTdWTi0wP6528fAjxOzTvywOTHC01ZL1C8jtdugyR4D1lmWij+HilnvxQ0pBOq97zw2CN8/Zm9fP2ZvfzyM3v55af3sHPbJlzpWlSb2+FehwK/8bUX6WxbZQohGr0qUX5dTOBKcnKX8+/fOszF0XGL8UdSrhRqrIUBRGWErCgcPzhwlEyUTMBGHEemC9g45FLYUyRoDkm8Fzf7KRBJ4uUK0zGtvQGIBo+HJXSn83JK0KMxPZkfHjxxB9qjQoXlY+kQTNDuEJUQbbRwhxP4/hsHGJu7EsSobNpvIGSuIAgu5SZ3Whos42pChIY3fY8lbSRVVDIrA48Eaex20AaUvCKvHT3N1z//bDoUPDgrhOjhAMIazIViVS7IAdhnztXwPsi3u7ufQdIKREx+3Tn4wqcfI9a5iO5l++sD+bVoi/tFhEmA7q7V/OYXn+Of/OnrZKWYvhno9lypSXEyS4Pfe+VV/ttvfA1cG1GHQkJaedOOVyDE9olH6GgHjpzi0tUFnBe8hAw+EbysClwr2zx5YFNopbXxz4yX5M4ItrOgzip/IzkuxOfMz2zhyKIGU6GW+tqRU/yNrzy/wg1RocLKoyUOiBcTSYoS2xomuNeOng6fBytchXYHm7s7efyRzYjPA9fgo5E4G15xrkYeasicPH8+pOze/PtOPWcmZrlab5g3xSvqQil6yYLuiOf85CzHTo2we9vAA8H9uBm8KhIHLiLDPieV9HYmAX4/QENYqYhnL4qX0wCfpRTJ9L7cLxFwe55e2L+TP3vnKEdGJ0J4xZOJkgduTxbtdCf8fHSM7751mC9/eh+eDCclQrcEAklTm1X42AgN+OODx0FzPBk4j/M5Xh3benrZt32IGjmNkL0UOVDOLT3OLLg2zpw9G57LGt77Ji+IVyFz4H0DkYyzE9PM1utmiPjFRrbDizJxdZ6DRz7k8T07qvtf4Z7GkgaIirei31IQ7xW4cGmSwxdGjVgKqDP3n1fP1198khee2kWrK7Ao2pdWswB8Kvy9+fcV+N/+r+/x5vHTtvp3iuoCKm2hBoo9pLnmfO+tg+ze9uWUovugrA7Tal/MWzU5exX1kgZPUynVQgvEKz2da+/uSbcKAQL5uIlToXnQAXGB8Bf6TomYeT9MwBpCnCqOv/NLL/EP//CbXPEerz5k/GiyuXwIt6nAv/3xuzz72C56ugSvDifx2SkIsHIPkHTvdygwMnKJt06cIhPzT+Wagzoc8PLTj/LF555s9kDdivdNAT7V1FGvEzFVU7zNBf7Fv/shf3b0Q7wqmSoaag9pJGmHRcaP3j/BE3u28aCMcRUeTCzZO41tX34+bMD81uvvoTHtMEgoeYHezk6ee2onUaBsKVgWB0Q3suXUuyby6s3Pr8GLj29Px4rmi/jojrd3MlEOnL3A9AoJcN1LaFJQRBibni2RT2+83UDXmjt2fstFuZaNXvfeoj6SLtHdDxSQ4Mo3uvTGgW6+8OROfF5H1BmvILjlfSLiNhCfcWUh55/+yXdAY7lGCc8O977VdR9B8PzovWM0pEaOhEif4MlYu6qDLz33ZJIViAu0WxpfQgG5preajBErsYCAo85nnt5tXpHoEbMOFDwvSiw8+cbxs0zPrKDWT4UKtwEtWAjN2gVgnf7NE2eMzBjIoo42nDpe2LktkQIXi4N95CFSrNQlN0urD7EnY/+eR+jrXFPaR61QWw3uTPXCbN7gjUPHW770+xIK43NXUiwaXHDrZiU11Iz1a1bzcZUa7yRSL7iuLzWnoJqh7Jo2u38Kgoa+KG382leeZ3tPD5nkpKCTs1VupoDLyFTBCQfOjvLqwQ/DHqKL0idRugrLh+J47fhpnBghVJwLqbHw7M7NllEn13fPlrJboDAa449X+0nE0rAQ84rQxqNbhtja021yBOLM0xmOrqXaBN5lvHHow2Vff4UKtxMtz8JFiiN87413ubJQtw8yj7oMr1aO/esv7LcHskWRKKtJd30ufKtwGCHsi4/vKESvtMh+EW+kVu9q4JW/OPzBomt6AFDKk56dnWNidjatnMvMeg1GmaqyebD/7p3vLUJxoafGxOpC7rqQ9LeJIJXga84dv3dRRFjMeaHw1z//aXIVapqTqU+2hKXnKj5TvHic1vjD77zOzNwV0FhuoJwBcx9c/z2ON985ytjclRS2dT6mXMPXn3sCpESI1jyVfBDR1saXsODS6GZ2EoimZmSqhpourtjfF5/eaQaJs77vpZGEGKP+iPM5f/7O0ZVtjAoVVhgtZMEommLJ9veNI2csi0JzXK5WpVEaPL9jB12d7Smu3dIqLBoKH3fJFopyfe6ZffybNw8GvgPGR3E2BGdqaYyijiMj4wyPjrNpoJcHwwviQwaSXcsHw+PkDjLvjVkf3Ps1FRqa4aVBJsLWgXX3jbe+HP6Lf1O+QPSUBe5HmbJ8XxQbFAIHpEF8HJ/as4Uv7HuU7x/6EJEcl5vGSBSm0kBMdV6ZadT519//Gb/1Ky+F9POaeUoqEmqLKIpc2nImVrK1cPBPfn6KmlrWiaWzW8Wjpx8aZGBgPUCpL2ZNffVW2v6jwqWRTJ3upcBzjz3Cv/nJAebr89SpITicCLnWEW0PxkidM5MznDh9ge1bh0rPRQM12cA70kFWrV3L3i39KUU8Jvok7/hSbkqfc/Vagxce2YZDkpp2WmBpZWTfTsTyF/ji3jkyervWsG/LAPlSPLNgkV+XXu4cq1atasEAcaFuiwLSYOTiNEdGxlANabICTjyqNV564tGmrJc7MgAGz3PXujU8sXkT750fQclBraEQq0migbAFjm+/cZBv/Mpnm0l79y3K5+9598hJspAVoThcnpuHyivqGmTazuo24am92+/WCd8eBPEui5f70C/up3tbQ4KeRObhr332Wd46dpqZOjixrC5bDFi4MvPgMytE9oPDH/CpnZvZv3drk1uvMj6WRrFYsr4iJWNkeHSSA+fO0lBnRHynQAPVjBcff6T1RdayTjB4WKQ4r66utezbOsibJ86RaY46oaFiWTRBDDB6af70rQP8p1uGCBcH0fhIC5fbi97Odnp370iGxseRQBi+OMHpkUuAM89SCNlbCvID48e+JxGFLh3BEAmSB/2963hiz46Pvd9ojCzZA63KanAR4vjmGwfM0nc1YuVZVWVgTTtP79lqJ41P5SruCIK7+Rf37QhCZKE4mg/cEvFBcdXO6N3TFynUCB8gqOPIhUuQ26pAgtAbuXlDalg20M6hfvP8PjDPbklLQW4h/n6vIIaRvNhK1UHXug7+9heft+qnLKBSQ7ECj5beabWV4grkD773FrPTV1MYqtIAaQ0psFGOg4Ux70fvHaFOhnOBBByWgP1r1/D8/jtUb6UseJPOz/OZx3cg0VNTghSsflQ8B8+MJW5Q0z7vGFyzl6PFKujF5slVEl5biCqtpEMrVD+356egUpTKCjjB+8ayulFx/5baMH3BKnW+eeKMaUgEzoc6Ac34/JO7zD2WYqDcsY6umJn26ad3MbB6VSpBnwugYvUTgkogztJUX3vn5w+O7exB8QyPTjA8ORNiwRkupgZm3q7dC06Epx55CCgNvvcxTKDLJmRzKys2jd8vk68PzxBhoDaFTFXHi089yt6h9UY4VG+CewLayIOzJ0tk4/Erc/ybH76N4K2WzH1z/XcXBXkXCKqyOYAqrx87Sc3HgbeBYATUF3bZQuuOrL7jbRR7EReCT+95hL41bXjXVsgK5JZyL3ic2rWkA5z3AAAgAElEQVRdrTf47usHCy5JQJNi8F1Aq4sEkxcIfBghLTDS/9XPbf1xZCn0iwrek8jRy+1BLXlAbEtbTX3/9feYrddDDRaS90PU8/KnHk9aDR69M+5JKDI7EATlud1byUPtBCDFdHOKKqVeG7x2+OSD46IW83Z8+80DpvfhNE3M8Rp9mOM6a6v40nNPlhj29zlEePfISf7lt1/nX377df7Vd1/nj7/9Ot9788D95Z5Nt8KF3zkqjr/9S59hTdZG5jR9pk5NMdWXShXknj87fJzjJ0cBb67TO38V9x9iwkmptTLgjYPHjXzqFKeOmtRCzp/wuf27EIoqzbf59EBN/tGcG5K8IC8/tRuvpHFNQx8RX9SnAc8bR0+WnnXb042K4N3W64iZkTeo93Vz+CA1n+OQRKoXNf6H/a1+btePze/21wlkciv3bmm0uEwyl+Srh8+Y+8tpeDBtpfXpXQ/T3bk6bS2Be3FHund0NwbK4ctP70GCcqCpt+ZWnVIwD40XNKtx4MxFLoyM3okzvO1QganpBd44fiYo0lrL+8AniLHTPMt4buemJjft/Q4Bfn5mhG++fYRvvn2Uf//OEb759hHe+PmHd2SCWDaCkRiLOxLuV7w/D/Wv5y99eq/5suID5YSGesTZwJDRhs9sQvn9b79KTJ1f7J6vcAMEHSPLxBNsrMv50aHTuOBt8AI+pNU9sWWIjYM94au3f4QTQIjFB8pwfP5Tj9GGT6FwIBWCjA6OHOXYhTGGR8fDuBBC0R7uZAx2cYHR+Ffhpj9gxf9wmWUnq+JVUAQVd9c9BJ+UH8nMn+6JXJCb37fi/t0cLRkgCgyPTnLs0gTSAEr1RDL1fH7fznRSKR6vy3fRtIJ4jNjBNw70sGugF+dqibDknEO0UMxUoK7w1tFzd+AMbzPUWvyV1w8wm1uFTlFshRxSb+OqqKYNfunTj1to6kFB0HGye5snlrwJc93tk2sB4TRFTTgtFov20Xsl8KuffYYt3Z1W7FElpGDWgpx+qD4s9iyemZzkj7/zF7ai91UYZkk4G2EFklfg/NgUB0+fM96Yt6JyuSg1lJf2bk2Dq9zBCbxpPA3/9KxdzeMPD4Q3i3yCsndDxRYi33njPZpGZIFbY2MsHzfygpiB9dE/lkygVqpDLKzkRJGw4Ixe+Orn9vzENjYdGpe8Tyxx39L9WwKtSZUC/9+PforkDdQpNTJz5KnS27WGJ/ZsCzyM4mtlFdLbC5+Oq1ic/Bf37CRHQ9jFUugsZBRNN6tl+f13H4yqkRdHx/nTd36O88aIz8isXLdoWhl7V+Nr+/excWg9grbWO+4HuKJ2hroseLosJt6qFs1dhULi8ktYlCqIlPu14z/5pZdpBDd8hoAa0dqpt0y1kCaXIbzy9gE+PHXp/qHB3EVYu2eprUWUH799mIYzz0LufKg63KCns4sXn34s0PPuEHxYgRbB1IKPKp6X9u0KYRmr1wUkt7mIZUmJCO+cDmTUVDPoVhOFl49oeNyS50gIq26r+Bznnfj/3SZpPug/Ju+vEPwfxk9buTpipSHKl/5LIx8qMDd7hbdPn8eF+JsPvAunnl/91OOBrNKc461QLOduKyI7Ok//f+H5x+hsa8MyBUz505cfPpfhxXHp6hzvHTlV2DCLnov4oPiSP8neaz28lHlnE0RMHyt9UcP+bvZAxuM1GXNl/5bA77/yOg2fIWSQN2hITsyCMGvV05VlfO2l/Xb5i+blwhUamc3heBr/D/CLXhMGOdG0msq0gbmx70y1XcVUIiMnSdThM9N88bcwA8d7EyiI6b2i/e0z4xaFLKNSyXSfaXhEg+GjN3ZDWj/1xYcC5hYP/4alg1AovQqeXVsG+fxjO3AiNLC0XKfmhRTFdG+kPbng/+iHb6b7F8Wx0rloqb+ne+yb+kDLk0RpH4sHpqbrT8+PpO3MgHI4bwsEES2VsW8RqZ3jAHn9wbXUlxe3gYQ77kvHfO3EGWreQi8uD1wpbeOlnQ+lbfJFWUbJKAjPUlIzXS6SuzsS/Eu1fnC8sP9R+tauwmF6TBlKHqpC52ga9y7NzfKT945SaJ1w3X324Ri3O7T0cTgEsSipxDYIHLa7HZp40H9MVsOVCO/CUgVibwVOMXXFWNfFbq/YQBQGxdcPfsBs3qAu0fqs4XJhdVs7n973KEKDJPoU+BZ3cu0ZSVUS/kc8z+56uEkFNFxsIDQVr3988HgpjrN4chVIWQV5cLve2sOTZ4I0PE4znIss9iJNNlqXdh2w2LyJUsyx4gdqg2UMo/yzP/kRR0aGcVndGMpZjUxj2CVMCNrG3/rys/QEnk5eSouL1YglDGi2Ag/1eMLkSDinsj3pFDIyxAu5Wjtn1MjFQl+ijZUZgJeAxLMLN9epA5+BV7KWemG8F6Y+6SJ5WU3/JnIDFGOE59gxsrA6iG0kaj/t0oaoAzWTTBS896W2iOUCGnhpcSWhDhXPr33hBTasWY0TT0NyVGrFuYqCGknSi+PE8Cj/74/ehlCoziZbC9HF55o4yIT7Xe4DhZT/Eq0nORaXLaW1h2uORDbisfBGHBRN/S53nlwgj2r0XhCf0aq+VDR9RW3NFs4qrJjjkxSMOW9jlE+Gn117puDUxonvvn6Iy7OzpGcyq7EA1MTzlRf3p4c0i8eJlxfGFdOmAHUrxMCRwti1DJ3Cg2F91PHCo9vwQXQwR2hTaeYMhXZ54/1TyZUez7msQu0scEvZ21Khwu2ETUVi6orW8XyyrqM7+M/fO5YGWKcOFSOhPrF9kK7uVSm0oaoQDAEHd8jN742wF2oquHD0zz65C5crtTwPfIg8padGUqYXzxsfnufy7JXYHIv2HL0qvqS4CWkmbmWCVcVlNnA4jeRC1zQhJes+bl9uuNJKTYPap1MzGL7/xnt899BxVNps4K4J3ns8LtV8cer4wr7t/OKTQTTGN9+UdF3x8oQwWcQgVvw43mM7tg8zmBeb9JQGOQvWVl7RmrNV2x2ASC2cVxCLEkGz1AuXRHTpFitv37S6EilHyy1tNkfNAAtfsQQEazEz1jStNMW5tEpHJNi/DteCl0jDZCnq6Ops568HL1YblpUhPjfjPxjLeWjzvNbGt/7ifY6fGrFMCRqgZrBYP4tzqd3nZIykDVoztu0aXJjUJVy9XbPtpJjEBMtOUxXaqKE+GG6ShbHF+pUXH2f0JY+/uP9ao4X9hrfTbY2PnShobgsWCecY7vPrh0/hpc3uP5CphbWefWQrvV0dxeowjnnmPwmrRXsvIywuVsICj1ygYCRmpUuNz+Rnn9mF87lJ2Qn48CyAeZisFpRw4OwFRsYmSn3Rh/4dxn2CFyoYNxUq3G44MxpCzLlpAHJ44OjpYU5PToQ6Kx7vBDTHqeNrzzyOR8IAEjuvT7u4o124ec5m15YBtqzvttUVGsSb4mqx7AFQ3j78QRig40nbNTgkDOcuDQRxsJZFx/zo8xI87SiQU0+DPwJ59GoQk+MgZfWEAcBWqyYLLXH5Jp7vvvVz/tkPfpomHy8Ock9NCIO8TS27Bnv4rV/5DEibnY8TXNPK1qXAS1y126VlOM3CsSkGc4I4jVNyrAZFjoTBsb0Y0LyuqKvuI6HgQwjBtF7M/WYDcAsrOC0m71TMLhiz8ZpTwTDM0IhhmqJSbQg/+DysSrO0Ko/3z16H1Xp4vrSF/tNk9+J48end7H94iByhRpFOWZiKto5FG8w06vz+t3/E9NxVVKMqMClMIBDucbMBDIQ+0QJFLHqAhOZrDJNyeQywUEfJxesCN8uDIuEa4r0Ubi2EWwoBRSNaw31Nbg87L7vLWbrHUTPl/MhlPhi7ZB4rHJl6cuogwuee2F5aeOTBiImpuKUaRaWJe0VIqlIKLUVvVThWvK5NA73s3jho56M+8MCE3GHZiiFbqoHy1uEPzQsFFNo5NPf9j9X+FSrcOpwEApaoCw7awuXuBL730yOhLLhZ+oJNcA+v6+LR7ZtI6WFxIIrLjLL79TaizA5vWnGL8PL+3TQcyaJ3CjVxKbZvQ6/yvbePotQsDiw2IMWHMSsPamVPSIvIfI4nx4lS0zYzRMLAbLU7XGIb20RVTKbpsMEFr8DM1Tn+yb/+Dn/4wzdCDR7zOGTaMA+PitWtALb3dvLbf/Wrya6Kg2NhGNiAWUstWIQfihWxeV2aCp2FkEOmxrAXUZAGqj4Ql2xVe0cM0GDwuBjqIKSnSotKoOUFdMkLVDYOitc+pTbH1Xr8PHqbons7equSASNAmuiDl6ClBiomH1uxe/7WF5+jsy1L5eHFxSrHFi7y3ifj5PzlKf7oT18tQnnBAorVopPHK02cdo61kmv+ps1X8tCl74eJ0nZd3AOHt2cBC5HVwv1CciQQkzLEPIUqLRloac2QvEBm6JhDRsPE6ouEoCBal5fucTz377z1cxoKbWHRokFxs2/1Gh7fvd2eNcLzE9oux5lxF7xaiBZhn1vgIN0MkhYspX4ZDAbL/nJ8eu/DSZ/Je1NAFqUUinHUJOcH7x2/7tya+rukx6C1BVaFCsuAgzDECdTwtgAKMdHpmascOD1sAy5ZiPnnqMKXnn40uVshTnBhb8Gb0soAslzE1Xb6n2JV8+xjO1iXrUpMcC9QT4S3sOJS5fzkLMdOjdh6IBlOwa2q5vFJg8qiku9LQcVTU8Gr0d0EyHxYJca/kacS3Kyoawpr2Sra8e6Rk/zO732LN0+O2GchTJY7j3fm4fCZomRs613Hf/U3v0Zv16pwIiXxoabwjxSrYrEBK3oEJNEqi5V4mqRVgwx4yBLQWmEIOEG0HqTwbz+8b4QYeWakTG/G8i0p0ajluUvyfETir08eDMpNh923LKwejfDnUBqg9dBeweMQ/jePgBlGGpffS6K06g4TycbBHr72C3vDM2chsTjxZFlmmV8WE8C7Nl47cZb/+f/8NjPTVwuvTqgSXRi8dreT+11L4Y2bQQi+O5voy9dasg7ipmRhAdBwQi41zNNA0Ksh1DEBCfdiycNrMOi08Nhk6X4Fw08LXoOGXxmN9JxHLsfrx07hNISxEveqxpef2Bl4K/YMmz2QlY5V2jcueQ1XAhqMBW26LoKhUMhkf+X5J+jKHD4TnAPyBiIZNS0KtzVQRucXePvoaSh9t/DQhZaoPB8V7hBqkWT506NnWaV5EBw2l/6xU+eYrV/D4ajjsYJIOSKettWreffYGXO1Bzd2WiWirF21mt3bBrjduYDvHDldZJjgEPXE6r0OZaivj5MXhllAwTkIrHavHhN0UhyeV37yFrMLT1LzMRbdQFVYtbqDvdsGU0gpDuDx/6WQ23KcmhgH5T/7X/+I53c9wuef3snGwV7iSCWlwlDR96HA7Mw8bx06xmtHT3JkZNxqugQDRVwgSXrQQGh0Obz4yBC//tXP0N29xvak9RSCKZQUKfgFQhpEBeX4qQvMzNct60ntfkZeilfH1Wt187g4o3mqCM57Gs7aPPNK7tr59X/8z5NL//bBG/lVHU5NojzyfFxiW7YAsXN/58jZJPBVThsUsXZ2ooljUw5lmOGdUVPlWn2Bnx07SxbSIXOUNvLkSVTaeGb3JpCla0Ha8aEpTCSOX/3sM7z/4XkOXxwPhFjBOUee100DJ9Ekzeh99+w5/st/+v/w7K5NPLvnEbw34mjMauvqaGPnto2kDkHrfdxpzttHhxHqSNAjqdtyJRi2Ph3r5PCYhTYyc/E3BGohmiChYipOuDQ1xztHzixdL02FwZ41DA32lc7ZxY/CrW0mFr999AxZKCpnhlfOsTPnmc0XcJGxG1NZ8fT1ruXdw6fRUGtbxRZkPoSMOjtWsXPbpqa2MmPeky1z/LO6Wg5Hg7cPn7NQcky59h7vamgIK20fGuK9c2dQn1Nz7eRqRpM6wXmlgVAD/uxnB83okFK7hP799N7NpdVGhQq3F+ItHsFv/E//PLzlLbMhE7I8x5jXbaHirQaNCZvsMrIQ/w6r9EAkUyfsGVjPf/eNX7ntF/Drv/sHycuQq8OFapBOvZWlV3uAwQhZ6mJZ4KCd4DIr3laroXoVWGWrTRzQYO/gYLiOOA0Xrv3FfJI//s4b/Mnbh8KrGEvNcD7HuyykSppXRBS29/TyyKY+errWsm2oHxdIr2NT04xOXuHk8AiHLl7GypAZp0I9iPNF+mcIk2Qoa2o1/sPPPsNXn3288FRQTCLNrvJSxkDIYomr9f/hD/5vDo9O2/ki4XhmELWhLIijTeNa0KW6E3nYDiCTHPXWP24nRCS0a+B8SIbzys6N6/mH3/jVFvdS3NPf+Ee/Z++UxuCmdNvwfvrfia3exdPQmmWcqOLUhzRTW9WHqSt974/+3t+mFeM8mm+iOVpORRQ4PzLO7/zLV1iYr+ODVLiT3EIC+HBMSc+CCdTZexlGwhafoU7YO9DNf/ONv5L2nTJrWppAPb/+u/88XVtxrb70Woip+7k6kDpOa2jQMImfZyh1Udq0GGduBqfwtU/t4T/6ykvEZ5R07pTCX0V7/q3/8Z/h9Boqq8Iz0UB8LYSlgvHlzPcXqw6bxygL7WLqytFbs3ewl7//jb8csq5itpqp0S5/AVaMO7/xu79HroJzNVTrKLUwNuREITLLY8nx1IiE6ShYl3mXso0ybYSws0/tCPCHf/+30nFv9+KxVQxfnOBH7x2zFz7ONSTSb4XbD9ESlQGhb10nX3r+8WXvtwYWK1WM8Z2HtXAxmLTZRiW3XKyzQthOY2YMofqqxpjy7e/EJsoU3KFSOjvJqOmis40dN8aHUkd2WA7rqrRXQxsp/ZXozRUkxGOzxB4P1xiFwHIb3J265LK1wSByAmzzk5OXOTM5CZRWIUFgKsbza8nfQlodxnNALSXUi+eJh4f49S+9yKbBbtt5ctMWsP+b74ftS8NlWEjIa1tKMc3Imu69IrSFUEC5XRVSEUDbsIZIc1+5LdAwQIuG8GGe4t+t9L/CbW6wMIpxIPKo+5GsAJquOYuHAFAXnpPwodiV55KH1aUG50JxU1rxMKTPJbsuNv/Qxj7+7n/wRf7xn7yCakbmPblI4G84Gq5BTdtKz4IhMlGcOnKx0I7XNjNOBZtsnRb9bIn2EwApAhGqioQ01Hj/s9Q2LjynbeH5kxD+LS6uTeN5Lt13clGyYBxrDKFJCjSlHhCfL6ERFkxteHJqmgG1sLlL1ysa/ChShIfSvdVaU18QdWReUReJ6mZ8tFpq66ZQFw7sUNptv2L3txbeb/aymHB7anUP6Rlw5f7blvpTRkajKdMrhn5adyDePlg4z/k6uWs3oyPkaKeQUYXbBoekDDeb9ex1tkIZjrU4IcY4qjqPD3a1o1bknX8kFNPpr9MWVh9mI9VKjvvbh/w2d0AzqGxAMWKugFdz1ULJK2KQPA4YRgpFgnYEBakvC+dtPBRXpC9LNDZiTFvJNQPR4M4uxZbDQLtzsJ+//PyTPLF3c8iqIXgyzJO11CrB9C/Ewg7xbgUya01uf/suH8vrf8mjpWECE8FpPbSlW/b1CzU8DUQcKg1LPQ3eppXwdD+5ZyO/Pf8Ffv8Hr3G17sm80hAlkwaitSXPP0NoKHbP46QT+kIrp7f88WO5CHodHsRlpEdIjNvhJGSwJbG8GqJCzXsamaxA//bkUUAtnI7ZP7FyRmthto+EKrmzXiTqaZOchg+rUe+aBNQ+HlwwtD0qbSlMlThMd9kLojhqtRoberppJM5abppK/u6bRw86VBXJHJobt9M5h8+hs3NNyyHamyEIAzgjDQYRJbvJHqReBFI/Ck5wuQ/kMjHOg+Qg9TtkPd/eAS7z9URGddEP5awWgTH9c3KxNcjnn3kMFcfx85c4NjYGKOK9qVcG97eRNy0qrV5RKYiokURIXsiLWw2KDNMx8Sg11rW18+yjD/HVF57koYH1wVgppJij9kIaFG8CLf0jEl3YC9SEUKLrHhcjWnb/c2GiMI0W8Tm51HBExchlXr/klpoqGSnlV+ssTW5odf/KC089wr5HH+L7b7/PwQ9GOD46jnnvdMn718BREwVdsN2l8EHrHJBljR/LhAZqphMsdCpZkRocvJeJCxIuKKNOPU22y7u/IhkuGmsKJjNs5NUVuXIx4yMnFMWTGlkeOSaw/PHPjPUcT+YD+VYpnom7DPE5g+s7GXjuyTQmStCtWuzhrXB74DWsYxXUeySLC12/7HHMOCAsupHxiK2OQDFuHDaPTH+5ByzolUFKHmxCc/P48HBkoJ5cHB+eHOHI6RHOjI4xPneFEyOj5FlGiLGYBLVYrFnIQhqtLY01aXJ41rS38XDvOnZv6mf/7h3s3rbRjq85zVobPnDyJQ22rUChtH0xAd03WOH+F1U6EzdmBc6teIqLt2Hlmll9A3G1xPO5Ze9j8hq4xAVq9dGHZY4fy0C6XtVSmKq4/jLvSUsF/iL3g2V6KArxxQY5tSLUpLqk9/HWUHBBivDI8sfXVDcpjl33GBSIGXx3oj9VuAkirQpd/rgYIOpVk9gVUKT9tTYINT/gNvmt/MN399A0yWsUawsrK3WINNDAdygbIUbxCuGA0oA8M3OVD84Po66dY6fO4tWZW0tzYvGfGsrGoQHWrOpgc89q+gc3NFn/zcYOaUCND2oafn1r98FTDzTWUtz3PnnYV6L/5ZRi46WQzEpcf7NxF/cfQncrcIzIL7JMCayviQSic4uGZLkPYe1pJndbS99dzvixbATDaTGXxwxpM0qA0rNTOrcVaf9g7GqUM0gqQisSgrZHuGRQrVDorgnlxUe4f83PxN3DjW5ReRx8MBa49zBCaLrgeEFs95Xoi6KaazkjwoRrMrzkJrO8xAHKEUjrwzb43yfzVwvwxHSG8oDiQy4BFNeZawMnJddrtBglrsxJ2y9un8UZNfEoWhrQRYoBKJLu3KKdN7ubW1jhxfuV9m9u7CKT4N5+wJfd/5qW8MH7s5KXraRnyUtOLBVgWKksCZpUV29tnyHzI8TWLdMjDCwtGbDl4936+LFc3PA+L/LmmHHVAM0S4d4m8+V7uNLxSydSZBDBStzfeB0+GDdG+s+Dr3OFOqrHzr/cbnBPDeJaauN76LQeaKSQV3gdPYyG5fc90SBmYJUUSe5DteIWS9/o+IAHt3WKH98nE9hSqENYB0arL9DzxBcuXbh+JJSy8bDYguSGD7j3lpDThDS+N7teb+QyvbERsxRsv6EcYTxYybNwj9+/Feh/Gn6JxFDbYpf+8k4vprYHwRVbXa6UhyX1x+J4aUKklRjt4nBNKYzX6v1fzvixTBTNeP25FuGZsqHhV8z7lA7CCu3ro/YvkOLtuujzlfCgxcKAqe+7e4hfcYP7+rHGuQrLwg28uCtkgORaPJClOGNMz7zFgxShgPvf+ABAGyC1Jvd0yvVPk3XkHHDddks/LGUS2fUDqK3KiwG0WSArL+3bLRqMCTSymz+o14cIWNTZ7i/cav+zCq1huxhGA1JJgWW3Q/EspYypj+2tuB7XG4qLJ9xb2lHT69ZCKOUJffnjx/LRPDim9mki1hq52AfdluUfz5VCFsXxPwYT54b7V+/ARW6PQRaNQR8byUNU1IcpvKn3BhG1LFFg2krmRbyPh6n7Bjfy8F332TJgHpAKFSpUqFChQoU7iLtv3laoUKFChQoVPnGoDJAKFSpUqFChwh1HZYBUqFChQoUKFe44KgOkQoUKFSpUqHDHURkgFSpUqFChQoU7jsoAqVChQoUKFSrccVQGSIUKFSpUqFDhjqMyQCpUqFDhI6BcLz7a/PoG1Wj9vSatFOsPNb93r51lhU8eKgOkQoUKFT4CQqH2mDQbNYegploeQtPnTrgX9R2TSnI8tXvvFCt8wlApoVaoUKHCR+GGetOlOk+LPm4qlXCjr94lFAX41GTzH5Bq5RXub1QGSIUKFSq0iDhYvnvkJCIZnR1tPLp16CO3vVem+aLoXFHAsirqVuFuY4la7RUqVKjwyUUsKBcn61hw8vipYTyOgZ41PLJ16DpD496Z3I3/IaXifKE4dygWeC+cY4VPKioDpEKFChU+AtI0QXtUFRWHd4IqeLIitCFC5IXcO5N7YXjMzs5z4vwoIsKajtXs2jp4d0+twicelQFSoUKFCh8BAfCKOAEV8xzgUZVUFh5o8nbcK6YHFOfigZmr8xw9NYyIsL67i51bB++Z86zwyUSVBVOhQoUKHwkPTo1DkWZrZwaHV4psGL8o88XdE0kmggf1ZIBTEMnwFOGkChXuJioDpEKFZcE3/dXwS8ufK+RN2y7aPmoyaLG9xm3Dvhppjx5oNJ+CFtITmrYpHyOkXmrePCnq4u2b93H9tRTva5x0IaSl3giN64/rtaSt4Uv/h2Np+LxpMi+uJ51vvF4tjIDiOzbpNrdB8xVcl4mqeemFp7gPDvCJ+xG/JAoqHhVnpIpolGhhp8TvlL/H4veWwPX3J977Utv5cpt5O510b1yTO8YLFMP+DTRMSu/fCwZUhQcblQFSocIyoCphoLaJyhh+ccxvkFz0pdG82B4kaEoIHi3NXIIL/nObDGvEycUBtTQV2ySjOPGW5VDadzoGzqYUyUL4oDgXaboGn87FPvMgjfC60L2QsE/VsIqW4vvprypKLTRERjJRnIJq0yQtacIsVublVNayN8HOvZhUzRNhxy++40BcczuX5C8cGjwDOaL2VyXDh/0rLuyDpvaMXA/EzlbUIfkCSFa0n8TjNFIbxnscPytriywFUchxJSOvRiNcowTDKLWpiL0vQZ9EozVk5+8FxIc03LBNJKU24/o+W6HC7UDFAalQYRmIjuyYWTA3c4Xpq9cAR+eaNrq7aiAeh8OnXASbyOav5UxNTZPj6evuoWM1oA4NE1/8K8D0zDWuXLlCLhkbutZwrZFz5coV6pLRs6aDrrVtdgKESU6L70/PXGXq6jUyhfXrOljV0dFEmpTSZD02MUO9XkfF0de9hvpCztzVqwB0d3exZrUrZVFIOpYAMzPXmLP5kUMAABrESURBVLl6DfCsX9dJ+6p2zCmggaoZuRPK6OVZGgvxOB2sWtVmRsOiVFEUri3UGZucRhTWdq6hp3N1yZsQ+BmR6aCO4YvjiGRkmTCwYV2Yg701CGJeC2Bm9ioTU1eYnJtBNQ/ZLsJgXw8b+3uKGdhLmJPtDlo4RhAE52rB65EzP6+cu3iZ6flrOK2jAg/199Hf143gaVAecGN+zc0xcXmSqws5NSf0D/TiEDLg5PkxZmZmwrU4hnpWMzDYHzpi4eG4Op9zeWoWRJmcuWJvO2GhXmd4dDw0ooAonR1tdHd1N7twKlS4jagMkAoVloO44hVblY7PzPD6+8dxCgP9fbz8qccoVtDlLAnh0PGTnDg/SibCri0P8+SezcXqWEHEJqkcePXAcabmZkFzvvjsfqZmZvnZkZM4PJsHBnjh6V3Xra7j30MfnOHcxTFEYd+jm9n9yDbcohTR+OqN945wtW6r9q+8sJ+zYxMcOnEGB2x9aJBn9+0oDJ1oLIQJ72fHTnNx7BI4x6f37WD75o2279Kx7H/h1Z++TyNwKL7+uefDtApIRjE5e0Tg0uQUr753BKewc9tm9u/eVvImFJRPDRbXq+++j0ob63s6+fKGx0P7R6+JZ37e8+6RDzh1ccKMKFXEzA9Ecw6fGaG9lrF320PsfuQhshL3I3pFzBviaaDkAkdPXuDQiXPkCp4c5237Y6cvsK6zg6f3PsrA+u5g+IWQTQvd62fHzzE+OQfq+RtffYFTwyMcOnaamWvexMS8ogJH1LN21Rme3L2ZrZsGk4E5NTXDj989Gn0lZqx5ZfpKnT9/+zhCjroaqGfvtiGe7Oqu3OIV7hiqvlahwrLggyvchvgtD22krbaaXGqMjE8Di2PpxcQzNj0HLqOBMDwxbqEMWbSt5jTmF5ievYJXR2fHKjb0dvLQYD8qjgYZo9NXrudMlPYzPD5DnRoNV+Pi5HyTCGah6OkZnZhirl6nocqarjWs6+5gcH03qkIDYXxqKkyeWGaIZE0XNzIxiXcZ4Bi5NJU4HUX4xrgq50cnuKZCHUdfXx8dHcU66DpdRAUnGd7X8LSZNyKQH6TYJEQbQviGVXgvONrMoxS2E69cuZrzrZ+8yenRy+bg8DndnWvZsG4tfes68S5DRKjX6xw4cY53Dn0YGCO+OD8NF+KUNnG8/f4HHDh6moba5N6mITtGatTFcXlmgdfePsbExHQw3lqvwyLqQCyEc/zUKK+//wHT9VK4yTlqKigZc9fmef3gMU6fG2vK0KlQ4V5F5QGpUGEZiG70RBoFNvR0MXxpAlXl9LmLbNlsegtp3vfK9Nw8U3PzgJkk07NXmJm5SnfXKsDCMB6bfM9duBhW6RmDfX2ICKs7aqxb28H07BXm5+eZuDxF3/qe685vdOIyC3kDsWAFI5cup7BJ4gGoImLhF1GHU2X7YD8obOjtZvXqVczNLzA5e5WZmTk6u7qMd0BhMJ0ZHgWfg6uR+zrnJ6aCZ18SKVLE0liHR8cRBafKlv6e0H45kC3yDpjHwXsPojb5O4VFRlrkjlgbKbmz1s61AVIKmzjhvaMfUs8zUGXThm6e2bWFzu4ufAgrzc8vcOzUMEdOj+DxnDh7kUe3DtLTuTpsE4imInj1TMzNMDI5TUdbG3u2bmTb5o10dLRz9eo1hkfGef/DU1wl41qe89NDx/jqZ34BqLUe3ZAGeMGp8NPjHyIKe7YMsHf7FlZ1WMjo+JlRDp0a5ur8PE4z/uLIh2zo72Vte41167r4zP49KQRz4Pg5cEL3mjb279oWOnERgqlMlgp3ElV/q1BhGUjhEpxxIRSGetaSib0enZq7frJxwvBFM1BUc1QgRxgZm7SshbCfyIQ4N3EZ8Ijz9K9bC9gaeuvGvuQxGJmco8hqKB7rU8MTkHtWZ2JuAiecPn8xkRON8Gn7uHBpGu9NWmuwt9s+V3ho/Tqb99UxMj7TdD1GIvUMj03aa98gy9qo13PGxy/be1JoZggwMj6FqpKJsnmwL03oMZsEmj0hmZgJ4WL2SSnbxcygZuIq3rat+VgszqewydjkLF6EtatX8dlf2Ednd1e4DiOmru5o56nd29jS32n7E8eFkTHA4SIptRSSWViA1W2OF5/ew95Ht9DR0Q7AmtWreHTbJn5x/z5WOY/imbzSYHxiOmQsteYFUWrgBB/u38v797F/71baO8zTJCLs2trH157bx6pahkpOPfdcuDCOCqzuaGfT4Ho2DfTR07UmtU97WxubBvoYGuhjaMA+7+7ubjbuKhJqhduMygCpUGEZMP5HSI0UC308/NAAuZp+xIUxMx4WpzwOXxpHRHior4d1aztAPMOXL6OBU2DeCZtwL03NoeLIMmHbwxstLIGwpX8DuAyvcHbkUvM5qWWiDF+aoeZgsG89HVkbqjkXxiavS0O9Or/A2NQUkjnaOtpYv74rcjZ5+KEN4MyDcX588gaVXh3nx6dBajz68CCaNxAc5y5NJa6GBlfJ7PQMc/M5OGFtVxerOtqDF8UVhF7KvBGPFyXH0XBRw6LIZ7FTLNJGNZAwcxTvStkp4fOr1+qIb7B6VXvT9ccMkmgYrN9gPAqP51pdm/YDgc+qgjjYNrSBwfXdtp/S+SCwoW8dD28cAHE4GpwdmwwhMFdsdxNk2kA1BxW2DfQxuLEwDDWdf42Ojhr7tg2C1MzwnZw0L5cW5+0U1AWvlZYMs+ssZF9cY4UKtxFVCKZChWXAxmh7jLw6nNgqur9nLZemrnBloc7M7Dyda9dE5iLz1+qMTs6grsZQXx8zs1NMz84zOjWDiidTW90icH5sgsZCHScZm9avwzI9BBWhs3s169Z2MDU3z+T0Fa7ON+gImSeIY2bmKlcX5gFhaGAdSM7p0QZjk7PhvKOHwHFuZBSH4r3wcMwcweavwfXraKs5GnUYn5wNk7XYBKqOi5enqDdyRJQtQ33MXL3GxYkpLlyaZv+uMMGFWe706OWUXbJjsKfZOyRNfwIcLoRrVPIbcBt8kV2UUlE9Lsye5fsjwF//6vOLPDj+Oq0MoUFPuxkvGQIuK0JCsV00ZN/4nN3bH27uFIv2N9DTzQfDY+RSS8ZbDHstBcufyvA02LV1I6mmi5QPYfexp7PTDE+BK/P1Jk9NcW2ULI6POn6Rdlyhwu1E5QGpUGEZKHsD4soWYKhvffrs9IUxRGIYQDgzcgnnHKhnw4ZuHhrsJ1eP1pWzw+OlVBZvfAkRvMLmwfXmSXCFimVfz9p08PMjF5tmjbMXxyCklw729THUvx71cGV+nrGJGTvXoC9xaeoKqoIT2PLQQAoQxN0Nre/FozQaDYYvTqQJWVHOXhgD9bS7nP7eHgZ7jbhqvJb5sAdbVU9MzSUF0U0D61tu5xjGuZH3JbZG4oF8xLZezbgoC6dp1EjBUno1kEeviZCx+FjXY11XF6s72psMC4QQXrP32tqy9H/07NxKoTq7poze3u6iPZo+b77We6MIXoUKS6PygFSosAwkLQygrO2weWA9739wDq/KpZn5QhRK4ML4JN57errW0tvVgXauZlVbO/lCnYsTs2zdNADYxBP5Eu1tji2bBq5b9W7fNMgH5y7hEMYmr/Bo6dyGx6ZwCP1961jdUWOwrxdxJ8HDxctT9K/vSud/YewyOGHNqhr9vd2lqdeuaVN/D2dGL6Mezl0aZ9PAeluFS+CuAEMb1iMibB5Yz8ET5/EKFyem6OxahYiFeS6MTiJO6Vqzmu6utS21cbPXQK77X+JrxDJzfA6SNU/E2sBJDVV7f3pmjrNj00xNTXFtoW7hFgH1ZrwseA2aJTc/t2hclA2LxZVwk/ERs2duAXFfXrV0LtFzRTrm4naqUOF+QOUBqVBhmbjRHLWuaw3dnR2IiAk+JX0LGJu09NuhDT3EyqmDG7pRJ1wcnyR6C2ZmF5idN7GuTRt6EHyTjDhAf283q1e1I6KcvzSdjnHl6jUmpucAl/gJq1e1s6G7E1zGuYvjxvlUx6WJGRbCxLixr7cpxTVi20OD1Jx5X8Yn5+xNVaZn5uwcgU0D/QB0da5h3doOxMH5sZASqo6L41NGpnTClqG+W2/n6/REFn0mBbGzSSkWQGqRXMJb73/AK68d4OfHT3Lm4jgXp+a4ODXHpakrXJqa49LkDNOzMy1xIDT3lKuqNPNX7Eycs3usqjj3cQyEqEx7k/NQNa9ahQr3EaoeW6HCMtBMTiyJS4lnY9+6NDGcOn8RgFPnRsgbRhDd1N+bvrexZy0eZXb+GtOzltFyfmTcuBYi9HWvthBJSKgt4Bno6SRXqHvPxMQ0AgyPTqRJeFN/b/rGpn47p6mZOeavGXn21PBIChkM9nYFl0LcfTHt9a/rBGBqZo7p2TlEhHOjEyEk5OnvDRklIvT3dKKqTEzP2qJf4MLYhO3Sk4yiVlD2Knh/c+Km6k1CEAI//NkRToZ7IVnGlo397NoyxN5tQ+x5eIi9WwfZu22QrQN9LbEwi+ydcHyu90LEc76Rd6Sl/be43eIwT4UK9zoqA6RChWWgORZfmohUeGhgfRK7Gh6bAhyXgvdg9ap2BtavS9/bPNifJo7hixbSGJuatvRQ9WwZKj43M8cVx9nQQzRNzly0rJuzYxM4hK61q+jtWpPmyM0D64MqhuP8xTEQy7IRHKsyx5aHBsIV5Ek7I15j2WC6MGYy3mcuXsJ7z9CGXtastiwbgI39PYgI1+o5Z4YvosCly9Pp2vt7e245y/Nmq3zL/HHML/imUESs+ZJj+iNjY+MoGV1r1/CXfvFpXty/i2f2bGX/7i3s37OV/Xu389SebWzZuAETALs5vCmlpdfRBC2MANdEnNWPkVoSv3Mr0ZsqDFPhfkBlgFSosAxY0bWQNbAoRNDf282ajhrgLOsFuHjJtDEGezqbtu3oaKdnraWGnhub4up8gwvjgVvR10NHR8cNdRlEhC0PDdKeGcfgwsSUScJPziYvi/eeWC6lq3MNq1e1oaqMXp6xOjEzJvVtIaE4gWdNx1FVNm/cYMXbnHBxYtbqjMzM45xjQ/facD72vU2DG2h3Ci5jbHKOsfFp5q4tALC5v5eYAtoqouFxU56DwMSkGXpl7RFEcKoMj02RiwNt8MSOIVZ31AAfZnYTf7NUXsfV+aKQ4M0wN3fVCtjdZMKP3olorHwc40BEmJ+vk4rxLYKGFNsIa6+l03wrVLibqAyQChWWAZGyBmpJJwLLeNm4wZRL5xfqfHDyHHPXFlBVhvpLqqVB0+HhoX4cyqXJGYZHxskRREshFLnRhGL1Uob6e1FVpmevcOzUMHmeowib+ntDxk1BaBzYYFyNC+OTjF66bGmmomwa6A3Ey+tNg6i+2rtuHQqMXLrMuZGLISzSYMvGAWJ1VbD01qEN61HNGbk0yUgoEKeqbN20IehQtI44ac/OzqbzuREu/P/tndtvG8cVxn9nlhJJidSNpO625dqJXRRxk6APLeq2bw36J/Tf7EP7kLRpmiIxGhdt4ziJESeWE1uOJFsXirrwsnP6MDO7S0pFUhREE2C+By21nJmdvUjn7JnvfGdre2g5wv10Dsne0THGq6ZWKhU/X+MMtzo11iCpv99pO2frG9Dt93mxtz9CeB1uUxRk+2+XYIr9trd3ssEzHZds2QWOOydZ2+npb0fwjYj4fyI6IBER/xNMIVYwqrcAV5qzWBGwyr++2ML62h4ba0v+dTsFr+mwNFtz3xvh/uYWCa7Q2PpSA/Fv6VC0bxb1tU5aMzV3HAwPNp+iYqhV/TKP4kXSnOFbnq86sa5+n3tfPAEgKYnPvpER++nq2Fu/bHOp4TRCUjHce/gVYFmo1ZipVwsTc1kazbk6oobO2SmPvSBbrVKmNT9TSH117f/43n3+dOdD3rrzETte+TUMl0xOIJqiqjzZO+H0rHdOYEyA3f02n+8eoJr6asBhQcS1q09N4CIdhuPTLkFx1rVJERJUhdNuj8dfu0J1bhZFR8Rm4l4hPfafnz3NRdCwoJqJhJ2d9fhiex/EIGpZX5rPxlHgs80t3nz/Hm/d+YjPNrey81H/QX2FYIB7j3bodvv5fALfxV+oL7cPXKqxWhrTlcLzaLP5iVpErU8+tsPP0sizFRExbkQHJCJijGgtLzDpMz/6/RREWWt4IySAeLUJqzQa80xXHI/itNvFIjTn6pTLkxfJVbohvLjZ2soiiRuG065LK236ZZ5AjAzG+NLaEqUErEk4GzjjttpYAE2z8ZCwRGL8TwFNWVluIgxcwbY0BU1oBn2KMEUf3VhfXnTZHxhOzs6wCCs+y8YIzlHwzsrOUZvdwxN228f0BxqOCFiaczOUq1U/B8u7d+/R6Zz5uQ0Q4OHjp7zz9wdB4wzjHYTA4lAsjdqs/0X48JNH7Owfep6pd85UOe1b/vzBffrWCbQZxC+zhXGGl9tSlOftNu/e/ZizbopzcARhQOfomLfv3uOk10dQquUJmnOBfOvUTI+7PfbaR+weHmVLVCEKg5BFYUSETq/LX+5+xGGn7x0sN9JZ94w7//iE7cMjACqlhJXV5rlITK025dONE/ZOemzvdbJbZtXQOTouqKdG0xAxfkQdkIiIMUJQVhuzfLl7QCiatpJFJYoNHdmzNVfjZKePtW4df605P+x7aNEXCXLahmqlxPLCLM/22n6PsNJ0yqlOcTO3RkZTFufqPHnRzr5bnK3jeB+h/QUOjwiz9QozU1XapwNSFUSVKyutwvnmXasVw0ytwsFxH7UWSQyrrdlMZM1pdqjTQxOLWmdok1BxVtzZqcDLa05bRJIJ9o8H/P69uyzUZxERjo5P6Pb7YIRXrq3z4cMtVKAU3A+/7LG+vsiDr55xfNrjzKa8/cEnLC7MZjVSOp0OT5+3UYHGdJm9Exd16fdHyKiSE0MXpqscdfts7R3wu3f+RmN2juZ8jb39Ni8OD+gySaKQ0OVnt14fvpdesMwiIAY7QlDNlrNESK2lNT/Hi8M2f/jrXVoLMyzMzPDi4JjDkza9vjvHBOXmtQ1q5RIwoPgvvlqbYro8yUmvT7dnefvux0waJZUSab/HjY11Xr05PaSCG/NpIsaJ6OZGRIwRgnHcCttzNUy0z1JrYUgt0xltFwJfac25MLkBtX3WFxe4KBw++kYOsNZaICElUYthwJW1Jc7/ibvIwmprngTnjBjbZ32l6a3NcHv10RD3i+u70mogA1e0rl4p0Zz3kRZNM65JwOWVFsYXnisJrCwtoFhnwL0uh+KXQkR82q9kls8gGIUfXt9gdXkJ0j4qilJit91ht93hdOCiKLeuXeVH19dBNMsYSRSvwWKoTBp+eus6c/XJLILw9d4eDzaf8OnjLb56fghG2Fia49e3X/fFBS0nx6fZRQ8G2S1jKKVSiV+99jIV40iszw8O+XTzGS8OOgy0xKT2mZhQbr/2Cq2F+rmohEEooYi1GBn5EtzSkylhUH756kvMVsuoSdjZ7/Dp5jOet9v0eu46lkolfvzyNW5eXfHrOKWcAwOUdMCtG1eZSMTxgmxKbwCpv36iA+8bFiNmERHjQ4yARESMGUuNeW5eXkWThHIyQb1eLZARLd4bQQSurC2xf3SGiDBZEsetKDog6okLmPwVVdwK/mJjhpcuLyHJJOXyRP4mq2GFwX0QSVicr3NjYxlVZapSpVIpDb/xegPtSI2uyF54e99YXXZkVXWcjkwN1vMRwlbFcKm1QK83QNQwNRUKwClmpA7KzSvrzkGzwtRUNUwBJcV4YuXtV6+zszPHw60XdE+7pFLCYJmtTXJtY425mut348oaRmC6XMprpmiKSEJzrs4bP3+dh4++ZvewzdlZz0UYVJitV1lv1FlZaqLAzSvLqMB0eXIk3Trl5tVLqKZUyxUWF+q8cfsnfP50h53dPcAyQJiYmGBxdoofrK4wOTWRc3ECWVdT55Sw6u5fYXkGfy+smYD0BJGEcjnhN794jc83n/H0+T6DQR90AjEpy40660starUpQr2g1ChJsX4NCZdXm8zXqzx6us3uYQejhlSVVmOOlUbd9Q2pzjEEEjFmiMaE8YiIMSM3Os7GOsJjMIqhjctAcZyJInnywrRLyCXIC5VjhzNRijYk/84doZA+XPx+yDFiZB+eNJv8B9sUzsH1TzEkwZEZvQ6hfagKGwq4Kbjqwi5DRdTiwkFgRb3aSYFukl2H3MnK528KWyCMxbBtzQX0bdYmvwdk9y0/YTv0feasYcEafzibtXJdzWivbBLF+zUss2558/377LWPsSi/feNn584dXJSEwnNUfNYyh0fVq7HmnqQUjl983sLT4UoOxiB5xPgQn66IiDFiNDvC1Td11VVz58MhK6rmsywcgkNxcVaCMKorEYrejczDH9sZFhdxQdNsTrmxDu2F7E3cZ/G4X5KsmJwr6jbSxxt/p9qKi+z4jIsscyTvkJFQw05Hg3DaKW5pyv+LEpuxLiUzlPjsoDw6I6FOffavzRFVw75A+M3nFAi23lBL4di+TX4t83MNUZVQfTasnqgJjoHJ8qMkk37zpNhA9AxcGIadj6E3QiPOwdA8Oym7FX5JSItOLKHoni14WKGejNdH8Zkww86Hvz4aZO4cvyciYpyIDkhExDjhUzUBx3f4hpD2wBtjDRoVUFD6the8LZPxKBSTZaCgBeOiubNjVNx4kiCFgm1FwmMYM+xXVTDBUQGMkCIEsbLgIBUjDyKCWPXiWC6jxLFGJD8Lz83IYYfPS/ONq9QbUkddNMGtRGnmXGVKoRLSTh151KpbilHxDosJ7oDJ20kemQlZL+rnrfkF9wj7kgIpxEVthNwpysfIM4qM59Tkz4EZGnf4UAasolLC+AiL4EXl1GYZPPlSm3H0Yx/1QMnSuv1t83M1mWNXdLRGDl6IqkREjAeRAxIRMUYMSXL77cVwjkf4gxyyAwVyqFzQZ2if5FsZ3efbn5/B+blJcSvnYyql7ADDfYdC9kaGehnfx4yMNXQ+xa0UNoU5uE+F44s/8uh1Ck7X0CSGx6HQLjvn0UJ35+Y3vM99LvwrNXKuTdZPstl/K4hRbObcFZav5IJ7ll2v/Pp9uzfMi84rImL8iBGQiIiIiO8qtORIvrbARcEVEYwLJBHfd0QHJCIiIuI7CoMFm5IxQFSzpSPhYl5QRMT3BTELJiIiIuI7iuBoZPkzQ1lFERHfb/wb7j6H9/COXXgAAAAASUVORK5CYII=;" parent="s_Ze_dU6yraX1gmQ5FHQ-4" vertex="1">
          <mxGeometry y="10" width="257.3" height="70" as="geometry" />
        </mxCell>
        <mxCell id="s_Ze_dU6yraX1gmQ5FHQ-2" value="" style="shape=image;verticalLabelPosition=bottom;labelBackgroundColor=default;verticalAlign=top;aspect=fixed;imageAspect=0;image=data:image/png,iVBORw0KGgoAAAANSUhEUgAAAyAAAACGCAYAAAAl3e4GAAAgAElEQVR4nOzdd3gU5fYH8O9smS0hGyD0XgRCAmnURFG8ckVRUX82pAg2FFBExIZKiChXFBVRQCwg6rXdq14L4pWrgGBCJ7QYepEOgbBJtszuzPv7492Eyewmu2m7IZzP8/Aos1PeTZZkzrznvEcAIYSQGmVo0fcWU9zdM5hkPxPpsVREMDZoJB346W3P4V8/jPRYCCGEXDoMkR4AIYTUQ60B9Ij0IELUMdIDIIQQcmnRRXoAhBBCCCGEkEsHBSCEEEIIIYSQsKEAhBBCCCGEEBI2FIAQQgghhBBCwoYCEEIIIYQQQkjYUABCIkIX1VK09HmqbaTHQQghhBBCwouW4SVhobM2s1r6Pn0tk4quAvA3CPpEpfjYuwDGRXpshBBCCCEkfCgAITVOZ2kqWPo+04p5igYBuAJAbwDJTCpS7+aOyOAIIYQQQkhEUQBCqk1naWKw9H22C/MU9QZwNYCrmKeoU6THRQghhBBC6h4KQEil+QKOOOYp+huAgQCuYJ6iphEeFiGEEEIIuQhQAEKCEiyxorXvs/2Yp/hq8IAjjXmKzBEeFiGEEEIIuQhRAEL8CObGRmu/qenMU3wrgMsBJDBPsSXS4yKEEEIIIRc/CkBIIE0BvAega6QHQgghNUHseN11xnaDrmGe4mIAEMToaPeuL7/yHl+3rsLjOt3Q29h24LXM4zADUABYBdG2yp332XLviQ1S6X6db+prbH3lIOYt3a+BINq+d//56e/ek5sqHttlN99sbHV5OvM6nQBMgmjLc+d+vNR7asuZ0n263JpmbJn2N+Z1mnznjxJE2/9cW976r75xfA9j24HXMa8zBoAMwCiItqPuHYu+9Z7ZfjyUr4+p6x3NDc1738pkV1sAHgA6QbTBtf2DT+T8nXtM3e6609AsNYXJrqouIGISRNsO19Z3l8rndhWUbuw+vKuhSeIQJrtjfWMPxgDgJICDgmjb6sqZd0Qu2KuEPIiEMb30jbrdCUXqD75AitX3khtAHoCdgmh717XlrWz5/EFveecx97jfpmvYeRQUT0sAXgB6QbSdc2564xOl8K/Tpfv1fCBBF9PpeigeG/j3rSJGAHmCGL3PufH1LUrRUWeo7yvgGJPGPayLbt0ailzyddULYoMzzvWvLlEcJwsqPFh9npRHJuisLVqAycG+PwIAB4AdgjFqk2P9P04yZz4Ldn5L6qRbBUtsDzDFACDo/gHoBYP1hGPtjMVMsjuqcDyJAApACCGk5u0BsANAewDRER4L4QYDmKTZdghAhQEI+E3qswAaqLY1ALAKgKTa1gfAVABRqm1XAXgQQE6QawwFcJ/q7ysArAVwRrUtzTcO9fn1AP4LfgM8DEAvzXkPA/gxyLVLDAYwHUBz1bZtAL72/f+dAG4L8Vzl+QnAHwDUN79dwL8v7St7MibZYYoftUMQbS+6cuZ9LxfsLTc4MsWPbqxvHPcWFOlOKJIYaBcASQCSmGQfbkq4d60g2sY7N8/ZotgPBTplDIDxAOJV2/4CsAzAadW2BABPAGgR+vsqhDlx7HlBjP7WuXH2M0rRsZOhHlvCnDQuWRfd+hkocpmvK5OKYOn71Cbn+lfXKI6QT6t9n0ExTzEsKROzBWPUdMe6mSuY66yngt1vBnA3gEDfl1DtBPAVeABELgLUiJAQQmqY98T6X4pXPt7TkZVhk/YvbSGItmEAXgG/mTsQ4eGRMGGSvbep+8j7DM17RQXfu8os4E/u92uuDVOP+1INTXoGfdBo6noHDC16D2Kyq7nmpd/Bg7S6rAeT7F+Zkyfcp294WcD3aoofbdPHxn0FRRqJ0G9y+zPJ/pslddKVOlulY6OaEMOkwjHmxId2Rg18o5+uQavKHn8neDZDIEMQngcjacxT/F9rv6lTBXPj2vw3QC5CFIAQQkgt8p5Yf7J45eNfOrIynnVkZdzuyMroJB34KVYQowcCeADAIgC7wZ9ik/pnLIBrauvkgmgTpAM/wXN83a+CwXJO8/J1ALqFcJqeAHpozgvX9g9+kvN3hpyqE0lMss83J0+4Qd/wskAvvwQ+G1VZDQHMAtC5OmOrplgmFS619J4SchBiThoHXXTrm6DI1nJ2GYuyM121inmKp1v7TZ1CQQhRoxQsQggJM+/xdWe9x9etAk/j+RAADC3T9KZud7RjUmF/AHcAuB4ArTZ3kWOS3WTqPvIhADu8JzftD3pA1f0BPguiTsNKA9ARPD2lIgMAdAhwvoNBjvsSwFbw9KVgTOBpiaEENLvB07XOgqeZlVDA71uuAU95M2qOuw/AZvBUKH7R+NF99LFxgyFL2vudXQC+BZ/lsQOIBXA7gFuhSrdjkr2/JXVSP+fmOfvKScWqip0AfvZdt+RBsAT+vesPnq6lfkAcC+ALANeCp3cGcxOAJuW9yKSiWEvfp7o517+6txJpWFrzAJxSjVMG0BJAIvj3psxMky8IOeRYN/Mz5jorIbhvwb9OodQF6QGcAFAc4thJHUABCCGE1AHe49my93j2AQAHDC3Tik3d7riaSYUUgNQDTLIPMXUfuQLA7GAF6VUl7fl6B4ANxpb9ejGvs+S6MPW4bwh2LPrDe2a7dnYEgCr9yutqpHlpGSq42RVEG1zb3vtSPvvntzX1HlTn3u3aumCOfG53eXf800zxo8bpY+NnQJZiVdv/BqAVVAEI+M2weh8Ioi3PtWXubfL5A7ma835vSrj3UX2jLtOheBqrtv8dwP/Ab7irTRCjdzo3vTFbKTxyQvuaOXEsdLb246B4X4QqiGBSYQdL7ynXOTfOPqwUHQu2EMBdqCAA8RkGXv90Jsh+/uM3NoBz/T/eUZxn8gK9bkmZGCdYmy4CU/qhbCD1DIBfABwLfg3rt461L3/B3AUV1Y6QixilYBFCCCG171FULQ2oMtaAPwlWuwJ8FqQ8PaGZ/RBEm9O1/YNsOX9nXU4LXADgT822BuDF4WqtcWGlqxJLoKmZUXk7wHn7AtAGaLXCte09ONY8t0ApOjoVOsNZzcuTAbSr6Hhz0jiDLrp1KhRZ/YB5B/yLs++CJjCrKc4tc/OY4/Q1EHTb1NuZp7ibtd/UawVz4+oUm5N6ggIQQgghpJYxyd7O1H3kbbVckF6ShqXWExUHIIHSr35CaKk+EePO/QRyfq4D+irdy/ZDOTME7p2LIZ/b8zF0xl/BF414DcAHAALOINWi98EDh1K+WZAEXVTLio57EP4rbn0H4BMAhRfOVWS09H3qap21WSjpc5Xm3DLXyRyn34ag06bcDYd/kEguQZSCRQghhNS8YvDfsaU3eEyyP2rqPnILGFvsPbW5xi8o7fn6IIBtxpb90jVpWNdgx6LftGlYFaRf/Y6yaUx1jil+FPSx8VbIfuUE2pSdDQDyAbQp2cAk+y2mhDHNBdE21bVl7mr5/IEydQbunYvfA++FFTGube/BnPjQjzpbuyQoXvUNezqA38DrRwK5Hv6zNb+B18/ciLKrXw0DD05C6hVTBZ8BeB68mL/EAPjPSJFLEAUghBBCSM07Ab7IQDqAONX20QCywZfOrQ0/g9+EqteOLUnD0j7FD5R+td+1/YO1cn7FdetMssMUN6wHgCMo25skEIMg2k66ti3cI5/NcwV/CxUzxY+EPjb+OchST81Lu+Bf0/Ar+A12G832NCbZV5gSxhwFsFQQbctdW976r3z+YCHqjiPgDRLV2qKcon9z0riOuujWCVAuxFOCGJ3v+OOFg6buI/frotseBpNbqw65Cjw4qJUAxLllrsuSMtEjWJsCrLQHoxn+iwf4YR5Hd0uvx68CDyiFCnYVBKO12JE9YwuT7FQvchGhAIQQQgipeQ3B02hOQxWAMMl+lSl+1CgAGd5Tm2ujxuK/4MGNOgApScPSTrsESr9ajdB7f7zo+xOKnwA8ghD64DDJ3tXUfcQk+K+C5QF/H70hS3HwvxH/FMBe9QZ37pJCU/zot/Wxca9ClgI1A2wNYCyT7GNNCfcCwCYAXwui7Svn5jn7FfuhqnTmrinZAM4DaKbaFg8e8J0OsH+g4vP3BWOD065tC2FOHv+DLqpVDzA5GihpSvj0COf6WbMUx6naCrzWgH/GRIA3KLT2m9rTsW7mAeY6W9EKV8/6/oTiT/BgKtDXhNRRVANCCCGE1DBBtAnuPz/Ve46uWSQYLNpO6A8BuLo2rivt+drlOb5uu2C4sIBaSRqWoUnP0tScCtKvlgOo8tqsNaQreHf0FwFkqP68BOB+8I7lZYIPQbRtdOXM+5dcsNcZ4Hyf+P4Eek2rF4CZTLLvtaRO+lxna9866BHhZUPZoAwAYE56GLro1jdCkW2al5bhQu3Hz/BfBvl6hL8mIwYB3gO5tFAAQgghhNQCQbQ18BxavtsXhJT2KGCSPdYUP+p+Q7PUSre3DtF/oZkJgP9qWIHSr7a5tn+wI1j6VV0jiLYVrpx5d8kFe3cFet2duwSO1c8+JZ8/MAo6UbvCVbmYZL/L3OO+HVED34xUN/TK8JvNEsToHOeGVw+V9Ppw5czfohQfOwThwr0/k4pSLX2f7qmzqidZCKl9lIJFCCGE1K73AAwCMLRkA5Psd5niR61gkn0h8ziV8g+tkv+Bp2GVtgVnkr2nqcd9PdmODzfLZ3YAwJ3gQYja7wg9/QrgqzSdQPB7iSgA2wFUu/5D5U8AOYJoe8+VM2+NXLA3aDqbe+dHX5sSxvxH36jbQCjS/wG4G8GX120IXkj9AIDD1R517bkO/u/lZ/jX/fwEPoOkLkYfAp7uVZe63v8J3nclWAqcAcA+8EaO5CJCAQghhBBSi6R937sBvGdsfUUP5nV2Ur00EcCP8O/RUL3r7fkaEITNxhZ9rmNel/r3/CDmti8VO990xtCid4r6NUG0wbX9g5/k/J0h3YT6GhFOq41GhLjQCf0kgM7gDQY7omwxsk0QbQtdOfNWyQXayZ7yuXd+JIMXpv8KYIIpYUycvlHXQVA8VwEYjLI35gAAJtn/bkmddL1z85wPFfuhOtcbxZz0sF4X3fZmKF7t6lLL4L9a1s8AxsF/Naw3UYcCEMFo/Qc1IqzfKAAhhBBCat9SAAMBTCnZwCR7vCl+1HAAzUuWza1BPwO4DUCCatvlAJqDF15re4NkAThY04OoCm0ndL7qVcI7kKWHcOG+pTWT7P8zJ08Y58qZt0Qu2FulG1X3zo/ywGeL3jEl3At9oy53QfG8Dv41UrsWwA8IoYt3DUqDf33GWvgHFdcDaKzZBiYVrjInjfM/K5M1+xU1sfR9uq9z/axDiuNURYXhVXEFfAXoACAYo+BYN3MNc52lGYtLHAUghBBCSC2T9n0PAG8bW1/Rh3md6o7oT4AvTVrTssFXnCoNQJhk72jueX8nAD2Y19VFs/8y1NHmg+7cT2GKH/mIPjahNWTpFtVLBibZXzcnTzjoypn3P+1MiCl+dBt9bNw1kKU2ANoIoq21a8vcp+XzBwLWgbh3LgaAL00J93r0jbrMheJRByF9wW/ywxmAtIH/Sl9/wX9p3jsBNK3mtYaB9ws5Vc3zlLKkTDQL1qZG1RK8AE/Do1kNQkXohBBCLgm5AIpK/sKkQpi63dXB0LJfsAdxzQA00Gzbrz5XqKR93x/2HF2zRDBYzqo2N0ctrEIk7f43PCc2/CQYzNoagFvBZ0ZKezEIos3p2vHhWjl/Z51LLyrhzv0Ucv7O8dCLmzQv2QD8A0C3AIcNBfA6+OpZDzPJfpM5ZWI3fUxFjeEBAOvAlwCOtOvg/9nIgmoGxJz0cGNddNu+ULzVfaB8M4DYap5D6wbw74/aatRwyiG5OFEAQggh5FLVAUCg3hAAALHTDTC2HdiOeS7cLwmiDe68z4q9JzZU9ZqLwVN5wmEN/Ptu3AH/4vNl4HUXdZo799Pjcv7ON6AXyzTOY5K9tzl5wh36hpdZNIfkwT9daTT8mxJq9UOAlKZwMieOHaKztYuDciEmFMTog86Ns3cqxWXefk3MfpT0BLlJZ21WI13KLSkTIVibTgBTtF/Hz8B7m5BLHKVgEUIIuRTkgt+Ml958M6nwVlO3u34HMMd7fF2gY/4PvDBZTUI1+mRI+74HBGGJsdXl/ZjXGRf8iGrZDv6eU1XbtLM5AH8qXZdXeFL7DPx7co96I5PsM8zJEza5cuYtU6Vi/Qbe5bujar9bzCkTj7q2zJ0mnz/gN8thSrg3Rt+oy6Oa9CsAWI8wzYqYE8feoLO1fw2KV7tM8xvw/z5dB02wJIjRU50bXn1LKT5R7kyDOXn8BF1UqxlgsnrlrOvB+6VUa4bCkjIxWrA2nQempEO1cIBgjNrlWDfzF6r/IAAFIIQQQi4Nf4B3Ai/z9J9JhW+KHYf0MnW7a45715e53uPrnGKnG2zGtgMfYh7HZOZxaGdIfgOwtToDkfZ+twLAJ8ZWl2cyr7PWfg9Lu/8NAL8aW/T5W4CGgwAAQbQdcO34MNu3NG/ImGSHKW7YXeBd3rV1CgEJos3m2vruQvncroD9OkLhqwd5WR+bkAJZ0s7kPAy+NPBffN8lMMWP/qc+Nq4bZKk0vYhJ9gmmhDHXgs9GbQBvUNgMQB8A90PxBGqK8TVqqP6DSYUJ5p4PTgGfnSnJRJHBZzIGAEiA4jWqj/HNfvysFB0rrf8wJz2cpItum6SZJYFzw6s/VBR8+HwB3uyx9HPBpKKBlr5Pd3Sun3VccZRfCsI8RTCnPPoIeL2IOpNGAq+VGQymBKpregXAmSDj8l3Dcaul1+Ndwb8uoTAJButnjrUzdjLJXtPLWpNaQAEIIYSQek868DMA/NPYblA68xRrC7BHMqlwpNhxCMSOQwAA6rQrjaXgfQeqayH4qlh/r4FzVeRn8NmC/uW8vhpVX/3qLt+fylgBoMoBCAC4cz/dbYof9ak+Nv45yFJpjQGT7EPNyRN+deW8M18u2FdyV74AwE3gMwVqXQDMDOV6gmhb7tw8Z41ir0yLlAoloOzqZMF4AYyE/yIBg+GfKvY7/Ht/+HHlzM83J4/fpYtqdZlmVawh4DNnhYGPLDUh2DXUBGPUm451M7+uxOzHrb4/lbEdPO2OApCLANWAEEIIuVQsB7AIVVyFRxBtL7nzPltYjfqPUtLe7/I9x/6YKxgs2hqNGiXt/vcBz4kN2wRDuQttrUY1Usoi6FXwWS2tZwD0KPmLO3cJk/PzJkMvZlflIoJoszs3z3lKsR+KVIpaviBGX+HcOPsPpejCBIw56WHootuOgOLVFnkHaj5Yni8B5Gu2PYQaqClRE4xR0x3rZr7AXGeDBTXkEkIBCCGEkEuCdOBneA7/7xXBGHUbKld0XSyItinuvM9e9p7YUJNLiP4I4JcaPF951oB3LC9DEG3bXTs+3FTZ9Ku6wJ37CeT83NegF/ertzPJ3tKc/MiD+oadYy/su+RPOT9vKHTifFSivkEQbd84N8/prtgP5dTg0EN1TBCjp7u2LbyseOXkdergw2cA/Gs/Qk2/KvEFNHUtvp4g3XSWascgbgDLBGNUH8e6mTOY62xxdU9I6hdKwSLkIqBveJnJnDyhC5PsLcCn4wPsJOrl/J2n3bmfbgvv6Ai5eEgHfoZ04OcfxI5DlhvbXX0D8zjuAE+H6QggSrXrfgDbBdGW7c77/FPvifVHg5x6A3hKjxm88LYIQVK1pL3fAcArxlaX72BeZ0vwmRkTeBqJ9sl0NvhysybwFJMoAP9DaLM5/wVgBdBOtb8FvKldqL0/vvLtq+1BURk2+Ad+ewDMAV8CVgZ/f9sRQldud+4nK0zxo6brY+O7Q5ZKUnt0ABj4+82/sO+SM+Cdz+fqG3W7FYrUD8DVKLvM7UHw79kmQbQtcm6es6uCtKvzAOYDaAn+M1kPPvOgrXHYCb4UsA3BU4NMANYLYvSfzo2v71eKjlaUrsR81zf7/l/vu3awz2kpV858jzl5QqYuqmUXVRqWGfx7LILXdMB3nRYIXo+hB3BUMEYddqz/xwrmzA+1u+Z34F93g++9VEXJ56amGymSWiIE34VcagRz41bWflNXME9x19q7iN6tFB9b7MqZH6BN66VFH9NRNKdMjGOSPRU8daAtgK4A4qHqIFsFLvAf6gcBHAKwV9CbNnnPbNvu/vOzUKfoSQQYWqYNNXW7YwmTChvW5nUEYwNIB3562XP41+dr8zqEEEKIGs2A1FOCqaHB2v+5zszjaIPKPRFQADRlnuIaWQu8XEzW6azNW1nTM1Ph36ioKgToDA7Ffnira9tCVw2cr1boYzqI5pTHujHJ3g/AFeCrrsQzSbtUfY0wQ1PsyGQ39I26MWt65gEA/xP0pl+8Z7Ytd//5Wa0M4FJnaNG3tSnu7njfqiydAbRH8CfWbgBdmVRIhZSEEELqJQpA6i8rgCcAPBjpgZTDCN6ldmgNnnMPgGtR9RVdapw+poPFnPJYOpPsAwD0AnA5k+wBl8MMIwFAJwBjmeweq2/UzWlNz1wu6E0fek9vXeHO+5wKBSvJ0KJPU1Pc8CG+WaxW4H0XOgF8uVJCCCGEXGCwpmd2ADAmssMIiQxZ+s2x7uVAq17UGMFgMVjTMgYx2X05aj+XUIAguJnbvty5cXb1l1UhEaeztRcsqZM6Mcn+fwCuApBeBwKOYCwAhjLZPVTfOO5k1IBX/uE9vXWhO+/zOjuTFGmGFn3amOKG/x+T7FcCuBJAUwo0CCGEkNAYAHQAkBHhcYTCA56aUKsBCPjX5DoAj9XydUoUgxfbUQBykdLZ2lssqZMGMMl+O4DrmWRvE+kxVUNzJrvn6BvHTY0a8Mp07+mtC9x5n0d6TBFnaN4bpu4jejDJfieAOwF0o4CDEEIIqRpKwSKkCnS2dg0tqY8P8810/I1Jdn2kx1TDmjHZPd/QNGkUgEfceZ9vjvSAIsHQvHeUqfuIW5lkn8gke2/Qwh2EEEJItVEAQkgl6Wzt+ltSH8++FJ6AM9mdZmia9DPAnnHnfbEo0uMJF0PzXu1N3Uc+wiT7sIt8RosQQgipcygAIaTyLql/N0x2N9U37r4wasArPbyncya7876I9JBqjaF5r6am7iOnMsn+CJPsl9T3mRBCCAkX+gVLCAmFgcnuRw1NkwGg3gUhhua9zKbuI+9lkj2DSfbmkR4PIQQwdR/RUt+kx22QpZIGrDpBtDFXzvxFcsGecjsEEkLqPgpACCGhMgAYAWAHgHqRjmVolgpT/KjLmWR/g0n2vpEeDyGkjOEApqFsr6hHUIlu34SQukkX6QEQQi4eTHY3MzRNfsoUN2xApMdSXYZmqaIpftTTTLKvBkDBByF1iKn7CBia9LwRslQafAii7RFXzvyFcsEebyTHRgipPgpACCGVwmR3N0PT5EmmuGGRHkqVGZqldjTFj/qaSfZXQCtbEVIXjQXQo+Qvgmhb6MqZ/yUFH4TUD5SCRQipiisA3IeLLBXLl3L1NybZ5zLJnhDp8RBC/PlmP25nsrsJUBp8PC8X7DkT6bERQmoGBSCEkErzpWLdA8Y+d+/60hnp8YTC0CwFpvhRw5hkXwTe/Z0QUje1BPAdgC2CaNvnypn/DQUfhNQvFIAQQqqqO4BhABZHeiDB8ODjnrso+CCk7nP/+c/jbmBepMdBCKk9FIAQQqqEye5mhmaptwJY7N71ZaSHUy5V8LEYFHxcssSO111mbDeoI/MUe4LsqhNEm+TO+/xP74n1+SGfv/NNrY2tr+zEvA4DAFaFIeoE0eZ2536c6z215VzI1+1yW3djy36tmddZrdoIQbSZXNs/2Czn7zwNAKZud7YzNOvVgckuPUJ7P0ZBtO11bXvvkHz2T6Wq4zB1HyEamvTsyWR3DICS8xgE0XbSlTN/j1ywx1Wl88aP1usbxw2CIqUD6A2gge8lJ4A8QbRtd21561v5/MGzVR17ZZh7PmjQxXS4Doq3O4ArwVf6UgCYAGwUxOjNzo2zv1WKjp2v0vmTxjXWRbe+AYrcH0AXACJ43e8xAEcFscFS5/pX/1AcJ901844AS8pEi2BtmgymmOH/mdELxqgjjnUz9zHX2YCfVUvqJKtgiU0GU0yBj7f+5Vj70j7mPi8HHUvvJ7oIpphbwFgXAJ0A6MHf/1EAOwSD5T+OtTPymFQY0mfV0ufJdMEYLfqGJQgGc6Ej+8Uc5imu8N+dpe8zDQSDNQVg+pL3Ab241Zmdmc+8Lmbp+2wbwWDpBLDq1mQL0BkPO7Kn74csMWv/523QGZNRvVpvAYJ+qyNr2lmw8r9M1rSMJAi6WwAkAWikeikHwGFA+I8jK+OA9ltKAQghpDrag//Q2RrpgQRCwQdRmQBgUig7MskOsdMNEDvdcBbAd4Jom+fO+2yT98SGig67BcAsAFHVGGM++Kzi/ypxzFQAI6txTbU7AfzL9//DAbwAwBrqwUyyw7c4xTZBtH3j2rbwPfls3vFKjiENwAcALtNs3w3gDgDbKnMyU/xo6GPj7oUszYQitShnt8FMssOUcO9cQbS949ry1qvy+YMhB5+VYe75YANdTIeJULxToHgblbNbGpMKYU58aBGATwQx+iXnxtl7lKJjwc+fNM6qi249F4o8AopsLm8/JhVNNiePzxPEBjOc62d9ozhOVSmw02gL/vlpXc7ry8GXcj9dzutXAPgngCblvP4egCcB2MsbgKX3EzcKppiXwFhPsPJv6pnX+bKl95QtgsHyomPtjKVMKgz2YOIbAKU9opjXBWvatL87sl9cwTzFFQVEXQAsBRCt2nYLgB8ByOD/5maCB57V9RqA5wB4AMQD+KUGzjsY/Pvm9xDCmpYxAILuI/AAL5CB/D/sDWv69CWAkOnImnag5EVaBYsQUh3twJ/e1VWDwFM5KPggVdEYwL1Msm80xQ1/ztCijxjpAV0kEplkn25OfGipvnFcj+C7lzEC/sEHmGTvak4eH6dv2CXkE/mCjwWQpfcAlBd8qFmZZH/KnPLYUn1MB78xVJe554OJupgOq6B4X0bZJ8XlEQDcw6TC3XxcbnwAACAASURBVJbeU8bpGrQqN6AAAHPSuCa66NaroMj3A6hwX584JhX909L36ed11mbRwXevtgGoOKC9Isjr5bL0fkJnvfzFBYJo+zcYS0Jo97cpzOv81tJ7ytdRV77aThAr/SX4AGV71FwyrGkZIyHoVqL84ENrNMC2WNMzk0s2UABCCKmOhgBSIz2IQAzNUhJN8fe8zCR7bKTHQi5+TLK/ZIob/oKhRR9jpMdysWCSPcWc+NB8feO4rqHsb+o+IsrQpGcCk8vNCroZvEA9VE+Dz+RUKtuDSfZ+5pTHXtXZ2reqzHEVMfd8MF0X0+E7KN4q/bxkUuF8S+8pL+oatIoJeP6kh6GLbv0xFLlX5c9d9Jyl79PDddZmNfEUvvzreIrN1n5TOwvmxuUtfT4AVXhYZOk1GYIp5kcw9iCq9sT/JuZ1rrb2f6GzYGwQfG8f5nW1t6ZNmywYrKEEe/WGNS2jBwTdYlQ+hogBsMKantkQoBQsQuqqcwDW48IPUwaew9oWQMdIDUqLyS4YmqW2B2CpS6thGZqltDTF3/MMdTcnQewFcABASVAhg896dEWAVCom2Z83xQ0vBvBKkHSsEkcB7AfgRfB+M0bwFKyQ6z98/gSwCUChZrsbQAqAZprtueB1ANrf/01RfmpMiUO+PzLKvh+v7zpdoXnyziT7AHPiQ9e4ti3cLZ/NC3J6jPCdozw3A3gbQNC0LlP86Fb62Lhh6kaGPh7wn61/gKfyxAK4EXzWpfQ9Mcl+qyV10kLn5jnHFPuhYJerkLnnA410MR1eg+LtEOBlCcBaANng38OmAIYC6ADNZ4ZJhU9aek/Z6tzw2pdK8XFt7cFwAH20xwA4A+B38M+JE/x93oayKUEAT236Gfz7W5sGAFgHoFi90ZI6ySJYYjuDKVXpy/QyeLqPPsBruwH8Cv7ZdgO4HkB/+H/+2wGYA/4ZLDfFS4t5Xc9Z06YtdmS/uJ95HZUfOfAXgFXgNTplTu0bU0eUvdH/C/xnlrYoQw/+s6aiei07eF1GqDVaegT+efQmAn+ttwJYCaDA9/eh4D+D1BqCp8JON/h2LPBtJISEjwL+i3QtgFXQiXvls3lH3LlLtld0kL7hZVHm5Am9mGS/CsA9CJCuEGbR4E8l90d4HABK6z6GMcl+d6THQuouQYyGe9eXb3uPr5urfU3sdAOMbQf+nXkcrwPoqXl5NPgNXVbwa9i+cf/56bPek5uKg+1bVdKer2dKe76eGeg1sevt/zS26DOceV0l44Frx4cz5DM7vqjKtQTR9k/X9vdflvNzA95pmeKGtTA0TV7CZPe1mpduBL+5PRDgMLWrUX7+P5hkjzInj09w5cxfKxfsCTbca+CfdnVeEG23urbMXSGfvzAUU8K9k/WNurwPxTMGZW9Mh4AHK5UNCrVeBRDoYcgXghg9zbnx9T1K0VH19knmxLFDdLb270PxamdhXgL/nbFPs/06aO7jBDH6d+eGV4crxSfKnNycPP4pXVSrZWAXZkuYVNTZ0vfpeOf6WYcUx6lKvr0KnQf/HVFyE305gPnQBCDwn/3QHheQpdfkNMHcaCyYop05OSgYrE861r74naa+Y6al95SGgsn2LzB2NVQ30szrvNGa9sJgR/aMb5mnKNRFHQQAH4LfbGsfAgTlXP+Pf+FC3VUZln5TnxD0ppehntXRGb9yZE+fClmSKnst6Ay5jqzp10LxVHnhAWtaRgMIuoHQBrqC8IAja/oiMEUdAE23pk8fDQiLNfuPBjBd58jKyHFkZTQCj7L+D8Bb4NEYIaRmeQBsATAbOvEG+fyBJo6sjDaOrIzbHVkZbzvWPLssWPABAHLB3uLilY//7sjKmOHO/aSbINquB3+6FSklT4zrikHghXh1VT6ANeBP5VYjhKe5JLyk/UtRvOrJ5d4T668SjNal6teYZI8zxQ3/u6FFn0gNr85y531xwns65yVBb9qteakXVAW8gZi6j+hiaNKzuyb96hj8b1RHAugcwnDiwFM+Sgmibb5ry9yN6uADANw7F0M+t+dB6IybNOfoC/7zrcrMPR9I08V0ugaKt8wTd0GMfsO1/f1xxSsna4MPAIBr23s/KfbDd0Fn+Eu9nUmFHSx9nrxLF9VSO0OXAP+n+i+Az8KVPXfO/NNK8bEnIOi1Ve2Xw39mpLrWoOz3sLw6EG39x2rwGZtgZoHPYqkdEQzWwY61M/4dqLjcuXF2AXPbr4Ug/Ao+m6c2G5Ws62Cye6A1bdrfBYP1UsgqSoZ/8LHdkTV9sSb4AAA4sqYvAdhHKDsz08GantnBcGGnjIMADgL41ndGWNMzUwCWDL7KTTKAq2ryXZBaJYNPPa4FEOrqFgw8DaAzKpdnWxUKgBMAduJC+kN1GMA/vzWxkkdNYQAOA1gGnfF7+dyete6di6v7JK0MuWCvUrzy8Z/1DbtsNCePn8Yk+6M1ef4QNUDtf15CYmia3MEUf8/EOlL34QZPq/iPYLRu9RxekScd+OlEKAcaWqYNNXW7YwmTCmlmOoKk/UvPAVhkbDswiXkcbVQv3QTgBwCbIzOyOm0XgKosZVuSdqT2LvjXWh3tDQRfZUk7AxAKG8r5fePeuRimhHs36xt16QfFkw8+W3MYoaerlOda8LSqUoIYneXc9MbbSuGRgnKOAQC4ti1cY0586G2drd1zULzqYOpOAJ/BPzjTClgv4rMKPPulFfi9wnnf+aqSAlWRP8CXPY4GLtSBONbNPMxcZ9U3pdoZkDXgqVLlripn6TW5lWBu1EWbtiUYrMMca2fsYVL5mVTOjbOZpfeUOwSTbS8YK/3+MK+rnTXthd6O7Bm/Mk9R0OV+VT4Av3eq0d/xF4mGqPhz8x2AMb7/X1lyTAXRGoMja9oW8Ce2nKATrOnTk8FYSTAyEHwZTlLHMHdBcfGqJ2eDR/MhE8yNG1r7TX2deYrvq6Wh+S6k9yjFx7535cwfV6vXCT8G4AB0xi+Vgr3fuHYs2hiOi8oFe864cuZPNieP388k+5vhuKZKnQhADE2TYUoYfQ2T7DdFeCgHBaP1Nc9fKz+T9i+t8AaDXBR+BM+vVwcgPcFvlikA8RcN/3z2Cpm6D4ehSc/Bvt4fAHi6mHPDK0uNba46o2+W0q2kloNJdpiTx9/kypmXIxfsrShXPw/8prr0ppZJ9gnmlIke15a5L8nnD/gts+veuXg8gPGVGXsIrsWFniMl3gR/YBaKN8BTbdXBRBL4zIz6HDsBJEI1C8KkwoWWPk/FOtfP+kJxnCzzcM6VMx/gsya1bQeAUyg7A1amDqSc+o/fwZfOrshN0AQogsG6zLF2Ri6T7EF71zg3zrZbek9ZLJhsE8GYunZpKHjgFHLqJJPdjaxp06Y7sl98hnkddaYeshbkQFtnwlhba1rGtxCESY6s6fu1PUMcWdO/Q4BUuspVsDOFOf6YtsWRlbHYkZ15HwThk0oPnZD6pyTomKbYD7VyZGV0dqyZOjVcwUcJuWCP15Uz/1NBtC0M53XrkN4AHo/g9U8JButj3hPruxSvenI+BR/1g7R/qeT5a+UJwVAma0REkJSiS9gwAN012zYBOFnBManw7x2xGTxdcTV4Kpba1Qj+0GO97/gymGSfZEoYs8+anvmvqIFvDtPHdKy15WfNPR9oq4vp1AjKhSwgQYxWnJve2KsUHgnpHK5tC2XFfngTdIbSmgQmFcLS58l0XVRL9YpPWfCvQWjJpMLF5uTxu6zpmTOjBr5+pc7avFZXugpAhH861RCUDcpuVP9dMFrhWPdyDnOddUOo8Db1CvgvN7walcuE+CHA/gMQPIh+G/xzWXozzmT3RGvatHjBYK3pWaQ6w5GdWQSmbIF/sftNYGyfNS3jO2t65n3W9Bc7BptMuxTy1QipLfuhM36lFOz9OtzBRnl8MyHvm5PHD2WSPeKzEuHim/34G5Ps4Xii50cwWJd7jqx6TNr/YyRrcUjtOQC+0pMBKGm4N7wZAFS0GhaT7I+KnYc+KnYeGvQCgmjLd+d+PMx7aktlmhCGFZPs7U3d7hoAwIGyq+C4wRuf3QpgIJPd2oLgH1FxAfrd8K8j+14QY065d311yKQXt+ljE+IgSyXj6GVOnhDnypm3Sy7YG/CE7twlu0zxo7/Tx8Z1gixpxxMD4HYm2W83JYwBeNrY94Jo+8q15a2t8vmDwZrShaoN/G+QcwEUVfI8f4F/jdX3bG3Bi5NLimbeBa+PuTzA8e0APMukomfNyePd4MHZ94LY4Cvn+ll/KY5ToXS6ryoj+GzCXbgwG9UXZes9rkDZ9Ku14AFLsBv59vC/j90GvrJYqA6B/9vWnjfQKk9qEoAZ4M3/1MHUB+AZQiGvpBU2ire/tf/zoQdngn6wIytjOZis/XxMBk+lCvQ1Gsr/MFjTpx/i+wnfObIyvtXGLNQHhJBKEnTG/UrhoTt8Mx3P1pXgQyUXwIJIDyLMeoOnKYSdYLB+4jmyaigFH/VaMfyfkjaHf2pNfTcCfDWr3wGsUP3JAr/xugHalBjRttq1beGv5S3By9OvEnsx2W1QHQPX1gWr5HO7S56a/wa+nKzaYPgXH2s9j9AW1ekG4Ekm2TeYEu7Nixr45gP6mA7V6Whfoi38+1pUJQDJhX86UEkAAgBwbX0XSuHRR6DTB1tG1wT+hP81JhUdMidPWB418PV+OmuzYDfcVVUyA1K6chrzFMPab2qyYG5Ucs0BKBuorfH9N5QApHQfwWCFY+2MrUyyh1y74dw4+y/mtnsglLlUDIIEIILBLDqyX3yXeYqyAaE054jJ7mRr2rQHBIO13jYtdWRnrgFT3kTFS/4C/PszGmDfWNOnF1jTMzNLeoAAFIAQUmlywb5jzk1z/h3pcZRHLtjjdOXMXy6Itlpb+rMuieTshy/4GCvt/7EuLX5ASJ0giLYtrm0Lx8tn87SrYqkNAw8A1FYBUOcorYB/GtYtCFKD6s5dwuT8vOuhF19DaCsqAUAnJtnfN6c89h+drX27EI+pE1xbF+QohUf7Qqf/FcFvDktcw6SitZa+T0+rjW7ogjHK4Fw38y/FeeakJp1qADzFoiVlYnPBEttMUzewuuTwmh5PDTMBeACa2Q4mu1+zpk1rw99vbU4uRY4jO/NJMGU0Ql9wIgbANACl3dApACGkfjoE4PtIDyJMeoIvIR5WgsH6jefIqgco+CDEz05BtI11bVs4UD6btyPIvgPBV2JS+x6qAmt37qe75fydedBfeKjMJHtLc/KEJH3DitsguXOXwLH62afkgv2J0ImZCN6sreT8gyypkzJ1tvbaRo51mmvrglOONc8PUopPXAed/gOE2JuCSUXTLH2fvqEWZ0K0tRmXg6dPXQ5VOpZgjIJj7cs5kCVA0NXpAEQwmPXODa8dZt7iNwFB/d504Dfb9XYWBAAc2ZmfgCmdADwGXrMVSrTVAcC31vTMilbBIoRcxArA85rrNd/sR18m2fuF87qCwbrZc2TVTGn/j5VvBkUuGYJoe7u2GxGGWUkndAd4b4+m2h0E0TbbtW3hy/LZvKCLMJi6D29haJKYou794Uu/2iyf263Ny/8NwN9QtlHhNQCWgS/pXiF37pK9AKYDmG5KGBOnb9TtGijSVeCpXAH7PjDJPsaSOukn5+Y5/yrphm7ucd9tuoaXzYXi0QZN6vfwlyM7M50FbvgWjcrX39oqe4xr64JfAPxiThr3iK5B6/5g8kDw4v3+UDe2K+tt8PqQ0qay5pRH3tNZW4wGk8u9mRaMDT5yrHnuEcZkuYKI4Q/wBnQlqVZ9cSEAUaeprUPos1VlMK8D1v4vNHSsnXGkoiV41Sy9p0Aw2XRg1ZqpeAn8vXUqHYvsHm1Ny/gawIk6MwuiM6x1ZE0fWJ1GhFqO7MzzAOYCmGtNy2jva1JYskpux3IO6wAggwIQQuohuWCP07V1wUZz0jiE+oP4ItUS/KYkbASDtdhzZNUH0v4ftU3LSP3VEf71HvtR+Vz+i5q2E7opbtgAQ9Pk95nsLk2hYpJ9ijnxoXjXtoWPyGfzgnU+vwmamxQm2SVT9xGzwZfQLcnS8AJoDlnSfg9GgBdfh9Rfp4R750d54Mv0zgMAU8K9yfpGXR6D4rkd/t/nIeApYZVtDy6CF1OfQ9mO7AkBrhFMAvz7YWQhhEJn19YFbvDxrwKQaU4eb9RFtboaTM4E769yoRO4VNTE0vfpvr5u6JXpgRGMDhfqQBoDvA7E0u+5BACDwBRt/UeoAcjv4MXt6t4uieAP30JdSKAn/HvDVKqQ3bl+lmLp+/T9giHqe4Cp09heB/Ag6kwEUrsc2ZmHACzx/YE1fXp7QBgDPkPSSLP7GApACKm/6stT14p0B3+CGU7LAXwY5muSCBE73QBj24GxzFNaQwtBtMGd91l+RStgXQrceV+sBvBggCBkiDnxoVdc2xZOls/m+bf5vmAg/GdRRPDZlaB4T5AJqa6ceWvlgr1lZkxM8aM76mPjWkKW2gmirYkr551v5IJ92joS/j52Ls4BcK8p4d49+kZdnoHiUd9E9gW/eapsAGIAX3q4TIomkwrbWXpNbufc9EZeKEvxmhMfgs7WbgAUr3bWomRlLL5f0sO9ddFtLFDkJEGMPurc8OovSvEJv98Brpz5HgC/mJPH/6KLarUMTB6MsrUWl4MvNFBzy4gbowyuLW+fsqQ+dlKwNGmjqvd4GP7NJysTgBwGD07VAcSNAJaCB7ChuBH+K5Udgn+H9Ao5189aaen79HLBEDUUYCX31l0AZMJ/IYKLljUtIwaCLtn316shCB8H6v0BAI6s6YcAZFrTp/8HELag7OesIdWAEFJ/FaOSTwYvJr70q97h7HouGKxHPUd//4xSry4p3QDEabYdAb9JueS5875Y7T2ds0DQm8rcsDLJfqc58aHh+sZxAR90mroPTzU0SUxSp19V0SjwDtQXzh0/+ml9bFwOZOkPAJ+DpxbFh3CuJfBvEFhu9/SKCGK03r1zCZTz+/dA53f4YPDu0aG4AprVvgQxWnZueG2vUnwcAGBOeniFLrrtBijy7+Dv9XUE6VPjypkPpfjYZxD02iLioCtAVYO2DmQEVOlvgjGK9/9wF4R686/tLwLwWTVrgH3LMxT+AcJqqIK7SngQPDBUuwpV+PzURda0jB4QdGfAl+BdCSADwL0IUk/uyJq+FWArtdspACGEXKxagncEDqfVAP4V5muSyLoa/p+zdbgEaqwq4S3wp+Zar4LfgAUyEGW7y1dVb/gXse+CKj2Jz5Q8cqs+pmPjIOdqg+BPq38HcDt46ufVAf5cA54WVBKg/gLNEsJMKpxs6TU5VRdd8dv3zX68DMXbVvPSMpRdfWgHVDfMTCrsaOnzVIIuqgWCaIPghdKvA/g7Ar/XqwEMAjAL/IFXsHvKP6BajjeAdUFe1/pZuz/zOhpY+7+QIYi2oCt6WXpPmSCYbD3BmLZ05XtUIQBxrp91lnmL3wKEetkJ3ZGduQNM0aaTjUZoq5V10G6gFCxCyMWqEwI33aoVgsFa7Dn6+xpp3w/huiSJMLHTDYONbQc+wTyOC12aefrVN94TGypKLbqkuPO+AIDnDU2TuzDZXZo+xSQ7zIkPTXZtW7hfXQ/i6/1xLZPdMZpTzQS/udYj8E3NWfBC8ltKXvelYV3nypm3SS7YWxJ0/ArgOFQBDpPs480pE7e6tsxdJJ8/oC1whynhXugbdXkcike7rNafUAUzrh2LTgM4XeEXpKxFACagbPE8mFT4laXX5JHOja//Vyk66lcjYE4cC52t3adQvOkBzvmB7/2V+C+A26DqDs+kwkWWPk9d79zw6kal2H8i3Jw8PlYX1eo+MFl7o74DqlkF15Z3diHEYFsQ9MFuRMvUgQRQmfQrODe9AUuvyR8L5kaPgymlgSPzOh6y9n+hwLF2xgwm2QOmIlt6T7lRMNleBmNl+9YYzD84smccZ56qlXc51896y9L36VGCISoV8Ats6oPvwD9r/L0x1taaPn2xI2v6GDDFPw8LgDV9+mOA0EG7nQIQQuowfcPOOnPyI62YZO8L3im4GXgqQRSA1ih/lQkAqO8F6J0RpA9ADdsGfmND6gEmFULsOOQyseOQFPC0kxJu8OD2HgADmcehfUL8NUJrbgcm2duInYcOEDsPLUJov2+Ngmg74M79+ID31JaaLAKude68L/YB+NbQNLk7k92lKTC+epDrXNsWLlA1I7wSqhWDAEAQbcWurQuWyud2Z1V0HVP8yH/rYxP6Q5ZaqjbfDOBTANsBwJ27pNAUP3q5Pjauh7oLOpPsC00JY64WRNtbri1zN8rnD3hNCWMa6Rt17QXFMxWK58oAl1yOytd/lHJt/4CZez7wii6m41woXnVaVCyTCn8yJ45dIojRnzg3vp6lFB11mRPHttPZ2g+G4p0CxavtDg9BjP7CueG1rJL0K58fAeyFKgAB0IRJhb+Zk8a9LogNFjnXv3pEcZxk5uTxHXRRra4Dk6eAyWVS13xWoXKzECFzbn7rZIA6ELU1Vbj2c+BpVD3UG5nX8bSl9xPXApgrGCzLitdMPWlJmWgVzA37g7FHAdwAxgKlRj2B6ncxfwD86xhwdbWIUbw2a//nr0ToBfqAoD/vyJqWo5r5eAvArVCn6TE2iq+AJbzlyJr+bcm+1vTpVwHCaABj4P9AYSUFIERLRujFW6QG6WM66swpE1sxyd4ffHr/CgDdmGSv12uJV4WhaaLVlDA6OcwB1m7wlXNI/fGo709IBNGW58777I1KzH7c6vtTGXPAO3hfjItIvAwgFf59eTIAbAFfFQoIsPoVNL0/KvA9+PdM9bTf3s2cPKGbK2fedrlgb8nmeeArWCVrjh/GJPswU8KYC1uUwPdjgmg74tw8Z5liP1StXj+u7R98Ze754GBdTId7oHjV910CgDFMKhxjThyrGo/fBI1vPNEHnRtnT1OKj5eZgXFtfRfmpIff1UW36Q5FVs+0RAOYzqSi6ebk8Re2ssCxrSA2+MS5ftZexVHleCsUq8FX9SpT+F1a/+E6V7nibz4LMlYwN/wBjGnrAVMALGZeJ6z9X+BbKlhuVzBYhjmyXzxQ1dmP0jGtn5Vj6fv0B4Ih6hGA1aXf3/HgKYGVkQX+wEAGeBd0a1rGCgi6a1A2qLgSjF1pTcsI9byZVANCtNzgT3pJGOhjOlqiBr452JqeOd+UMGYHk+x/gdcYjANfHrAu/fCqS9ogjPUfgsGa7zn6+0pKv7qk/QlgIvgvZBKAO+8LeE/nfCDoTQfV25lkb25OfOgBXVSrhmLX20RDk8T+THZrH4AG6nbuf43cT4vk/J071U0JfW6Barlbd+6SY3J+Xib0YvClpsr3AHhKUk24H8Bn4Ks2VcUB8NqTPYFedG199zOl8OhX0OmrVNUviA32OdfPekFxnMqv4vhCVV4dSGXrP0o5N72RzdznR0EQzlVxTB7BYHnSsXbGd8xTVNXvj9aTCOHzfJG6FUB1PieZjqyMlRSAEBJm+pgO5qiBbw6xpmd+bUoYc5xJ9p/BA47ukR7bRaQ1wluAfhg1dyNCLi4eQbQtkvb/eF3xyseXX+pL7wbjzvtimff01n8JelOZGzkm2e83Jz3U19Ak8QYmu8vMfvjSr3bK53aHeplPoWqW53MzNCmZ7twl/5Hz826HXtxYybdxSBBtQ5yb5ywvaUBYXa7t78Ox5rnRSuGRkdAZTlbmWEGM/sK1bWH/4pWTNylF5d/TurYumKAUHn0cOn1lb8S/BXA9wrOyW0kdiFal6j+0nBtfX8bc51MgCMtRuSDvoGCwXOdYO+NNJhVWa6arzHjWz1KY1zEZEC7GmcwKObIzi3wd0H9F5XqcnAfwuCMrYzpANSCEhI0+pkMTc8pjk5hkv59J9qDLk5AKNYFmacpadgi+/HJy0doLIAfB+xvowYud/xJE2yp33ue/eE+sDyXX7yj4CknRqPpT7oa+cdZU/cefADbiQsPEpgi9nuEw+M2i1TeehuBP4UMZ2zvgvTMScGE1oSjwdCgbgJ0A9gFQfNt/9f09VH+Ar4CUUnJ+JtljzckTolw586BKw4I7d8k6U/zoPvrYuOGQpTHgqa2BVrryANgiiLZ/ura89bF8/mDN9cFQcW1//0tzzwd/1sV0uAOKdxj4QhraPhQA//ovE8ToD5wbZ+coRcdC+ky5ti5YYE4a909ddOspUORbwZeQDnSvdwbAOkFsMNe5ftZKxXGqJpYWdwDIBl8CWAb/t3Ac/PsMoLQOZJVgadIOTCn5LDUAr7XRBiBrwZe1lcG/RrtRwb8t58bXDwG41tL7iYGCKeZeMDYYvG5SW3/gAJAtGCwfO9bO+JJJhaHMGmWBF88z8MyEoP9Onetf+dbS95lFgsHaQ1WQbgb/2ody4/4X+M+UkloVA/i/k1COtWuOrQoB5fzec2RnFgIYZE3LuBKC7jHwFdG0zQZLbAXwHSB85MiaVroYRdUr9AWdzpo+PROMPV/lc1SOB7L0vGPdy6/W5kUEg8VsTct4hcnux2rzOhcuKBQzt/0p58bZ88NyvSAEc2PR2m/qcOYpXly7F9K7leJji10588fV6nUiTB/TAeaUx7ozyT4NwLBIj6c2CHqzw3tq88vuXV/ODMf1DE0TYUq492Em2ReE43qCwQrP0d8XSvt+eDgc1wMAQ8u0oaZudyxhUmGovQKqRDA2gHTgp5c9h38N189xQiLOlDAmSd+oWxMokgxe+L/LteWtI/L5gwEro2ubOXFsL52tfQwUryKI0SZfQXphjZw7aZxZ16B1MphsAcAEsYHoXP/qH4rjZL17Mh+IpfeUVoLJ1hmM6QHoBIPliGPtjH1MKryoFnm4GPBCdJ1qdlMocGRl5JQXL9EMCCG1QGdrD0vqpO5Msk9jkr1eBh4RZAWgXSqzNhWDZj8IqTfcOz/aGukxqLm2vbep1s69dYELF4r/LznOjbOPof7WYtQpjuzMQ6hEGh8FEoG+IAAAIABJREFUIITUMJ2tfWNL6qSpTLI/EemxhIkVZZd/rG1NEd4A5CT8880JIYQQUkUUgBBSQ3S29qIlddLNTLLPYpK9wv4c9VA4AxATeM5wuJxH5RqPEUIIIaQCFIAQUgN0tvbNLKmTZjHJPibSY7kENAFvQhguNANCCCGE1CAKQAipBp2tHSypj/dhkn0xk+wJkR7PJSLcMyAuXJxN4QghhJA6ifqAEFJFOls7oyX18buZZF8GvtwkqWd8K2CdlPb9UKXmXoQQQgjxRzMghFSBztbOYEl9fCST7IsiPZZLUBPfH0IIIYRchGgGhJBK8gUfoyj4iBhTmK8XifQrC3iDNkIIIaTeoQCEkEqg4OOS4wUvQg+3lqheB1tCCCGkzqIAhJAQ+QrOBzDJ/kGkx0LCxgCgU1gv2DINpm53WJlUI42QCSGEkDqHakAICV08gCWoe4H7WQDrADQC0AVAbGSHQ6qpAYAOkR4EIYQQUlsoACEkBLroti0tqY9nMsneNoLDYAAOAlgJYBP04io5P3e3O/cTqWQHfcMuBnPy+HQm2V8AMCgyw6w/mNcBY+srzQAg7fshXJdtCQpACCGE1GMUgPgzAEiM9CBI3aGLbmuw9Jp8A5Pst0fg8vkA/g29+Lucn/u7O/eTIxXtLBfs8RavfPx3fcMu95iTx7/OJPvdYRpnfdYcQGPwmaZwaAmgfZiuRQghhIQdBSD+BAANIz2ISGGus5Jj3cw11n5TwTzUe82nC4BpYb5mLvTii3J+3pfu3CWVPlgu2HPctXXBO+akcUOZZKfVlKrHBL4iVbgCkI4AuobpWoQQQkjYUQDizwggJdKDIHWDLrptQ0uvyQ+GMfXqBPTiVDk/b3FVAg+NowBWALix+sO6pDUHL0T/q7Yv5CtA70oF6KQ+M3UfHmtoktiOye4BAJoCkMED/a2CaPvDtXXBUfncbiWyo6w55p4PdNLFdLwMijcFF5bXdgpidJ5z4+vLlaKjRZEcX11hSZ1kFSyxPcCUXgCagT8QNgDIFYzWzY61L+1h7vNyZEdJagoFICqCwaKzpmUkMZmaHpNSHQFMCsuVdOIe+WzeCHfukg1huR4JVXPwz8GqMFyrC4A+YbjOJUfseN2bxnaDJlVnZlcQbavdeZ+N857YsLPa47ns5ruMrS5/g3mdrTTX+Nyd+/ET3lNbjod0ni63DTK27DefeZ1dVOf41b1j0Tjvme17gh1v6npHU0OL3v9mXteVlX8XZQmi7ZRr23u3yGf/zA54rbi7+xqaJj3NZPf1THZbAu3DJDtM3UfsEETbW66tC76Uz+2ukWjcFD96ub5x3CAoUvCdATeAPADbBdH2uXPznN8U+yFXZa5n7vmAoIvpNBKK51EAKVC8fvdbTCqEOXGsF8AqQYye7tz4erZSdLTCG2xz4kNzdbZ2Y6F4S/shCWL0o84Nr72vFB8v9+bFnDx+lC6q1RtgcpMLxzX41Ll+1iTFcSr/wn4T7tFFtXwDTK7MYiYnwOsT/xSMUZ841v9jDXPme0I92JI6KVGwxD4CpowEUwJ/LjwOWHpN3i8YrQsca1+az9znHZUYH6mD6tpqPpFmBHBVpAdB6gZddNsGll6Tb2aSXaj9i4l75HO7RlLwEZLTACp1M1BNsQjfUrypoJ9B9Z542c0wtrr8am3w4ZMO4LJwj6k2meLu1kcNeGWevnHcGia7/w+80WZFejDJ/r6p+4i8qIFvDtQ37BJk9xpnApAEYCST7EvNPe7bGDXwzT46W2ilWeaeD7TXxXTKhuL5GPyBQkUPew0ArmFS4WpL7ye+1zVo3braow+/FgD6A7iXeYp/s/Z99ifBEtss2EGW1Ek66+UzXhLMjbLAlAcR/HPRiXkcr1l6TT4WddVr1wmmGH1NDJ5EBgUgZRkBVPspEKk3WgKo/cJznXhQPrdrnHvnR+tr/Vr1gwQgbCkLvpWwuoidb6rV6xhaphlM3e5IY1KhWKsXInVBPIDkQC8wyd7eFH/P5YZm9SMT2BR3dwND06Tvmewej8o312zFJPsKc/L4CfqGXSKZsZHAJPsvltRJVwYLQsw9H0jTxXRaAcXTr7IXYVLhEHPi2G1RA9/or2twMcYhHPMUD7L2ffafFQUhltTHIFhi/wOmPIMLaWmhimEexzJr/+efFkwxwYIWUkdRAOIjGCywpmU0Y7L76kiPhUSeLrotLL0md2aSPaF2LyS65HO7vnDv/OjXWjh7awD0ea4Z7QHE1fI10gFcX8vXIHXDIAA9Kng9HfVgKWZT3N0wNE2aw2T3kHJ2kQBsBvALgO0oZ2aTSfZ3zMnjB0dgJkStIZPs31UUhJh73B+ji+m0EIqnYznnOAUgC/z9HgEQqM6lMYD3EOYGqDXNF4TcKFhiy3ug8iaAvwMobxZjLYDfAKwH/5wEuIbjZWv/56+hmZCLE9WAXGACcE+kB0HqjIYArg3DdXYBeKemT6pv2AXmpHEJ9XQFrKMAtgK4JozX7AqeYpBXGyf3FZ8PZlIhrX4VJoIYDfeuLx/zHl83N5zXFTsPhbHV5QOY11nRv81rASSA59XXKvfuf5127/5XwLQ/U7c7mxqa9fqGya4rSrYJou2Ua/v7/yfn5/4RwuknIfAs8iFBtL3q2vruJ/K5XaU1HqbuI5oYmvR8jMnuCeCNVdUyAezH/7d35vFNVWkf/52b5Ca5bUPBAsoyiAUZKIUWZCuIoLy4jIPOiAvogCsiDi+LjIKo2BEsOAIuI4OOMG4M4+jM6zjouIxSRQstdANa9n0RWmohbXKTm9x73j9OW9MkpSlNchN6vp9P/ujNvec8WZp7nvM8z+8BdoUwb7MQ0QZX8SvXqecOfe173Jx23yWG9r2vhOZ5CMAdaLw7nwxgFoD9AE76Xmfp/wCE5NQ10DzpQabbRMSkJ+XCFZu1muMNNR6W9IcyhXaXZ0PzXg+gYaFOlZp061WPPSJve3GxVnvyXOtfbesgpsR35IKlczS5MkAJ0JI5UxSkzmNB1VfBath8mQ7gPwAa1TNZB82aSKwpU0A1i9/51cSU8IJzy+JXqPtsQ42HdfCcFGLpcAeolgPA5nfN38B+n0+CE1fwCMhPWADM1NsITszQHmzBGTkEEWr1nu3usrdORGD0VAB3R2DcNgn1Oi8xdR09JoJpWOMBTI3U4JyY4ioELtRqwQqfAQBUsZvN/aYMN3bKjNtNQvPPJ3U2dhx4J1Xd7XyPE9FW7N711184cues8nU+AMC9a90Zx6b5T6vVe+cTg/mM73NUsQ+ui4JE9D1xl/2lyvndk5udeYvu1+xHpkIwNVrYUsX+a+ug2emC7Wf+l04Ei1w1goi2la4db05w5M79ztf5AADXjj8Xa/YjEyAY3wfg9bt0Hpj4RUzjKn5VcX7/1OdUrrobRPAXThgCQPI9wFKvUp4E1Tr4nXuSmBJGOfOXLPV1PgBALlx5xvn906uo+9ydIEIjJ4h6nAnS8KdmE9F2MW62XdRwBwQAMVpEacSiOVR1+/9DcNouyYi0A8L6SuSHe1BDcm9YMmaMpIr9Yi1mPg6gRId5r0QE0rCMl41INPe5fSJVauI36ZvTEm4FK3D25SMAhX7HxoPVisQrN4NthDRARNtpV+nq6Wr1nvOqiLl3rXvDe2bHa8Rglv2eugeBzlvEcO1c+w/t7P51EEz+qWF3gckH+3IbWN1gA0S0fSAXrviDVnPsbJNzbH8Dmv3IFAjG73yPU6UG1qvmTRYSu7Rr6tpYQi5+ZSt1VtaABCwr/dOj/gdAN/+TiCnhJmf+knLqqm56jsIVn1FX9ZMggr8y2gwERkY4MU6bd0CI0QLriEWXUdX9lN62tDHMCLJbFENYwTTII4mMyISNBwBYGIFxYwUnmOxjtBkBYHI4BzReNgzmPrdPo0rNQ+EclxObiKkTzKauo9Kpt9G6WgbL+fd3qoeCpWHFK2MQuEh/A6zWIxRWA9jpd2wwgGDKYZHkLQBH/I6Ng89rs/R/oJ2QnNoXWoDy7BvwSz8KRp0T8joE42m/p64Hqwm5mLgJQJLvAWJKWOPMX3L4fM6HD6/D7/NgUZCnBxHRxmtB4og274CA5XeuRdOFUJxIQFUICV0kS8aMlmiNRwUhqbvFOnjucKrY9TalxRiSe6dYMmbMoIr9oq0l8FZuh7vsL0eIGN0Nrzo1rJvF1F9eFcZhbweQE8bxOLFNQPE5EW1fucvfLfWc+D6PGK0N6SVUscPcb8q1xk6ZcbcANf98kmTsOLCHb08tItrg2v76ZrV6j39UIyjuXetOec/sKIHhpxpmqthhyZiRHk1FLNfOteXa2f2nITQS8OqGxo7BcL+/QURbmVy44ohWE3L/0r8D8HdABgCIiwiINfN/xxGpYzJoo7r60wgUFrgaLOXdlw0IUdlQLlwB6qr+GETw/x4FG5cTw8Rtfmk4IEaLaB2xaB5U5Vq9bWmjJAEYCeBjvQ3RCRvCmNJjSO5ttGTMuIcq9ofDNWYMcwZAFViPjqhBvc5MU9fR00Hpg8rBDa0ay3jZsKvNfe5czGV39YEqNRB73jRT7HnTzWheHlYiom2Le/dfV3pPbT3cimnHIVDdaDMAO1ijy3IAo3yeywJLYwoo/o1xuiBQWvU0gJC2uH04CRYh8pVa7QpWVxDNHaLjvn9QxQ7roDk2uWglNPvRepv8F7/laIFcuGv7G5plwDSXYOsBaN66eWpgvWpeB3nbi9BqY7PG2pI5M1WQOg8HVbNBNX/Z3U8BNKRL1dV/dPB1UogpAc78Jdupq7olHc6PIrBm5mdo42vaeCOePiwCJoUZnsGMFpN1xKJHoCrPhmtMTovpDGAaYs8BSUR0cq+TwNIsWk2d8/EwVewrwzFeHFCvhBX1zQPqdU4xdbvmMIDFF+KEsLSrO++iSs1rVKmJu93ti4xeCL3pnxst71fQgJg64WemrqMyfdOviGg76i5/9zv17H6oZ/cfJyapxNQla1T9OVSx9zP3mzIMwFZvRfGFTq0HVyIwdagQgTv8zVEI1njUt+K7D1iNXjQdkBNgO/m+TkY/MJlYF4C+8EsrApORbanDtRmsPsjscywNwPfwESmINtRTO8WS+dumVUJpk77DH9H4PeiDxq8NYEqQIUXFfNhUd43vez4APkpinNgnnlKwjDCI90rDFjbbXbM56iIfT0JVXgqHYZwLhKVhDbBkzIi1jlsmRKOgTVNgaN8nzZx2b6ucEB/nI+xyvjFMJZgUph6YqNf5jKnbNU+JV9zcoguNlw1rZ+5z51Kq1KzDxZfbzTk/1yGw98dmNP4e5yGwZiALfsXNHE6sQ0wJv3IW5GyncpXepnBilHhyQAC2+7D2Qi8mRgukq3O6WIcu+JRHPmIEqnYTEro8b8mYobcl+qApvQ3t+zxjTrv3gi43JPdqi84HwHbVSnWc30S9zueMlw75PGH0HzLFK24+r2CB8dKh7RPGrJgv9rxpD1VqnkD8/fZyWoGYOgGmrqPGUq/snzKYh8ZCFHkADvid82sAgyJpH4cTRj4npoQhzoKcj6lc5Z8mxeE0EE8pWAAgwCDeKGVlfwJVmejMXxJy2I4YzKJ1xKL5UJX5aJxPytEXAqqOExK6vG/JmHGnq2SV3vZEH0253tC+z+vmtHsfdpe9FfJlhuRekiXj0ZlUsS+NnHHNQ1UXDJf0GyplZS8FUE4MliJvReEe956/B0jChAtv5Xag7O1D5rSpLqrY9Sw8HE+9zvHGS4dUGC8d8h+wvO/jYLvaqWApdv0BDKdKTaKOdgaFemph6jb6VlO30VYAZcSU+K1y6NPDnqNftZWFw6sA/oLmC30NYHUYhy9wnr7wk4+tS78q8VYUNRxT9n90BIB/GpbZ3G9KOij9xFuph/o0hxMSa4kp4TlnQc5hHvXghEK8OSAA2zm8CQbxiJSVvRyq8q4zf0nQ6ixiMAvWrGeHQFXuB3A3VCX2GtVQKhIx6Xpp5O8rqdu+Q972YkQ6Lcc4RlD1DkHqnCGNXPyk5jj5L1fJqoAFkJBwaaJ1yONZVKmhYHnb3cCkEH8OIBmCsZ1mP3qNa/vrh1tpjwy/osMIY4SmTDO079PP3G/qJHf52+ed25DcC5aMRzOoYn+RKvZodgM/H90BPAHUOyRpLikrexeAYgClxGAp9lYU7nDv+XuTevgXwEGwHeNYEJHohPhtJJhW96h3SGpM3UYfBvvs8ogpsUQ59EmZ5+jXIRfUxgN1ndD3e3/Ij0ZxxS1gDQgboIpdE3vdcofY65bR+Ole7ATQm3plDxoXxo8H8H9g+fLxwF4wh+1yn2ODwer+DrVgnMEIlPLdAyCcvyOhEKzI/Dh+UnjaBVZs7XvOcADrEYIMrw8jEFgjUQYd6z+Axp3QLZkzewpS5xtA1cVonEZ6P1hdziI0XZ+zB4GvpQ9avil8dZBrtgNQWjgOR0fi0QGppyOApTCIOVJW9kGwH7VvwV5Tz7rHQKiKf2FYrGECMAGUTiBiEqSsbC+AbQBKQEgpdZ8rlLct3xplm1xgxYKdozzvlaDqh4LU2SVlZZeA3YwBVo9xFcBUQc7DvjDZ4UJ0HRCGpowyJF+xQ7o65021avdqd/nbjVIxWLrVo0OoYp9FFfudUbevZVgAZNY96p0SSFnZVWCFm9uJ0bLbe2rbDvfeDy50UXUArDgzFhyQi4kkAOl1jynMKbkGpm7XnACQC2A/MSXuUw5u+MZzbGP0/0/ijLr0q0zqlf3vt5cDeDTEYcaCRVHixQE5CcDhd6wzgPYtHCfY4vQEfro3RItGjfOIaINctPJ4nQJWvU3+crP9wARNQsIyYFp7wdYjsV4Bi82TBHnbiz/GkgKWq/jVQwD+ZMmcuVeQOq8DVRvWCdTjmC0NXdDOWZDzGJWrAgrw5aKXYR0060diTelZr4RFPQ5IwxYOcOYvOdICJax0BBacB1PG4sQw8eyA1EPAUh1SwSQO4x0j2M7JcFAKItogZWWrYCkdxQCKQYRc6qreKReuiNSPsAbgHKLvgNRjQeS7kMcqyVCVeYbkK2bWOdY7wByrYQB6U8UeNiU4nbgErPfF7dTrgiGlP6SU/m5itKz1nNo6X9n7YcjKNt7KEi/KUGROm4p47NkSh3QFcDdQFynpPgam7mNkYkp8QTm4YZnn2MaWKtm0FcaALZguGKrYYU6bOhpl+NJbWeK/sI853LvXOwEcMXYceHV9LxCq2GEZ8PB4V+nqPLV6z7nmxjD3vbu3MSW9b0AvkZJVO9Sz+6K20LT0v7+fkNyrs1+TweNoLI28pe7v7vUHqGJPsw6emyoXrtgXYi+QiQi8524Huxf7cgwsiuAbKbGBrR1aGik5B6Al8rcNuIpf/cqSOfM1Qer8OKja4GhRj+M+aeiC75wFOe9RuSpYRGITWMTVN1o0GUyGulnVMOvguSCW9reAav6Rok0IdAI5MUxrCiEp2G4YJ/IYwHaC7gKwDFTLJ+Z2tVJWdoU08rn3rYPnJuts30WFVnPMJReu2BLtRnd+mMF2PO8A62o+DmGUoY4xzGA3pAuRUCxB7Mk4tyWsYJKrzfXRaMuMA/tfbi3jwzROtMgFU6vzZRpCd8amI7ATfCEaF+1Hg3FgKZa+/Bc+r821c8057eyBXX7NCgFgFvyiJ8GwDJhmFGw9pkDz+osUfI7AHjDHEeho9AfrjXI+shAoFbwTLZfA9eU5APlg68EGqMexRhq6oD+xBm3T1Kg3SN35t0vDFqYTS/vzinnU8Tv4RdKISXI4tzxXRBX7BTlTHH1orQNyOEx2cFoOAUtDGwPW9IkTXmT4/ahyYpLDYGlYHE7MIaZOMJu6jkr37f1RxwcAFgDIDvJYBOAZsLoCX9LAIv3xwgb4KXpRxS5ZBk5/xdC+j79j0Qhz37unGVPSp1DV7Z+l8S9Ecd1RF/2YAc3jnzr2NwQ6V/+AX70HVew3WAfPnSskdW9yk9AyYBoEW4+10LzBov4b0HQExGeemonWIb/rJSRcGnyOjBkQEroMBFX9owZ2tCJtyVX8KjTn6UdADMFSMZ9E8EaxXyJIijP1ONZLwxb2JZams/Ssg+feQCzt54Nq/vW869CCpo+c2ODCU7CoBmfes4elrOzjoFqzHj6HE2fUgikanfdGydEXb2UJUIavzWlTy6hi558VJ9YIKD4nom2Xu/zd5d6KovzzXSj2ulUydcnq66OGBXPa1Akow7feypKWFDbrgnv3+tMA3jd2HNiXqu4GlTGq2DPNfSd/S0Tbc67S1W+q1XsaFo7mvnf3MKakP0FV92+o6m5UP0FE215Xyap/qWf3RTzVz5x235WG9r0nQfP8Fponxc+Of8pFL+3wqf+o50OwLIXbfA9SxT7Hkv7gtURMmi0XrvhWqzne0Abckv7QaMHW4/k658PQeJ6kP8vbXtwZpP5jM5hT4rvuMlGlZpV1yONT5K0v7NAcpxqesAx8BEJCl/dB1SGNx0/0yAUvFGrOilZFDVzFr+6zZM78syB1esLXMaAex23S0AWf+qdi1dWBPE+sKa+Dar5F7F2ox7FDGrbwGeeWxSup+2xDirl18JwOxNLhcVBtJqjmH+mpBfAS/KIqnNintTUg9WlY97TeFE4M4QKrPbhSb0N0pBLAF+AOSDywC/yz4rQQqtRA7HnTy2LPm14O9Roi2uDe/dcZ3lNb/xTiJSMQGKHegtAEM/LAdvsv9zk2EsAVaEZZiSr268QrJ+4Vr5wYkpFEtH3p2rlmhnpmZ7ibe74E9h7c4Xe8A1XsK819Jy8DSwOqAFMz/BlV3U1lZswFq4kIC8yhu/erJk/QgqqInwXwMoKkgbl2roGl/wNzhOTUftA8/qlyA6lSs9GS/lAFWD2nHSwlyuZbdF4PEZN2yNuWL9VqT/qnX8G1/XXVMnD6O0JS94XQvL55whlUqdlqGfjIZrDvmAMsS2ICqNoDLGvCl/cBhEsv9zkAtyKwX83zYOlqjbw1uejlD62DZv2CWFMmg2q+qbcC9TgWWwfPWezzGroBSAXVgq5XiUma5NyyeC+vA4w/WtsMi4IVDnEuLjxgYd62zFmwXFVOjOOtLHG4y97eQEQbF5/nxAxi6i9/buo6arhv+hURbXDvem+jt6IoYGEZhC/AJFgboIq9hzlt6khjx4wwWxsZ3LvXw1tZ+gAxmJv6LRXBFq03gDlaQdckRLT91lWy6nP1bLiEDi+IH4lo+41c9NImzX4k6AmunWuOaecOPgDB1JTUcCcwx+MGsMLxoPOA1cocPI8tLyB4I1YzWFr2fDCn4H/B3ld/56MSzDk8c545QsZV/Cqos/IJEKHC9zj1ODpLQxc8SywdgqWg3QdW49JUBGY4gOvA6l+bcj4WOrcs/oq6z/HajzgkHA7IR+C5dxcbTgDf6W2Enmg1xyAXrigjou0DvW3hhEQ+gHf0NoLD8WE4/JoPgkXrQlpFK/s/cntO5m0hRqv/FvlINI6KxDTu3etrvZWltxCDeRkCpXmb4yQRbWNdJatei6byVRA2E9E2Ti56aYNmP3Le2kDXjjc3a+cOXgfB9CWYomTIEDHpU9f2NwY4cudu0WpPND1H6WpoNcdug2D8L1peq1hJxMQbWfrV6RZe2jRy8Sv/pc7KDSBCI+Ur6nHcJw17MoNYOjRyguSil0Hlql+BCAvQ8vSpc8Qk3ejcsngZdZ/j6ntxSuscEKrBmbeoGkT4KEz2cGIA6vpRdRbklBBT7PVtjDI/AHhDbyM4zVMXBfkrEW1lzZ/N4UQWMfWXMHUdPYZ6Zf8i3FDTr+r5AqwWzZd4U8OCe/d6r2PT/Pnqj7vHEYP5bTTdqK6eA0S0LXbvWjfIkTsnV4fIxxkw2fsXiWgb4tq59hpH7pzipiIf/rh2vHlIO3fwBgimX4PVbDS3Q/81EZMmyduW367Vnmja8/Cdo3R1pVZz7HoIxvvB0rqao5qIiWtdJavSHLmPhdX58OFRsJ4o/ixDoJIY5KKXVOf3T/+BuqpHgwgvonkH9QyAJcQkpTm3LP6cRz7im1Akz5oZQSBSVvZVoFpBGOzhtBQiVFBX9Vi5cIX/Tap1w1ov6SQNXbCOehzx01tFMO7T7EfHh6ET+k9DJnW/zDp47stUsd8erjE5gRCj5VvPqa23KXs/vOCUAGPHDJjTpj5AFfub4bSNc36IKXG9cnDDdM+xjTwJmxMS5r6TRWPKgN5UdY8DkAK2QDcDKCWi7XtX6Z9OqNV7WxQ9iGUs6Q+mCO16DoDmHQKgfmdPJmLSbnnb8i+12hOtziKxDJyeKiR16wVNzQSTx6Zg8ti7iJh4QC54oVhzno75PhnWQbMHE+slw0C1jmBrVCOAcmKSipxbFu/jTsfFQ+sdEAAggkHKys4F1UaFZTxO6ETOARGloQvuoR7HmnCOG1Ei4IAAgJDUPdM6eG4hVezh+X/hBBAOBwQAjB0zLjOnTV1OFfukcNmmA3YAp8AWZh2aOVd3uAPC4XA4nJbS2hqQelQA94dpLL2hYAXIbRoqVynOgpyNxJQQ8zsmUWAXgHl6G3GBOBD9xl264a0s+cFd/s5KItrC6pBHkT0AbgYwR29DOBwOh8OJFOFxQFgtyAEQYUlYxtMPF1iu4ut6GxIjVIC9H22aus7ofyei7Qu9bWkhx8BUUF7Q25AosxXA79G6Dr/RRiamhFe8P2y+2pm3aJNy6DMjEZPCtUHE4XA4HE5MEb4bHNU0Z96iZ0GEnWEbM6oQB/U6Jzk3Zz9FDGaL3tbEAlSucjgLcv5MTAl79bZFb7SaY8flopWPE9Hm35U2NjGIueqZnUNcpaveIqKtyS68FyPeimK4y995n4i2WXrbEgrElLDF+8Pm8Y5v5s1SDn3m312Zw+FwOJyLjnDvsKkAfoW4k+Ulx6jXOUAuWPYRMZhNelsTY5wEMF1vI2KEUrDvdywXR56DQVyoVpWNde/94DQR25n1NkgP6pyQt4hoe1pvW87DUWKSJnuO/neEcuhAnIAIAAAEm0lEQVSzNi17zeFwOJy2RXgdEKrRulSssWi53rceqAD5mHrlXnLB0vM1/WmzULmKOgtythBTwly9bdEbzX4UctHKTUS0Pai3LUHQYBA/U8/uG+HctOB5d/l7etujO96KYo+7/J3FRLQ9gNj6PTpCTNL93h/yezm++d165dBnetvD4XA4HE5UCX+OMXNCCkEM1yK2bvp+kFPU63rYmffMLXJBjtL8+W0XKlfJzoKcN4gpIVtvW/RGsx/1ykUr3yOibQqAWPneHIFBvEOtKrvRXf7eLr2NiSXqIiFriWibCOCwzubUOx69Hd/87i/KoU89OtvD4XA4HI4uRKbIkTkhW0EMYxG8KY2eqAD5N/XKA+WCnPiRmNWZunqQZcSUEBd59ZFEsx/1yEUr3yWibRz0VUyrhEGcp57d19e5acE/eNQjON6KYjhy53ym7P/oWiLa/qGDCcXEJE32/pDfhzseHA6Hw+FEygEBAKrWOyEZAD6J2DyhQwGyi3pddznznpkgF+RU6G1QvFEXCfkjMSWOBLBbb3v8qAXwLwBRKeLV7EfhyJ2zybVzTT8i2v4ZjTl9qHM89vdwblqw3F3+XjypPemGt6L4kLv83YlEtF0HINId008Qk7TCe6ogw5m3aBBLtfrUHeE5ORwOh8OJC4wRHZ2qcH7/1BkQwwQpK/tBUHU5gMSIzhmc0wCWU6/8R7kghy/WWgGVqzTHN4/lCdaUIdahC2ZTT+08AO10MMUB4AsIxm+0mmNfu0pX79DBBmj2oz/IRS9Nsg6afQtV7MsA9IzgdHtgEFeqVeXvucvfjeH0xtjFW1EEb0XR18ZOgzLN/X5zNVXsjwK4EaxzcGs5DuAjYpL+4zmWm6sc/MQZhjE5HA6Hw7noiF5nZ2KAlJV9Caj6GICZiLwjQgHsBbCCqu51cv7zIS3YiNFqkUYsWkpVd3ykGkWoE3qoCNaUBOvQBXdST+2tAK4HIEZgGheAbQBKIBgLtZpjua7S1YcjME+rEGw9EqyDZt9FFfsCAKlhGvZHGMS/qVXlf3OXv7spTGNyfDB2GpRk7veb66hi/yWAawFcHsJlDgCHAOwkRukrz/FvvlQObjgSSTs5HA6Hw7lYiJ4DUo9ghJT17CXQ1NvAHJH+YZ7BA+BNqro/lvOfb7G8DDFajdKIReOo6h4JJiscyxAQoZa6qt+SC1fo3j9AsHa0WofOH089taMBpAG4AkDvEC/3ADgAVih8BMABCIbtWs2JA67SP+2PiMERQrD1MFkHzR5IFfvtAG4B0KcFlzsB5AHYCIO4Ua3avc1d/javGYgixs6DDea+91xBFfvlYN/LeggxSl7PiW8PKgf+HWu1bRwOh8PhxA3Rd0B8EYxEynr2CmjqWADX1D26t3AUDUAhgI1QlVxn/pL/hNtMTusQpE4m69AnelGltgt+cuoIiEHWHCdLXCWrXHraF2kM7S5PsGTOyqCKvTeYQ+a7qDUAOANBLFSr99S4y94q1cdKDofD4XA4nOigrwMSDMEkSFnPjoHmpWD59D3A0qnqoQB+BFAKVal25i/RJfefw+FwOBwOh8PhtJz/B+2GVOT2TTJpAAAAAElFTkSuQmCC;" parent="s_Ze_dU6yraX1gmQ5FHQ-4" vertex="1">
          <mxGeometry x="308.88" width="358.21" height="60" as="geometry" />
        </mxCell>
        <mxCell id="o1qsryoQ87f_vbVnUVaf-1" value="«Component»&lt;br&gt;&lt;b&gt;Inven!RA&lt;/b&gt;" style="html=1;dropTarget=0;whiteSpace=wrap;movableLabel=1;" parent="1" vertex="1">
          <mxGeometry x="15" y="190" width="120" height="380" as="geometry">
            <mxPoint x="-9" y="-169" as="offset" />
          </mxGeometry>
        </mxCell>
        <mxCell id="o1qsryoQ87f_vbVnUVaf-2" value="" style="shape=module;jettyWidth=8;jettyHeight=4;" parent="o1qsryoQ87f_vbVnUVaf-1" vertex="1">
          <mxGeometry x="1" width="20" height="20" relative="1" as="geometry">
            <mxPoint x="-27" y="7" as="offset" />
          </mxGeometry>
        </mxCell>
        <mxCell id="o1qsryoQ87f_vbVnUVaf-3" value="«Component»&lt;br&gt;&lt;b&gt;Git AP Backend&lt;/b&gt;" style="html=1;dropTarget=0;whiteSpace=wrap;movableLabel=1;" parent="1" vertex="1">
          <mxGeometry x="256" y="190" width="404" height="380" as="geometry">
            <mxPoint x="-1" y="-170" as="offset" />
          </mxGeometry>
        </mxCell>
        <mxCell id="o1qsryoQ87f_vbVnUVaf-4" value="" style="shape=module;jettyWidth=8;jettyHeight=4;" parent="o1qsryoQ87f_vbVnUVaf-3" vertex="1">
          <mxGeometry x="1" width="20" height="20" relative="1" as="geometry">
            <mxPoint x="-27" y="7" as="offset" />
          </mxGeometry>
        </mxCell>
        <mxCell id="o1qsryoQ87f_vbVnUVaf-7" value="" style="html=1;rounded=0;" parent="1" vertex="1">
          <mxGeometry x="130" y="245" width="10" height="10" as="geometry" />
        </mxCell>
        <mxCell id="o1qsryoQ87f_vbVnUVaf-8" value="" style="endArrow=none;html=1;rounded=0;align=center;verticalAlign=top;endFill=0;labelBackgroundColor=none;endSize=2;" parent="1" source="o1qsryoQ87f_vbVnUVaf-7" target="o1qsryoQ87f_vbVnUVaf-9" edge="1">
          <mxGeometry relative="1" as="geometry" />
        </mxCell>
        <mxCell id="o1qsryoQ87f_vbVnUVaf-9" value="" style="shape=requiredInterface;html=1;fontSize=11;align=center;fillColor=none;points=[];aspect=fixed;resizable=0;verticalAlign=bottom;labelPosition=center;verticalLabelPosition=top;flipH=1;" parent="1" vertex="1">
          <mxGeometry x="177" y="245" width="5" height="10" as="geometry" />
        </mxCell>
        <mxCell id="o1qsryoQ87f_vbVnUVaf-11" value="" style="html=1;rounded=0;" parent="1" vertex="1">
          <mxGeometry x="250.88" y="245" width="10" height="10" as="geometry" />
        </mxCell>
        <mxCell id="o1qsryoQ87f_vbVnUVaf-12" value="" style="endArrow=none;html=1;rounded=0;align=center;verticalAlign=top;endFill=0;labelBackgroundColor=none;endSize=2;" parent="1" source="o1qsryoQ87f_vbVnUVaf-11" target="o1qsryoQ87f_vbVnUVaf-13" edge="1">
          <mxGeometry relative="1" as="geometry" />
        </mxCell>
        <mxCell id="o1qsryoQ87f_vbVnUVaf-13" value="" style="ellipse;html=1;fontSize=11;align=center;fillColor=none;points=[];aspect=fixed;resizable=0;verticalAlign=bottom;labelPosition=center;verticalLabelPosition=top;flipH=1;" parent="1" vertex="1">
          <mxGeometry x="182" y="246" width="8" height="8" as="geometry" />
        </mxCell>
        <mxCell id="o1qsryoQ87f_vbVnUVaf-32" value="Config Parameters" style="text;html=1;align=center;verticalAlign=middle;whiteSpace=wrap;rounded=0;fontSize=9;" parent="1" vertex="1">
          <mxGeometry x="142.25" y="225" width="87.5" height="30" as="geometry" />
        </mxCell>
        <mxCell id="o1qsryoQ87f_vbVnUVaf-62" value="" style="ellipse;whiteSpace=wrap;html=1;align=center;aspect=fixed;fillColor=none;strokeColor=none;resizable=0;perimeter=centerPerimeter;rotatable=0;allowArrows=0;points=[];outlineConnect=1;" parent="1" vertex="1">
          <mxGeometry x="467" y="340" width="10" height="10" as="geometry" />
        </mxCell>
        <mxCell id="o1qsryoQ87f_vbVnUVaf-67" value="" style="html=1;rounded=0;" parent="1" vertex="1">
          <mxGeometry x="130" y="284" width="10" height="10" as="geometry" />
        </mxCell>
        <mxCell id="o1qsryoQ87f_vbVnUVaf-68" value="" style="endArrow=none;html=1;rounded=0;align=center;verticalAlign=top;endFill=0;labelBackgroundColor=none;endSize=2;exitX=1;exitY=0.5;exitDx=0;exitDy=0;" parent="1" source="o1qsryoQ87f_vbVnUVaf-67" target="o1qsryoQ87f_vbVnUVaf-69" edge="1">
          <mxGeometry relative="1" as="geometry">
            <mxPoint x="186.12" y="289" as="sourcePoint" />
          </mxGeometry>
        </mxCell>
        <mxCell id="o1qsryoQ87f_vbVnUVaf-69" value="" style="shape=requiredInterface;html=1;fontSize=11;align=center;fillColor=none;points=[];aspect=fixed;resizable=0;verticalAlign=bottom;labelPosition=center;verticalLabelPosition=top;flipH=1;" parent="1" vertex="1">
          <mxGeometry x="178.12" y="284" width="5" height="10" as="geometry" />
        </mxCell>
        <mxCell id="o1qsryoQ87f_vbVnUVaf-70" value="" style="ellipse;html=1;fontSize=11;align=center;fillColor=none;points=[];aspect=fixed;resizable=0;verticalAlign=bottom;labelPosition=center;verticalLabelPosition=top;flipH=1;" parent="1" vertex="1">
          <mxGeometry x="183.12" y="285" width="8" height="8" as="geometry" />
        </mxCell>
        <mxCell id="o1qsryoQ87f_vbVnUVaf-71" value="Config Interface" style="text;html=1;align=center;verticalAlign=middle;whiteSpace=wrap;rounded=0;fontSize=9;" parent="1" vertex="1">
          <mxGeometry x="142.25" y="262" width="87.5" height="30" as="geometry" />
        </mxCell>
        <mxCell id="o1qsryoQ87f_vbVnUVaf-73" value="" style="endArrow=none;html=1;rounded=0;align=center;verticalAlign=top;endFill=0;labelBackgroundColor=none;endSize=2;exitX=0;exitY=0.5;exitDx=0;exitDy=0;" parent="1" source="zvPEBXMsdaCRJJI15j3T-3" edge="1">
          <mxGeometry relative="1" as="geometry">
            <mxPoint x="250.8800000000001" y="289" as="sourcePoint" />
            <mxPoint x="191.12" y="288.92" as="targetPoint" />
          </mxGeometry>
        </mxCell>
        <mxCell id="o1qsryoQ87f_vbVnUVaf-81" value="" style="endArrow=none;html=1;rounded=0;align=center;verticalAlign=top;endFill=0;labelBackgroundColor=none;endSize=2;exitX=1;exitY=0.5;exitDx=0;exitDy=0;" parent="1" source="o1qsryoQ87f_vbVnUVaf-88" target="o1qsryoQ87f_vbVnUVaf-82" edge="1">
          <mxGeometry relative="1" as="geometry">
            <mxPoint x="185" y="340" as="sourcePoint" />
          </mxGeometry>
        </mxCell>
        <mxCell id="o1qsryoQ87f_vbVnUVaf-82" value="" style="shape=requiredInterface;html=1;fontSize=11;align=center;fillColor=none;points=[];aspect=fixed;resizable=0;verticalAlign=bottom;labelPosition=center;verticalLabelPosition=top;flipH=1;" parent="1" vertex="1">
          <mxGeometry x="177" y="335" width="5" height="10" as="geometry" />
        </mxCell>
        <mxCell id="o1qsryoQ87f_vbVnUVaf-83" value="" style="ellipse;html=1;fontSize=11;align=center;fillColor=none;points=[];aspect=fixed;resizable=0;verticalAlign=bottom;labelPosition=center;verticalLabelPosition=top;flipH=1;" parent="1" vertex="1">
          <mxGeometry x="182" y="336" width="8" height="8" as="geometry" />
        </mxCell>
        <mxCell id="o1qsryoQ87f_vbVnUVaf-84" value="" style="endArrow=none;html=1;rounded=0;align=center;verticalAlign=top;endFill=0;labelBackgroundColor=none;endSize=2;exitX=0;exitY=0.5;exitDx=0;exitDy=0;" parent="1" source="o1qsryoQ87f_vbVnUVaf-85" edge="1">
          <mxGeometry relative="1" as="geometry">
            <mxPoint x="247" y="339.92" as="sourcePoint" />
            <mxPoint x="190" y="339.92" as="targetPoint" />
          </mxGeometry>
        </mxCell>
        <mxCell id="o1qsryoQ87f_vbVnUVaf-85" value="" style="html=1;rounded=0;" parent="1" vertex="1">
          <mxGeometry x="250.88" y="335" width="11.12" height="10" as="geometry" />
        </mxCell>
        <mxCell id="o1qsryoQ87f_vbVnUVaf-88" value="" style="html=1;rounded=0;" parent="1" vertex="1">
          <mxGeometry x="130" y="335" width="10" height="10" as="geometry" />
        </mxCell>
        <mxCell id="o1qsryoQ87f_vbVnUVaf-91" value="Analytics Contract" style="text;html=1;align=center;verticalAlign=middle;whiteSpace=wrap;rounded=0;fontSize=9;" parent="1" vertex="1">
          <mxGeometry x="143.37" y="314" width="87.5" height="30" as="geometry" />
        </mxCell>
        <mxCell id="o1qsryoQ87f_vbVnUVaf-92" value="" style="endArrow=none;html=1;rounded=0;align=center;verticalAlign=top;endFill=0;labelBackgroundColor=none;endSize=2;exitX=1;exitY=0.5;exitDx=0;exitDy=0;" parent="1" source="o1qsryoQ87f_vbVnUVaf-99" target="o1qsryoQ87f_vbVnUVaf-93" edge="1">
          <mxGeometry relative="1" as="geometry">
            <mxPoint x="185" y="380" as="sourcePoint" />
          </mxGeometry>
        </mxCell>
        <mxCell id="o1qsryoQ87f_vbVnUVaf-93" value="" style="shape=requiredInterface;html=1;fontSize=11;align=center;fillColor=none;points=[];aspect=fixed;resizable=0;verticalAlign=bottom;labelPosition=center;verticalLabelPosition=top;flipH=1;" parent="1" vertex="1">
          <mxGeometry x="177" y="375" width="5" height="10" as="geometry" />
        </mxCell>
        <mxCell id="o1qsryoQ87f_vbVnUVaf-94" value="" style="ellipse;html=1;fontSize=11;align=center;fillColor=none;points=[];aspect=fixed;resizable=0;verticalAlign=bottom;labelPosition=center;verticalLabelPosition=top;flipH=1;" parent="1" vertex="1">
          <mxGeometry x="182" y="376" width="8" height="8" as="geometry" />
        </mxCell>
        <mxCell id="o1qsryoQ87f_vbVnUVaf-95" value="" style="endArrow=none;html=1;rounded=0;align=center;verticalAlign=top;endFill=0;labelBackgroundColor=none;endSize=2;exitX=0;exitY=0.5;exitDx=0;exitDy=0;" parent="1" source="o1qsryoQ87f_vbVnUVaf-96" edge="1">
          <mxGeometry relative="1" as="geometry">
            <mxPoint x="247" y="379.92" as="sourcePoint" />
            <mxPoint x="190" y="379.92" as="targetPoint" />
          </mxGeometry>
        </mxCell>
        <mxCell id="o1qsryoQ87f_vbVnUVaf-96" value="" style="html=1;rounded=0;" parent="1" vertex="1">
          <mxGeometry x="250.32" y="375" width="11.12" height="10" as="geometry" />
        </mxCell>
        <mxCell id="o1qsryoQ87f_vbVnUVaf-99" value="" style="html=1;rounded=0;" parent="1" vertex="1">
          <mxGeometry x="130" y="375" width="10" height="10" as="geometry" />
        </mxCell>
        <mxCell id="o1qsryoQ87f_vbVnUVaf-100" value="Provide Analytics" style="text;html=1;align=center;verticalAlign=middle;whiteSpace=wrap;rounded=0;fontSize=9;" parent="1" vertex="1">
          <mxGeometry x="143.37" y="354" width="87.5" height="30" as="geometry" />
        </mxCell>
        <mxCell id="WU7UDboMPXjgZ1tM95fb-1" value="«Component»&lt;br&gt;&lt;b&gt;Github&lt;/b&gt;" style="html=1;dropTarget=0;whiteSpace=wrap;movableLabel=1;" parent="1" vertex="1">
          <mxGeometry x="900" y="212" width="120" height="110" as="geometry">
            <mxPoint x="-10" y="-36" as="offset" />
          </mxGeometry>
        </mxCell>
        <mxCell id="WU7UDboMPXjgZ1tM95fb-2" value="" style="shape=module;jettyWidth=8;jettyHeight=4;" parent="WU7UDboMPXjgZ1tM95fb-1" vertex="1">
          <mxGeometry x="1" width="20" height="20" relative="1" as="geometry">
            <mxPoint x="-27" y="7" as="offset" />
          </mxGeometry>
        </mxCell>
        <mxCell id="WU7UDboMPXjgZ1tM95fb-3" value="" style="html=1;rounded=0;" parent="1" vertex="1">
          <mxGeometry x="655" y="262" width="10" height="10" as="geometry" />
        </mxCell>
        <mxCell id="WU7UDboMPXjgZ1tM95fb-6" value="" style="endArrow=none;html=1;rounded=0;align=center;verticalAlign=top;endFill=0;labelBackgroundColor=none;endSize=2;exitX=1;exitY=0.5;exitDx=0;exitDy=0;entryX=1.051;entryY=0.504;entryDx=0;entryDy=0;entryPerimeter=0;" parent="1" source="WU7UDboMPXjgZ1tM95fb-3" target="WU7UDboMPXjgZ1tM95fb-5" edge="1">
          <mxGeometry relative="1" as="geometry">
            <mxPoint x="780" y="244.06389776357832" as="sourcePoint" />
            <mxPoint x="929" y="265" as="targetPoint" />
          </mxGeometry>
        </mxCell>
        <mxCell id="WU7UDboMPXjgZ1tM95fb-5" value="" style="shape=requiredInterface;html=1;fontSize=11;align=center;fillColor=none;points=[];aspect=fixed;resizable=0;verticalAlign=bottom;labelPosition=center;verticalLabelPosition=top;flipH=1;" parent="1" vertex="1">
          <mxGeometry x="678" y="262" width="5" height="10" as="geometry" />
        </mxCell>
        <mxCell id="WU7UDboMPXjgZ1tM95fb-7" value="" style="html=1;rounded=0;" parent="1" vertex="1">
          <mxGeometry x="895" y="261" width="10" height="10" as="geometry" />
        </mxCell>
        <mxCell id="WU7UDboMPXjgZ1tM95fb-8" value="" style="endArrow=none;html=1;rounded=0;align=center;verticalAlign=top;endFill=0;labelBackgroundColor=none;endSize=2;entryX=0;entryY=0.5;entryDx=0;entryDy=0;entryPerimeter=0;" parent="1" source="WU7UDboMPXjgZ1tM95fb-7" target="WU7UDboMPXjgZ1tM95fb-9" edge="1">
          <mxGeometry relative="1" as="geometry">
            <mxPoint x="920" y="310" as="targetPoint" />
          </mxGeometry>
        </mxCell>
        <mxCell id="WU7UDboMPXjgZ1tM95fb-9" value="" style="ellipse;html=1;fontSize=11;align=center;fillColor=none;points=[];aspect=fixed;resizable=0;verticalAlign=bottom;labelPosition=center;verticalLabelPosition=top;flipH=1;" parent="1" vertex="1">
          <mxGeometry x="683" y="263" width="8" height="8" as="geometry" />
        </mxCell>
        <mxCell id="WU7UDboMPXjgZ1tM95fb-11" value="Fetch Analytics" style="text;html=1;align=center;verticalAlign=middle;whiteSpace=wrap;rounded=0;fontSize=9;" parent="1" vertex="1">
          <mxGeometry x="723" y="233" width="87.5" height="30" as="geometry" />
        </mxCell>
        <mxCell id="WU7UDboMPXjgZ1tM95fb-16" value="" style="html=1;rounded=0;" parent="1" vertex="1">
          <mxGeometry x="130" y="445" width="10" height="10" as="geometry" />
        </mxCell>
        <mxCell id="WU7UDboMPXjgZ1tM95fb-19" value="" style="html=1;rounded=0;" parent="1" vertex="1">
          <mxGeometry x="130" y="485" width="10" height="10" as="geometry" />
        </mxCell>
        <mxCell id="WU7UDboMPXjgZ1tM95fb-20" value="" style="endArrow=none;html=1;rounded=0;align=center;verticalAlign=top;endFill=0;labelBackgroundColor=none;endSize=2;exitX=1;exitY=0.5;exitDx=0;exitDy=0;" parent="1" source="WU7UDboMPXjgZ1tM95fb-16" target="WU7UDboMPXjgZ1tM95fb-21" edge="1">
          <mxGeometry relative="1" as="geometry">
            <mxPoint x="185" y="450" as="sourcePoint" />
          </mxGeometry>
        </mxCell>
        <mxCell id="WU7UDboMPXjgZ1tM95fb-21" value="" style="shape=requiredInterface;html=1;fontSize=11;align=center;fillColor=none;points=[];aspect=fixed;resizable=0;verticalAlign=bottom;labelPosition=center;verticalLabelPosition=top;flipH=1;" parent="1" vertex="1">
          <mxGeometry x="177" y="445" width="5" height="10" as="geometry" />
        </mxCell>
        <mxCell id="WU7UDboMPXjgZ1tM95fb-22" value="" style="ellipse;html=1;fontSize=11;align=center;fillColor=none;points=[];aspect=fixed;resizable=0;verticalAlign=bottom;labelPosition=center;verticalLabelPosition=top;flipH=1;" parent="1" vertex="1">
          <mxGeometry x="182" y="446" width="8" height="8" as="geometry" />
        </mxCell>
        <mxCell id="WU7UDboMPXjgZ1tM95fb-23" value="" style="endArrow=none;html=1;rounded=0;align=center;verticalAlign=top;endFill=0;labelBackgroundColor=none;endSize=2;exitX=0;exitY=0.5;exitDx=0;exitDy=0;" parent="1" source="WU7UDboMPXjgZ1tM95fb-24" edge="1">
          <mxGeometry relative="1" as="geometry">
            <mxPoint x="247" y="449.92" as="sourcePoint" />
            <mxPoint x="190" y="449.92" as="targetPoint" />
          </mxGeometry>
        </mxCell>
        <mxCell id="WU7UDboMPXjgZ1tM95fb-24" value="" style="html=1;rounded=0;" parent="1" vertex="1">
          <mxGeometry x="250.88" y="445" width="11.12" height="10" as="geometry" />
        </mxCell>
        <mxCell id="WU7UDboMPXjgZ1tM95fb-27" value="" style="endArrow=none;html=1;rounded=0;align=center;verticalAlign=top;endFill=0;labelBackgroundColor=none;endSize=2;exitX=1;exitY=0.5;exitDx=0;exitDy=0;" parent="1" source="WU7UDboMPXjgZ1tM95fb-19" target="WU7UDboMPXjgZ1tM95fb-28" edge="1">
          <mxGeometry relative="1" as="geometry">
            <mxPoint x="185" y="490" as="sourcePoint" />
          </mxGeometry>
        </mxCell>
        <mxCell id="WU7UDboMPXjgZ1tM95fb-28" value="" style="shape=requiredInterface;html=1;fontSize=11;align=center;fillColor=none;points=[];aspect=fixed;resizable=0;verticalAlign=bottom;labelPosition=center;verticalLabelPosition=top;flipH=1;" parent="1" vertex="1">
          <mxGeometry x="177" y="485" width="5" height="10" as="geometry" />
        </mxCell>
        <mxCell id="WU7UDboMPXjgZ1tM95fb-29" value="" style="ellipse;html=1;fontSize=11;align=center;fillColor=none;points=[];aspect=fixed;resizable=0;verticalAlign=bottom;labelPosition=center;verticalLabelPosition=top;flipH=1;" parent="1" vertex="1">
          <mxGeometry x="182" y="486" width="8" height="8" as="geometry" />
        </mxCell>
        <mxCell id="WU7UDboMPXjgZ1tM95fb-30" value="" style="endArrow=none;html=1;rounded=0;align=center;verticalAlign=top;endFill=0;labelBackgroundColor=none;endSize=2;exitX=0;exitY=0.5;exitDx=0;exitDy=0;" parent="1" source="WU7UDboMPXjgZ1tM95fb-31" edge="1">
          <mxGeometry relative="1" as="geometry">
            <mxPoint x="247" y="489.9200000000001" as="sourcePoint" />
            <mxPoint x="190" y="489.9200000000001" as="targetPoint" />
          </mxGeometry>
        </mxCell>
        <mxCell id="WU7UDboMPXjgZ1tM95fb-31" value="" style="html=1;rounded=0;" parent="1" vertex="1">
          <mxGeometry x="250.88" y="485" width="11.12" height="10" as="geometry" />
        </mxCell>
        <mxCell id="WU7UDboMPXjgZ1tM95fb-34" value="Provide Activity" style="text;html=1;align=center;verticalAlign=middle;whiteSpace=wrap;rounded=0;fontSize=9;" parent="1" vertex="1">
          <mxGeometry x="143.37" y="464" width="87.5" height="30" as="geometry" />
        </mxCell>
        <mxCell id="WU7UDboMPXjgZ1tM95fb-35" value="Deploy" style="text;html=1;align=center;verticalAlign=middle;whiteSpace=wrap;rounded=0;fontSize=9;" parent="1" vertex="1">
          <mxGeometry x="142.25" y="424" width="87.5" height="30" as="geometry" />
        </mxCell>
        <mxCell id="zvPEBXMsdaCRJJI15j3T-1" value="ConfigController" style="shape=module;align=left;spacingLeft=20;align=center;verticalAlign=top;whiteSpace=wrap;html=1;" vertex="1" parent="1">
          <mxGeometry x="285" y="244" width="130" height="50" as="geometry" />
        </mxCell>
        <mxCell id="zvPEBXMsdaCRJJI15j3T-2" value="AnalyticsController" style="shape=module;align=left;spacingLeft=20;align=center;verticalAlign=top;whiteSpace=wrap;html=1;" vertex="1" parent="1">
          <mxGeometry x="285" y="329" width="130" height="50" as="geometry" />
        </mxCell>
        <mxCell id="zvPEBXMsdaCRJJI15j3T-3" value="" style="html=1;rounded=0;" vertex="1" parent="1">
          <mxGeometry x="252" y="284" width="10" height="10" as="geometry" />
        </mxCell>
        <mxCell id="zvPEBXMsdaCRJJI15j3T-4" value="ActivityController" style="shape=module;align=left;spacingLeft=20;align=center;verticalAlign=top;whiteSpace=wrap;html=1;" vertex="1" parent="1">
          <mxGeometry x="286" y="444" width="130" height="50" as="geometry" />
        </mxCell>
        <mxCell id="zvPEBXMsdaCRJJI15j3T-6" value="AnalyticsService" style="shape=module;align=left;spacingLeft=20;align=center;verticalAlign=top;whiteSpace=wrap;html=1;" vertex="1" parent="1">
          <mxGeometry x="457" y="329" width="130" height="50" as="geometry" />
        </mxCell>
        <mxCell id="zvPEBXMsdaCRJJI15j3T-7" value="AnalyticsRepository" style="shape=module;align=left;spacingLeft=20;align=center;verticalAlign=top;whiteSpace=wrap;html=1;" vertex="1" parent="1">
          <mxGeometry x="457" y="444" width="130" height="50" as="geometry" />
        </mxCell>
        <mxCell id="zvPEBXMsdaCRJJI15j3T-9" value="GitService" style="shape=module;align=left;spacingLeft=20;align=center;verticalAlign=top;whiteSpace=wrap;html=1;" vertex="1" parent="1">
          <mxGeometry x="457" y="242" width="130" height="50" as="geometry" />
        </mxCell>
        <mxCell id="zvPEBXMsdaCRJJI15j3T-11" value="" style="endArrow=open;endSize=12;dashed=1;html=1;rounded=0;exitX=1;exitY=1;exitDx=0;exitDy=0;entryX=0;entryY=1;entryDx=10;entryDy=0;entryPerimeter=0;" edge="1" parent="1" source="zvPEBXMsdaCRJJI15j3T-2" target="zvPEBXMsdaCRJJI15j3T-6">
          <mxGeometry width="160" relative="1" as="geometry">
            <mxPoint x="437" y="304" as="sourcePoint" />
            <mxPoint x="477" y="303" as="targetPoint" />
          </mxGeometry>
        </mxCell>
        <mxCell id="zvPEBXMsdaCRJJI15j3T-12" value="" style="endArrow=open;endSize=12;dashed=1;html=1;rounded=0;exitX=1;exitY=0;exitDx=0;exitDy=0;entryX=0.25;entryY=1;entryDx=0;entryDy=0;" edge="1" parent="1" source="zvPEBXMsdaCRJJI15j3T-4" target="zvPEBXMsdaCRJJI15j3T-6">
          <mxGeometry width="160" relative="1" as="geometry">
            <mxPoint x="447" y="314" as="sourcePoint" />
            <mxPoint x="487" y="313" as="targetPoint" />
            <Array as="points">
              <mxPoint x="441" y="444" />
              <mxPoint x="441" y="410" />
              <mxPoint x="490" y="410" />
            </Array>
          </mxGeometry>
        </mxCell>
        <mxCell id="zvPEBXMsdaCRJJI15j3T-13" value="" style="endArrow=open;endSize=12;dashed=1;html=1;rounded=0;exitX=0.5;exitY=0;exitDx=0;exitDy=0;entryX=0.5;entryY=1;entryDx=0;entryDy=0;" edge="1" parent="1" source="zvPEBXMsdaCRJJI15j3T-6" target="zvPEBXMsdaCRJJI15j3T-9">
          <mxGeometry width="160" relative="1" as="geometry">
            <mxPoint x="437" y="389" as="sourcePoint" />
            <mxPoint x="521" y="300" as="targetPoint" />
          </mxGeometry>
        </mxCell>
        <mxCell id="zvPEBXMsdaCRJJI15j3T-20" value="«Database»&lt;br&gt;&lt;b&gt;Persistence&lt;/b&gt;" style="html=1;dropTarget=0;whiteSpace=wrap;" vertex="1" parent="1">
          <mxGeometry x="747.75" y="424" width="103.25" height="90" as="geometry" />
        </mxCell>
        <mxCell id="zvPEBXMsdaCRJJI15j3T-21" value="" style="shape=module;jettyWidth=8;jettyHeight=4;" vertex="1" parent="zvPEBXMsdaCRJJI15j3T-20">
          <mxGeometry x="1" width="20" height="20" relative="1" as="geometry">
            <mxPoint x="-27" y="7" as="offset" />
          </mxGeometry>
        </mxCell>
        <mxCell id="zvPEBXMsdaCRJJI15j3T-26" value="" style="html=1;rounded=0;" vertex="1" parent="1">
          <mxGeometry x="654.75" y="464" width="10" height="10" as="geometry" />
        </mxCell>
        <mxCell id="zvPEBXMsdaCRJJI15j3T-27" value="" style="endArrow=none;html=1;rounded=0;align=center;verticalAlign=top;endFill=0;labelBackgroundColor=none;endSize=2;" edge="1" parent="1" source="zvPEBXMsdaCRJJI15j3T-26" target="zvPEBXMsdaCRJJI15j3T-28">
          <mxGeometry relative="1" as="geometry">
            <mxPoint x="721.75" y="486" as="sourcePoint" />
            <mxPoint x="771.75" y="486" as="targetPoint" />
          </mxGeometry>
        </mxCell>
        <mxCell id="zvPEBXMsdaCRJJI15j3T-28" value="" style="shape=requiredInterface;html=1;fontSize=11;align=center;fillColor=none;points=[];aspect=fixed;resizable=0;verticalAlign=bottom;labelPosition=center;verticalLabelPosition=top;flipH=1;" vertex="1" parent="1">
          <mxGeometry x="678.75" y="464" width="5" height="10" as="geometry" />
        </mxCell>
        <mxCell id="zvPEBXMsdaCRJJI15j3T-29" value="" style="html=1;rounded=0;" vertex="1" parent="1">
          <mxGeometry x="742.75" y="464" width="10" height="10" as="geometry" />
        </mxCell>
        <mxCell id="zvPEBXMsdaCRJJI15j3T-32" value="Access Data" style="text;html=1;align=center;verticalAlign=middle;whiteSpace=wrap;rounded=0;fontSize=9;" vertex="1" parent="1">
          <mxGeometry x="660" y="434" width="87.5" height="30" as="geometry" />
        </mxCell>
        <mxCell id="zvPEBXMsdaCRJJI15j3T-38" value="" style="rounded=0;orthogonalLoop=1;jettySize=auto;html=1;endArrow=halfCircle;endFill=0;endSize=6;strokeWidth=1;sketch=0;exitX=1;exitY=0.5;exitDx=0;exitDy=0;" edge="1" parent="1" source="zvPEBXMsdaCRJJI15j3T-7">
          <mxGeometry relative="1" as="geometry">
            <mxPoint x="715" y="441" as="sourcePoint" />
            <mxPoint x="640" y="469" as="targetPoint" />
          </mxGeometry>
        </mxCell>
        <mxCell id="zvPEBXMsdaCRJJI15j3T-43" value="" style="ellipse;html=1;fontSize=11;align=center;fillColor=none;points=[];aspect=fixed;resizable=0;verticalAlign=bottom;labelPosition=center;verticalLabelPosition=top;flipH=1;" vertex="1" parent="1">
          <mxGeometry x="723" y="465" width="8" height="8" as="geometry" />
        </mxCell>
        <mxCell id="zvPEBXMsdaCRJJI15j3T-44" value="" style="endArrow=none;html=1;rounded=0;align=center;verticalAlign=top;endFill=0;labelBackgroundColor=none;endSize=2;entryX=0;entryY=0.5;entryDx=0;entryDy=0;exitX=-0.049;exitY=0.5;exitDx=0;exitDy=0;exitPerimeter=0;" edge="1" parent="1" source="zvPEBXMsdaCRJJI15j3T-43" target="zvPEBXMsdaCRJJI15j3T-29">
          <mxGeometry relative="1" as="geometry">
            <mxPoint x="733" y="469" as="sourcePoint" />
            <mxPoint x="766.75" y="500" as="targetPoint" />
          </mxGeometry>
        </mxCell>
        <mxCell id="zvPEBXMsdaCRJJI15j3T-45" value="" style="endArrow=open;endSize=12;dashed=1;html=1;rounded=0;entryX=1.083;entryY=0.417;entryDx=0;entryDy=0;entryPerimeter=0;" edge="1" parent="1" target="zvPEBXMsdaCRJJI15j3T-43">
          <mxGeometry width="160" relative="1" as="geometry">
            <mxPoint x="683.75" y="468.8299999999999" as="sourcePoint" />
            <mxPoint x="713.75" y="468.8299999999999" as="targetPoint" />
          </mxGeometry>
        </mxCell>
        <mxCell id="zvPEBXMsdaCRJJI15j3T-46" value="" style="rounded=0;orthogonalLoop=1;jettySize=auto;html=1;endArrow=halfCircle;endFill=0;endSize=6;strokeWidth=1;sketch=0;exitX=1;exitY=0.5;exitDx=0;exitDy=0;" edge="1" parent="1">
          <mxGeometry relative="1" as="geometry">
            <mxPoint x="586.0000000000002" y="267" as="sourcePoint" />
            <mxPoint x="640" y="267" as="targetPoint" />
          </mxGeometry>
        </mxCell>
        <mxCell id="zvPEBXMsdaCRJJI15j3T-51" value="" style="endArrow=open;endSize=12;dashed=1;html=1;rounded=0;exitX=0.5;exitY=1;exitDx=0;exitDy=0;entryX=0.5;entryY=0;entryDx=0;entryDy=0;" edge="1" parent="1" source="zvPEBXMsdaCRJJI15j3T-6" target="zvPEBXMsdaCRJJI15j3T-7">
          <mxGeometry width="160" relative="1" as="geometry">
            <mxPoint x="521" y="400" as="sourcePoint" />
            <mxPoint x="573" y="400" as="targetPoint" />
          </mxGeometry>
        </mxCell>
        <mxCell id="zvPEBXMsdaCRJJI15j3T-56" value="" style="endArrow=none;html=1;rounded=0;align=center;verticalAlign=top;endFill=0;labelBackgroundColor=none;endSize=2;exitX=0;exitY=0.5;exitDx=0;exitDy=0;" edge="1" parent="1" source="WU7UDboMPXjgZ1tM95fb-3">
          <mxGeometry relative="1" as="geometry">
            <mxPoint x="655" y="283.6" as="sourcePoint" />
            <mxPoint x="640" y="267" as="targetPoint" />
          </mxGeometry>
        </mxCell>
        <mxCell id="zvPEBXMsdaCRJJI15j3T-57" value="" style="endArrow=none;html=1;rounded=0;align=center;verticalAlign=top;endFill=0;labelBackgroundColor=none;endSize=2;entryX=0;entryY=0.5;entryDx=0;entryDy=0;" edge="1" parent="1" target="zvPEBXMsdaCRJJI15j3T-26">
          <mxGeometry relative="1" as="geometry">
            <mxPoint x="638.5" y="468.8" as="sourcePoint" />
            <mxPoint x="660" y="470" as="targetPoint" />
          </mxGeometry>
        </mxCell>
        <mxCell id="zvPEBXMsdaCRJJI15j3T-58" value="&lt;b&gt;Notas&lt;/b&gt;&lt;div style=&quot;&quot;&gt;&lt;b&gt;1. &lt;/b&gt;Como diferentes alunos podem utilizar diferentes repositórios centralizados, apesar do contexto da atividade ser inicializado durante a fase de Deploy, as tarefas que coletam métricas serão apenas inicializadas durante a fase &quot;Provide Activity&quot;. Existirá uma tarefa de coleta de métricas por cada tipo de repositório central como GitHub, GitLab, BitBucket, etc.&lt;/div&gt;&lt;div style=&quot;&quot;&gt;&lt;br&gt;&lt;/div&gt;&lt;div style=&quot;&quot;&gt;&lt;b&gt;2. &lt;/b&gt;GitService é responsável por detetar o tipo de repositório centralizado e usar a estratégia correta para obter as métricas periodicamente e persisti-las na base de dados.&lt;/div&gt;&lt;div style=&quot;&quot;&gt;&lt;br&gt;&lt;/div&gt;&lt;div style=&quot;&quot;&gt;&lt;b&gt;3.&lt;/b&gt;&amp;nbsp;Ao receber um pedido para obtenção de métricas, o AnalyticsService verifica se os dados na base de dados são recentes e retorna esses dados. Caso contrário invoca o GitService para obter dados recentes.&lt;/div&gt;" style="text;html=1;align=left;verticalAlign=middle;whiteSpace=wrap;rounded=0;" vertex="1" parent="1">
          <mxGeometry x="880" y="400" width="270" height="240" as="geometry" />
        </mxCell>
        <mxCell id="zvPEBXMsdaCRJJI15j3T-59" value="Git Activity Provider" style="swimlane;whiteSpace=wrap;html=1;" vertex="1" parent="1">
          <mxGeometry x="230" y="154" width="640" height="456" as="geometry" />
        </mxCell>
      </root>
    </mxGraphModel>
  </diagram>
</mxfile>
